<?xml version="1.0" encoding="utf-8"?>
<!-- Generator: Adobe Illustrator 23.0.0, SVG Export Plug-In . SVG Version: 6.00 Build 0)  -->
<svg version="1.1" id="Layer_1" xmlns="http://www.w3.org/2000/svg" xmlns:xlink="http://www.w3.org/1999/xlink" x="0px" y="0px"
	 viewBox="0 0 322.6 407.5" style="enable-background:new 0 0 322.6 407.5;" xml:space="preserve">
<style type="text/css">
	.st0{fill:"currentColor";}
</style>
<g>
	<path class="st0" d="M94,299.2c-2,3.3-4.9,5.1-8.7,5.5c-1.6,0.2-3.2,0.1-4.8,0.1c-11.4,0-11.4,0-11.4-11.6c0-13.2,0-13.2,16.3-11.4
		C93.9,282.7,98.5,291.9,94,299.2z"/>
	<path class="st0" d="M95.8,258.3c0,5.6-4.5,10.7-10.2,11.5c-1.6,0.2-3.2,0.1-4.8,0.1c-11.8,0-11.8,0-11.8-11.8
		c0-11.3,0-11.3,11.2-11.3c1.6,0,3.2,0,4.8,0.1C91.2,247.4,95.8,252.4,95.8,258.3z"/>
	<path class="st0" d="M176,283.2c-4-8.8-7.9-17.7-12.5-28c-4.6,10.3-8.5,19.2-12.5,28c-1.3,2.7-0.5,3.5,2.3,3.5
		c6.8-0.1,13.5-0.1,20.3,0C176.2,286.7,177.3,286.1,176,283.2z M176,283.2c-4-8.8-7.9-17.7-12.5-28c-4.6,10.3-8.5,19.2-12.5,28
		c-1.3,2.7-0.5,3.5,2.3,3.5c6.8-0.1,13.5-0.1,20.3,0C176.2,286.7,177.3,286.1,176,283.2z M301.8,211.2c0-5-1.1-6.3-6.2-6.3
		c-88.1,0.2-176.2,0.2-264.4,0c-5,0-6.3,1.3-6.2,6.3c0.2,43.1,0.2,86.1,0,129.2c0,4.9,1.1,6.4,6.2,6.3c43.8-0.2,87.7-0.1,131.6-0.1
		c44.2,0,88.5-0.1,132.8,0.1c5.1,0,6.2-1.4,6.2-6.3C301.6,297.3,301.6,254.3,301.8,211.2z M102.1,278.8c5.8,7.2,6.7,15.3,3.2,23.6
		c-3.7,8.6-10.7,13.3-20.1,13.9c-7,0.4-14,0.2-21,0.1c-4.6-0.1-6.8-2.5-6.8-7.2c0.1-11.2,0-22.4,0-33.6c0-11,0.1-22,0-33
		c-0.1-5.3,2.4-7.7,7.6-7.6c6.2,0.1,12.4-0.1,18.6,0.1c9.6,0.2,17,4.4,21.2,13.1c4.2,8.7,3.3,17.2-2.9,24.7
		C99.9,275.4,100.4,276.6,102.1,278.8z M196.1,316.1c-2.9,0.9-5.2-0.4-6.5-2.9c-1.9-3.5-3.6-7.2-5-10.9c-1.2-3.2-2.9-4.6-6.6-4.5
		c-9.6,0.3-19.2,0.3-28.8,0c-3.9-0.1-5.8,1.4-7,4.8c-1.2,3.4-2.7,6.7-4.3,9.9c-1.6,3.2-4.2,5-7.9,3.2c-3.5-1.7-4.1-4.6-2.6-8.1
		c10.1-22.8,20.3-45.6,30.5-68.4c1-2.3,2.7-4,5.5-4.1c2.7-0.1,4.6,1.5,5.6,3.8c10.3,23,20.5,45.9,30.7,68.9c0.3,0.7,0.5,1.5,0.8,2.3
		C200.1,313.1,199,315.3,196.1,316.1z M267.6,312.8c-3.9,3.8-7.2,1.2-10.1-2c-6-6.4-12.1-12.7-18.7-19.7c-1.2,6.2-0.6,11.7-0.6,17.1
		c0,4.3-0.9,8.1-5.8,8.1c-5,0.1-5.9-3.9-5.9-8c0-21.6,0-43.3,0-64.9c0-6.6,1.7-8.1,8.2-8.2c4,0,8-0.1,12,0
		c10.4,0.4,18.1,7.5,19.4,17.8c1.7,12.6-1.8,21.8-10.2,26.1c-2.8,1.4-6,2.1-9.4,3.3c6.5,7,12.9,13.9,19.4,20.6
		C268.8,306,271.2,309.2,267.6,312.8z M254.8,258.4c0-0.8,0-1.6,0-2.4c-0.3-6.9-3.3-8.9-11.7-9.3c-8-0.4-4.5,5.3-4.9,8.6
		c-0.5,3.7-0.1,7.6-0.1,11.4c0,1.7,0.1,2.9,2.4,3.3C249.8,271.7,254.8,267.8,254.8,258.4z M163.4,255.2c-4.6,10.3-8.5,19.2-12.5,28
		c-1.3,2.7-0.5,3.5,2.3,3.5c6.8-0.1,13.5-0.1,20.3,0c2.7,0,3.7-0.6,2.4-3.4C171.9,274.4,168,265.5,163.4,255.2z"/>
	<path class="st0" d="M94.2,18.5c9.6,0,19.2,0.1,28.8-0.1c5.5-0.1,8.1,2,8,7.7c-0.3,13,2.6,25.4,7.8,37.3c2.7,6.1,4.6,12.4,5.2,19
		c1.5,17.4-7.4,32.1-24.4,39.5c-16.2,7-32.7,7.2-49.1,0.9c-23.4-9.1-32.3-30.5-22.9-55.1c4.5-11.6,9.1-23.2,9.2-35.8
		c0.1-15.7,2.4-13.3,14.5-13.4C79,18.4,86.6,18.5,94.2,18.5z"/>
	<path class="st0" d="M233.3,18.5c9.4,0,18.8,0,28.2,0c6.7,0,8.3,1.5,8.3,8c0,13,2.7,25.4,7.9,37.3c2.2,5,3.9,10.1,4.6,15.5
		c2.6,20.6-6.7,36.3-26.5,43.8c-14.5,5.5-29.4,5.8-44.1,0.7c-23.9-8.2-34.5-28.3-26.5-52.3c5.2-15.6,11.4-30.7,10.7-47.6
		c-0.2-4.2,3.3-5.4,7.2-5.4C213.3,18.5,223.3,18.5,233.3,18.5z"/>
	<path class="st0" d="M164.1,357.9c43.7,0,87.3,0.1,131-0.1c5.7,0,7.1,1.7,6.7,7c-0.4,5.6-0.2,11.2-0.1,16.8
		c0.1,5.3-2.4,7.6-7.7,7.5c-10.4-0.1-20.8,0-31.2,0c-75.7,0-151.4,0-227.1,0c-9.8,0-10.5-0.7-10.5-10.6c0-5,0.3-10-0.1-15
		c-0.4-4.5,1.1-5.7,5.6-5.7c27.2,0.2,54.5,0.1,81.7,0.1C129.6,357.9,146.9,357.9,164.1,357.9z"/>
	<path class="st0" d="M162.8,193.5c-39.3,0-78.5-0.1-117.8,0.1c-5.3,0-7.4-0.6-6-6.8c3.1-13,2.7-13.1,16.2-13.1
		c73.7,0,147.5,0.1,221.2-0.1c5,0,6.8,1.5,8.1,6.2c3.6,13.8,3.8,13.7-10.5,13.7C236.9,193.5,199.9,193.5,162.8,193.5z"/>
	<path class="st0" d="M99.8,150.9c0,1.4,0,2.8,0,4.2c0,6.8-2.7,8.7-9.4,7c-2.2-0.6-2.2-2-2.2-3.6c0-5.4,0.1-10.7-0.1-16.1
		c-0.1-3,1.2-3.6,3.9-3.6c7.7-0.2,7.7-0.3,7.7,7.4C99.8,147.7,99.8,149.3,99.8,150.9z"/>
	<path class="st0" d="M227.1,150c0-1.6,0.2-3.2,0-4.8c-0.8-5.1,0.7-6.9,6.3-6.7c4.7,0.2,5.9,1.6,5.5,5.9c-0.3,3.6-0.1,7.2-0.1,10.8
		c0,6.1-4.8,9.2-10.4,6.7c-1.5-0.7-1.3-1.8-1.3-2.9C227.1,156,227.1,153,227.1,150z"/>
	<path class="st0" d="M94,299.2c-2,3.3-4.9,5.1-8.7,5.5c-1.6,0.2-3.2,0.1-4.8,0.1c-11.4,0-11.4,0-11.4-11.6c0-13.2,0-13.2,16.3-11.4
		C93.9,282.7,98.5,291.9,94,299.2z"/>
	<path class="st0" d="M69.1,258.1c0-11.3,0-11.3,11.2-11.3c1.6,0,3.2,0,4.8,0.1c6.2,0.5,10.8,5.5,10.8,11.4
		c0,5.6-4.5,10.7-10.2,11.5c-1.6,0.2-3.2,0.1-4.8,0.1C69.1,270,69.1,270,69.1,258.1z"/>
	<path class="st0" d="M254.8,258.4c0,9.4-4.9,13.2-14.3,11.6c-2.3-0.4-2.4-1.6-2.4-3.3c0-3.8-0.4-7.7,0.1-11.4
		c0.4-3.3-3.1-9,4.9-8.6c8.4,0.4,11.4,2.4,11.7,9.3C254.8,256.8,254.8,257.6,254.8,258.4z"/>
	<path class="st0" d="M173.6,286.6c-6.8-0.1-13.6-0.1-20.3,0c-2.8,0-3.6-0.8-2.3-3.5c4-8.8,7.9-17.7,12.5-28
		c4.6,10.3,8.5,19.2,12.5,28C177.3,286.1,176.2,286.7,173.6,286.6z"/>
	<path class="st0" d="M95.8,258.3c0,5.6-4.5,10.7-10.2,11.5c-1.6,0.2-3.2,0.1-4.8,0.1c-11.8,0-11.8,0-11.8-11.8
		c0-11.3,0-11.3,11.2-11.3c1.6,0,3.2,0,4.8,0.1C91.2,247.4,95.8,252.4,95.8,258.3z"/>
	<path class="st0" d="M94,299.2c-2,3.3-4.9,5.1-8.7,5.5c-1.6,0.2-3.2,0.1-4.8,0.1c-11.4,0-11.4,0-11.4-11.6c0-13.2,0-13.2,16.3-11.4
		C93.9,282.7,98.5,291.9,94,299.2z"/>
	<path class="st0" d="M254.8,258.4c0,9.4-4.9,13.2-14.3,11.6c-2.3-0.4-2.4-1.6-2.4-3.3c0-3.8-0.4-7.7,0.1-11.4
		c0.4-3.3-3.1-9,4.9-8.6c8.4,0.4,11.4,2.4,11.7,9.3C254.8,256.8,254.8,257.6,254.8,258.4z"/>
	<path class="st0" d="M173.6,286.6c-6.8-0.1-13.6-0.1-20.3,0c-2.8,0-3.6-0.8-2.3-3.5c4-8.8,7.9-17.7,12.5-28
		c4.6,10.3,8.5,19.2,12.5,28C177.3,286.1,176.2,286.7,173.6,286.6z"/>
</g>
</svg>
