<?xml version="1.0" encoding="utf-8"?>
<!-- Generator: Adobe Illustrator 23.0.0, SVG Export Plug-In . SVG Version: 6.00 Build 0)  -->
<svg version="1.1" id="Layer_1" xmlns="http://www.w3.org/2000/svg" xmlns:xlink="http://www.w3.org/1999/xlink" x="0px" y="0px"
	 viewBox="0 0 403.7 407.5" style="enable-background:new 0 0 403.7 407.5;" xml:space="preserve">
<style type="text/css">
	.st0{fill:"currentColor";}
</style>
<g>
	<path class="st0" d="M128.5,266.5c-6.7,6.9-14.5,9-23.4,5.2c-4.1-1.8-6.9-5.3-9.6-8.7c-4-5-5.4-5-9.5-0.2c-1.1,1.2-2.1,2.6-3.2,3.8
		c-8.7,9.5-20.6,9.6-29.3,0.2c-1.3-1.4-2.5-2.9-3.7-4.4c-3.3-4-5-4-8.5-0.1c-1.7,1.9-3.3,4-5.2,5.8c-3.5,3.4-7.7,5.6-12.8,5.5
		c-4.7-0.1-8.4-3.4-8.5-8.1c-0.1-16.5-0.1-33.1,0-49.6c0-4.8,3.2-7.9,8-7.9c33.6,0,67.2-0.1,100.8,0.1c12.3,0.1,21.9,11.2,22,24.4
		c0.1,10.5,0.1,21,0,31.6c0,3.8,1.4,6.6,4.2,8.8c11.6,9.3,23.1,18.7,34.7,28c4.9,3.9,8,4,12.8,0.2c11.9-9.4,23.7-18.9,35.7-28.2
		c3-2.3,4.2-5,4.2-8.7c-0.1-10.4-0.1-20.8,0-31.2c0.1-12.9,6.6-21.5,18.1-24.6c2.3-0.6,4.6-0.6,6.9-0.6c41,0,82,0,123,0
		c2.2,0,4.4,0,6.3,1.4c2.1,1.6,3.9,3.2,1.7,6c-1,1.2-0.5,2.6-0.5,3.9c0,14.8,0,29.5,0,44.3c0,8.1-5.1,11.8-13,9.5
		c-4.1-1.2-7.3-3.6-10-6.7c-1.2-1.3-2.2-2.8-3.4-4.1c-3.2-3.7-4.9-3.7-8.2,0.1c-1.3,1.5-2.6,3.2-4,4.6c-8.7,9.3-20.9,9.1-29.3-0.4
		c-1.5-1.7-2.9-3.6-4.4-5.4c-2-2.4-4.3-2.2-6.3-0.1c-1.9,2-3.5,4.2-5.4,6.2c-8.4,8.8-20.1,8.7-28.5-0.2c-1.6-1.7-2.9-3.6-4.5-5.3
		c-2.7-3.1-4.7-3.1-7.4,0c-1.5,1.6-2.7,3.4-4.2,5c-1.4,1.5-2.8,3.5-4.6,4c-6.3,1.7-9.3,6.5-13,11.1c-6,7.3-14.4,12.1-21.6,18.1
		c-6.2,5.1-12.6,10-18.9,15c-9.3,7.3-20,7.7-29.4,0.5c-13-9.9-25.8-20.2-38.5-30.5C132.8,280.6,131.1,276.9,128.5,266.5z"/>
	<path class="st0" d="M169.2,112.9c0-11.4-0.1-21.7,0.1-32.1c0-2.6-0.5-3.8-3.3-4.3c-6.9-1.4-11.5-7.3-11.7-14.4
		c-0.1-3.1,0.1-6.3-0.1-9.4c-0.2-4.3-3-7-7.3-7.3c-2.6-0.1-5.2,0-7.8-0.1c-5.4-0.1-8.6-3.3-8.6-8.7c-0.1-4.8,0.1-9.6-0.1-14.3
		c-0.1-2.5,0.5-3.3,3.1-3.2c5,0.2,10.1,0.1,15.2,0.1c33.3,0,66.6,0,100-0.1c3.1,0,4.3,0.6,4,3.9c-0.3,4.6,0,9.3-0.1,13.9
		c-0.1,5.2-3.2,8.3-8.4,8.4c-2.5,0.1-4.9,0-7.4,0c-4.8,0.2-7.6,2.8-7.9,7.6c-0.2,2.7,0,5.5-0.1,8.2c-0.1,7.3-4.7,13.3-11.9,14.5
		c-3.2,0.5-3.2,3.2-5,4.6c-7,5-13.7,10.4-20.5,15.6C184.3,101.4,177.1,106.8,169.2,112.9z"/>
	<path class="st0" d="M322.3,354.3c0-14.1,11.5-25.6,25.5-25.4c13.8,0.1,25.3,11.5,25.3,25.3c0,14.2-11.2,25.5-25.4,25.6
		C333.5,379.8,322.3,368.6,322.3,354.3z"/>
	<path class="st0" d="M112.4,346.4c-14,0-25.4-11.5-25.4-25.5c0-13.9,11.6-25.3,25.6-25.3c13.6,0.1,25.2,12,25.2,25.9
		C137.8,335.3,126.4,346.4,112.4,346.4z"/>
	<path class="st0" d="M160.7,354.1c0-12.6,10.2-22.8,22.8-22.9c12.8-0.1,23.3,10.4,23.2,23.5c-0.1,12.4-10.6,22.8-23.1,22.8
		C170.9,377.3,160.7,366.9,160.7,354.1z"/>
	<path class="st0" d="M284.2,289.1c12.6,0,23.2,10.6,23.2,23.1c0,12.6-10.7,23.2-23.3,23.1c-12.5-0.1-22.8-10.4-23-22.9
		C261,299.9,271.6,289.2,284.2,289.1z"/>
	<path class="st0" d="M53.1,331.1c12.7,0.1,23.2,10.8,23,23.3c-0.2,12.6-11,23.2-23.5,22.9c-12.5-0.3-22.8-10.8-22.8-23.2
		C29.8,341.6,40.5,331,53.1,331.1z"/>
	<path class="st0" d="M213.9,225.6c0,9.3,0,18.3,0,27.3c0,3.2-1.6,5.7-4,7.7c-4.8,4-9.7,7.9-14.6,11.9c-2.4,2-4.8,2.2-7.3,0.1
		c-4.8-4-9.8-7.9-14.6-11.9c-1.6-1.3-3.3-2.6-0.5-4.7c13.3-10,26.5-20.1,39.8-30.1C212.8,225.8,213.1,225.8,213.9,225.6z"/>
	<path class="st0" d="M213.9,99.7c0,6.7,0,13.1,0,19.4c0,1.3-0.1,2.3-1.3,3.2c-14.3,10.9-28.5,21.8-43.5,33.3c0-7.9,0-15,0-22.2
		c0-1.1,0.8-1.6,1.6-2.2c14-10.5,27.9-20.9,41.9-31.4C212.8,99.8,213.2,99.8,213.9,99.7z"/>
	<path class="st0" d="M213.9,183.7c0,6.9,0,13.8,0,20.7c0,1.5-0.8,2.2-1.7,3c-13.7,10.3-27.5,20.5-41.2,30.8
		c-0.4,0.3-0.8,0.8-1.8,0.3c0-6.4,0-13,0-19.6c0-1.2,0.5-2,1.5-2.7c14.1-10.8,28.1-21.5,42.2-32.3
		C213,183.7,213.3,183.8,213.9,183.7z"/>
	<path class="st0" d="M213.9,140.9c0,7.5,0,14.2,0,20.8c0,1.3-0.6,2-1.5,2.7c-14.2,10.9-28.3,21.7-43.3,33.2c0-7.7,0-14.7,0-21.6
		c0-0.9,0.8-1.4,1.4-1.9C184.8,163.3,199,152.4,213.9,140.9z"/>
	<path class="st0" d="M68.1,287.5c4.2-0.1,7.8,3.3,8,7.7c0.2,4.2-3.5,8.3-7.7,8.5c-4,0.1-8.3-3.9-8.4-7.9
		C59.9,291.8,64,287.6,68.1,287.5z"/>
	<path class="st0" d="M230.4,321.1c0-4.6,3.5-8.3,7.8-8.2c4.1,0,8,4.1,7.9,8.3c-0.1,4.3-3.5,7.7-7.8,7.8
		C233.8,329.2,230.4,325.8,230.4,321.1z"/>
	<path class="st0" d="M44.3,298c0,4-4.1,8.1-8.2,8.1c-4.3,0-7.7-3.4-7.8-7.8c-0.1-4.3,3.5-8.3,7.8-8.4
		C40.1,289.8,44.3,293.9,44.3,298z"/>
	<path class="st0" d="M249.3,365.1c0,4.2-3.8,8.2-7.9,8.2c-4.3,0.1-7.9-3.7-7.9-8.1c0-4.5,3.7-8.1,8-8
		C245.8,357.3,249.3,360.9,249.3,365.1z"/>
	<path class="st0" d="M129,362.8c4.3-0.1,8,3.7,8,8.1c0,4.2-3.5,7.8-7.7,8c-4.2,0.2-8.2-3.5-8.3-7.8C121,367,124.9,362.9,129,362.8z
		"/>
	<path class="st0" d="M338.1,291.6c0.1,4.6-3,7.9-7.5,8c-4.3,0.1-8.3-3.7-8.3-7.8c-0.1-4.2,3.9-8.2,8.1-8.1
		C334.7,283.8,338,287.2,338.1,291.6z"/>
	<path class="st0" d="M374.7,305.2c0,4.2-3.6,7.8-7.8,7.9c-4.1,0.1-8.4-4-8.3-8c0-4,4.3-8,8.4-7.9
		C371.1,297.3,374.7,301,374.7,305.2z"/>
	<path class="st0" d="M280.3,371.7c0-4.5,3.5-8.2,7.9-8.1c4,0.1,7.8,3.9,7.8,7.9c0,4.1-4,8.2-8.1,8.1
		C283.8,379.6,280.4,376,280.3,371.7z"/>
	<path class="st0" d="M96.7,381.7c0.1,3.9-3.8,8-7.7,8.1c-4.1,0.2-8.3-3.7-8.4-7.8c-0.1-4.1,3.4-7.8,7.7-8
		C92.7,373.9,96.6,377.4,96.7,381.7z"/>
</g>
</svg>
