<?xml version="1.0" encoding="utf-8"?>
<!-- Generator: Adobe Illustrator 23.0.0, SVG Export Plug-In . SVG Version: 6.00 Build 0)  -->
<svg version="1.1" id="Layer_1" xmlns="http://www.w3.org/2000/svg" xmlns:xlink="http://www.w3.org/1999/xlink" x="0px" y="0px"
	 viewBox="0 0 398.9 407.5" style="enable-background:new 0 0 398.9 407.5;" xml:space="preserve">
<style type="text/css">
	.st0{fill:"currentColor";}
</style>
<g>
	<path class="st0" d="M154.2,41.5c0,21.8,0,43.2,0,64.6c0,5.6,2.3,9.5,6.6,11.1c6.7,2.5,13.4-2.1,13.8-9.5c0.2-4,0.1-8,0.1-12
		c0-22.7,0-45.5,0-68.2c0-7.8,3.9-11.6,11.6-11.6c9.1,0,18.2,0,27.4,0c6.5,0,10.7,4.2,10.7,10.7c0,26.5,0,53,0,79.5
		c0,5.7,2.3,9.5,6.5,11.1c6.9,2.6,13.7-2.3,13.9-10.2c0.1-8.8,0-17.5,0-26.3c0-13,0-26,0-39.3c10.3,3.6,19.8,8.4,28.6,14.4
		c31.5,21.6,50.5,51.3,57.3,88.9c1.2,6.8,1.8,13.7,1.7,20.7c0,1.7-0.4,2.5-2.2,2.3c-0.7-0.1-1.5,0-2.2,0c-85.7,0-171.4,0-257.1,0.1
		c-3.6,0-4.2-0.9-4.2-4.4c0.4-52.9,36.4-103.7,86.3-121.4C153.2,41.8,153.6,41.7,154.2,41.5z"/>
	<path class="st0" d="M36.5,354.4c4,0,8-0.1,12,0c1.7,0.1,2.6-0.6,3.4-2c3.1-5.6,6.3-11.2,9.6-16.7c0.8-1.3,0.7-2.3-0.1-3.6
		c-3.2-5.5-6.4-11.1-9.5-16.7c-0.8-1.5-1.9-1.9-3.5-1.9c-7.8,0.1-15.6,0-23.3,0.1c-2.8,0-5.1-0.8-6.4-3.3c-1.3-2.6-0.4-4.9,1.2-7.1
		c22.8-32,72.2-28,89.7,7.4c1.2,2.3,2.3,3.1,4.9,3.1c56.7-0.1,113.3-0.1,170,0c2.5,0,3.7-0.6,4.9-3c17.2-35.1,65.9-39.4,89.2-8.1
		c1.8,2.3,3.1,4.7,1.7,7.7c-1.4,2.9-4,3.4-7.1,3.4c-7.5-0.1-15.1,0-22.6-0.1c-1.8,0-2.8,0.5-3.7,2.1c-3,5.5-6.2,11-9.4,16.4
		c-0.9,1.5-0.8,2.5,0.1,3.9c3.2,5.3,6.3,10.6,9.2,16.1c1,2,2.3,2.4,4.3,2.3c7.5-0.1,15.1,0,22.6-0.1c2.8,0,5.1,0.6,6.4,3.2
		c1.5,2.7,0.5,5.1-1.2,7.4c-23,31.7-72,27.8-89.5-7.4c-1.2-2.4-2.4-3.2-5.1-3.2c-56.5,0.1-113.1,0.1-169.6,0c-2.7,0-3.9,0.8-5.1,3.2
		c-17.4,35-66,39.1-89.3,7.7c-1.8-2.4-3-4.8-1.5-7.7c1.4-2.7,3.9-3.3,6.8-3.2C29.2,354.5,32.8,354.4,36.5,354.4z"/>
	<path class="st0" d="M199.7,188c47.9,0,95.8,0,143.7,0c8.4,0,12.1,3.7,12.1,12.2c0,3.9,0,7.8,0,11.7c0,6.2-2.7,9.7-8.8,11.1
		c-22.3,5.1-44.6,10.2-66.9,15.3c-16.5,3.7-33,7.6-49.6,11c-23.3,4.8-46.6,3.8-69.7-1.5c-36.1-8.3-72.2-16.5-108.4-24.7
		c-6-1.4-8.9-4.9-8.9-11c0-4.3,0-8.5,0-12.8c0-7.2,4-11.2,11.3-11.2C102.9,188,151.3,188,199.7,188z"/>
</g>
</svg>
