<?xml version="1.0" encoding="utf-8"?>
<!-- Generator: Adobe Illustrator 23.0.0, SVG Export Plug-In . SVG Version: 6.00 Build 0)  -->
<svg version="1.1" id="Layer_1" xmlns="http://www.w3.org/2000/svg" xmlns:xlink="http://www.w3.org/1999/xlink" x="0px" y="0px"
	 viewBox="0 0 417.6 449.3" style="enable-background:new 0 0 417.6 449.3;" xml:space="preserve">
<style type="text/css">
	.st0{fill:"currentColor";}
</style>
<g>
	<path class="st0" d="M167.7,322.3c0-1.3,0.3-2.6-0.8-3.8c-14.4-44.3-28.8-88.5-42.9-132.8c-0.9-2.5-1.9-2.6-4.2-2.1
		c-17.1,4.3-34.3,8.4-51.5,12.5c-15.7,3.8-24.7,15-24.7,31.1c0,19.6-0.1,39.1,0,58.5c0.1,4.5-1.7,7.3-6.2,8.1v19.2
		c3.7,0.6,5.8,2.6,6.3,6.3c0,14.5,0,28.9-0.2,43.4c0,2.9,0.9,3.7,3.8,3.7c12.9-0.1,25.7-0.1,38.6,0c2.8,0,3.9-0.7,3.9-3.7
		c-0.2-14.8-0.2-29.5-0.2-44.3c0-22.3,0-44.5,0.1-66.9c0-1.3-0.1-2.6,0-4c0.4-3,2.4-4.8,5.2-5.3c2.9-0.5,5.1,0.9,6.4,3.6
		c0.9,1.8,0.8,3.7,0.8,5.7c0.1,22.5,0.1,45.1,0.1,67.6c0,14.5,0,28.9-0.1,43.4c-0.1,2.9,0.9,3.8,3.7,3.8c19.4-0.1,38.7-0.1,58.1,0
		c3,0,4-0.9,4-4C167.6,349.2,167.7,335.7,167.7,322.3z M112.2,210.5c-8.2,2.2-16.6,4.2-24.8,6.3c-3.4,0.9-6.8,1.8-9.8,2.6
		c-3.5-0.4-6-1.5-6.5-4.8c-0.6-3.2,0.3-6.2,3.7-7.1c11.6-3.2,23.3-6.2,35-9c3.3-0.8,6.1,1.2,6.8,4.8
		C117.2,206.9,115.6,209.5,112.2,210.5z"/>
	<path class="st0" d="M122.5,47.3c3.7,2.8,7,2,10.3-1c3.7-3.3,7.8-6.1,13-8.3c0.5,8.6,0.9,16.8,1.3,25c0.4,7.7,0.6,15.3,1.1,23
		c0.2,2.5-0.6,3.2-3.1,3.2c-10.6-0.1-21.2-0.2-31.9,0c-3.1,0.1-3.3-1.1-2.8-3.6c1.1-5.4,2.2-10.7,4.6-15.6c2-4.1,1.4-7.3-2.3-10
		C115.9,55.6,118.8,51.1,122.5,47.3z"/>
	<path class="st0" d="M304.3,226.9c-0.2-15.5-9.1-27-24.2-30.7c-17.2-4.2-34.4-8.1-51.5-12.5c-3.4-0.9-4.2,0.3-5,3.1
		c-7.5,23.3-15.1,46.4-22.7,69.7c-6.7,20.6-13.3,41.2-20,61.9c-0.2,0.7-0.7,1.3-0.7,2c0,14.5,0,28.8-0.1,43.3c0,3,1.8,2.7,3.8,2.7
		c11.6,0,23.3,0.1,34.8,0c4.5-0.1,7.5,1.5,8.2,6.1c7.1,0.1,14.2,0.2,21.3,0.2c0.1-18.9,0.2-37.9,0.4-56.9c0-2.5-0.9-3.5-3.3-3.4
		c-3.7,0.2-7.4,0.1-11.1,0.1c-5.3-3-6-7.3-1.4-11.2c20.2-17.4,40.6-34.8,61-52C304.2,240.6,304.4,240.8,304.3,226.9z M269.4,219.1
		c-11.2-2.6-22.3-5.6-33.4-8.5c-3.6-0.9-5.6-3.4-4.8-7.3c0.7-3.6,3.7-5.5,7.7-4.5c11.3,2.6,22.3,5.5,33.5,8.3c3,0.8,4.6,2.9,4.6,6.1
		C276.8,217.3,273.5,220.1,269.4,219.1z"/>
	<path class="st0" d="M237.7,112c0-1.8-0.1-3.6,0.2-5.3c0.7-4.4-1-5.3-5.3-5.3c-37.6,0.2-75.3,0.1-112.9,0.1
		c-10.2,0-10.2,0-9.6,10.4c-0.4,9-0.7,18.1,1.8,26.8c7.4,25.4,23.8,42,49.8,47.3c25.1,5.1,46.2-3.5,62.3-23.4
		C236,147.9,239.1,130.5,237.7,112z M202.5,148.6c-7.2,10.3-17.2,15.2-29,15.2c-12.4-0.7-21.7-5.8-28.3-15.3
		c-2.9-4.2-2.5-7.9,0.9-10c3.2-2.1,6.4-1,9.4,2.9c9.8,13.4,27.1,13.4,37,0c2.9-4.1,6.5-5.1,9.6-2.7C205,141,205.2,144.8,202.5,148.6
		z"/>
	<path class="st0" d="M395.5,382.4c0.1,5.6,0,11.2,0.2,16.7c0.1,2.1-0.5,2.8-2.6,2.8c-11.3-0.1-22.7-0.1-34,0
		c-2.1,0-2.9-0.6-2.8-2.7c0.2-5.6,0.2-11.2,0.3-16.7c-0.8-12.1-0.2-24.2-0.3-36.3c-0.2-8.6-1.3-9.9-10-9.9H308c-5.7,0-7.7,2-7.7,7.8
		c-0.1,11.4-0.1,22.7-0.1,34.1c0,1.4-0.2,2.8-0.3,4.4c0.1,5.6,0.1,11.2,0.2,16.7c0.1,1.7-0.2,2.7-2.3,2.7c-11.6-0.1-23.4-0.1-35,0
		c-2.2,0-2.2-1.2-2.2-2.8c0.1-5.6,0.1-11.2,0.2-16.7c-0.1-22.3-0.1-44.5-0.3-66.9c0-3.2,2-2.6,3.8-2.6H392c1.8,0,3.8-0.6,3.7,2.6
		C395.6,337.9,395.6,360.1,395.5,382.4z"/>
	<path class="st0" d="M401.4,298.6c-23.6-20.1-47.2-40.2-70.7-60.4c-2.6-2.2-3.8-0.9-5.6,0.6c-13.5,11.6-27.1,23.3-40.8,34.8
		c-10,8.6-20.1,17.3-31,26.6h149.1C401.9,299.4,401.7,298.9,401.4,298.6z M354.6,284.6c-2.5,2.8-6.1,2.9-9.4,0
		c-4.9-4.4-9.8-8.9-14.7-13.3c-2.1-2-2.9-4.4-1.7-7.2c1.1-2.4,3-3.5,5.3-3.9c2.3,0,3.9,1,5.3,2.4c4.7,4.3,9.5,8.4,14.1,12.8
		C356.8,278.3,357,281.8,354.6,284.6z"/>
	<path class="st0" d="M173.4,297.8c-4.9-15.1-9.8-30.2-14.7-45.3c-0.4-1.2-0.5-2.2-0.2-3.4c3.7-15.6,7.4-31.2,11-46.8
		c0.6-2.7,2.3-2.5,4.3-2.5c1.9,0,3.7-0.3,4.4,2.4c3.6,15.5,7.3,30.9,10.8,46.4c0.3,1.2,0.3,2.7,0,3.9c-4.8,15.1-9.7,30.2-14.6,45.2
		C174,297.8,173.7,297.8,173.4,297.8z"/>
	<path class="st0" d="M186.7,32.5c-8.5-1.5-16.9-1.6-25.4,0c-2.4,0.5-3.4,1.4-3.2,4.1c0.9,16.6,1.8,33.3,2.6,49.9
		c0.1,2.2,0.8,2.7,2.8,2.6c6.9-0.1,13.8-0.1,20.7,0c2.7,0.1,3-1.1,3.1-3.4c0.3-8.2,0.8-16.5,1.1-24.7c0.4-8.1,0.7-16.3,1.2-24.3
		C189.8,34.2,189.3,33,186.7,32.5z M176.9,50.7c-1,0.1-2.1,0-3,0c0,0,0,0,0,0.1c-1.5-0.1-3,0-4.4-0.3c-3.4-0.9-5.5-3.1-5-6.7
		c0.3-3.2,2.4-5.3,5.9-5.5c2.2-0.1,4.4-0.1,6.5,0c4,0.2,6.7,2.7,6.8,6.1C183.6,47.8,180.8,50.5,176.9,50.7z"/>
	<path class="st0" d="M201.6,63.7c0-7.5,0.1-15.1,0-22.6c0-3,1-3.2,3.3-1.8c18.3,10.7,29.2,26.6,32.6,47.5c0.3,1.9-0.4,2.3-2,2.3
		c-11.2,0-22.5-0.1-33.7,0c-2.4,0-2.1-1.4-2.1-2.9c0-7.5,0-15.1,0-22.6C200.3,63.7,200.9,63.7,201.6,63.7z"/>
	<path class="st0" d="M343.9,352.7c0.1,15-0.1,30.1,0.1,45.2c0,3.4-1,4.2-4.3,4.1c-7.9-0.2-15.9-0.1-23.9,0c-2,0-3.3-0.2-3.3-2.7
		c0.1-16.5,0.1-32.8,0.1-49.2c0-0.4,0.4-0.7,0.6-1c10-0.5,20.1-0.5,30.2,0C344.5,350.1,343.9,351.5,343.9,352.7z"/>
	<path class="st0" d="M150.7,228c-4.2-12.7-7.9-24.3-11.9-36.4c3.9,1.5,7.8,3.1,11.7,4.5c7.2,2.5,7.3,2.4,5.6,9.7
		C154.4,212.7,152.7,219.7,150.7,228z"/>
	<path class="st0" d="M209,191.3c-4,12.4-7.7,23.8-11.5,35.4c-1.9-1-1.4-2.8-1.8-4.2c-1.8-7.2-3.4-14.6-5.2-21.8
		c-0.4-1.7-0.6-2.8,1.4-3.2C197.5,196.3,202.8,194,209,191.3z"/>
</g>
</svg>
