<?xml version="1.0" encoding="utf-8"?>
<!-- Generator: Adobe Illustrator 23.0.0, SVG Export Plug-In . SVG Version: 6.00 Build 0)  -->
<svg version="1.1" id="Layer_1" xmlns="http://www.w3.org/2000/svg" xmlns:xlink="http://www.w3.org/1999/xlink" x="0px" y="0px"
	 viewBox="0 0 398.9 407.5" style="enable-background:new 0 0 398.9 407.5;" xml:space="preserve">
<style type="text/css">
	.st0{fill:"currentColor";}
</style>
<g>
	<path class="st0" d="M350.2,370.3c0-90.2,0-180.4,0-270.7c0-7-0.2-7.2-7.1-7.3c-1.4,0-2.8,0-4.3,0c-54.3,0-108.7,0-163,0
		c-3.3,0-6.6,0.4-9.9-1.2c-2.5-1.1-3.6,0.3-2.8,3c10,10.1,20,20.2,29.9,30.3c1.3,1.4,2.8,2.5,3.4,4.6c2.7,10.8,5.9,21.5,8.4,32.3
		c2.6,11.1-6.8,20.6-18.1,18.1c-10.5-2.4-20.9-5.3-31.3-8c-2.3-0.6-4.1-1.9-5.7-3.6c-12.3-12.3-24.7-24.5-36.9-36.9
		c-10.3-10.4-20.5-21-30.8-31.7c-2.1,2.5-1.4,4.4-1.4,6c0,87.9,0,175.8,0,263.8c0,9.7,2.1,11.8,12,11.8H339c1.3,0,2.5,0,3.7,0
		c3.5-0.1,6.1-1.6,7-5.2C350.5,373.8,350.2,372,350.2,370.3z M134.4,192.3c15.4,0.2,30.9,0.3,46.3,0c4.9-0.1,3.8,2.7,4,5.4
		c0.2,3.1-0.2,4.9-4.2,4.7c-7.6-0.4-15.2-0.1-22.9-0.1c-7.8,0-15.6-0.3-23.4,0.1c-4.7,0.2-3.9-2.6-4.1-5.4
		C129.9,193.8,130.6,192.3,134.4,192.3z M198,356c-25.9-0.2-51.9-0.1-77.8-0.1c-6.3,0-7.5-1.3-7.5-7.4c0-43.1,0-86.3-0.1-129.4
		c0-4.9,1.6-7,6.8-7c26.3,0.2,52.6,0.2,78.8,0c3.5,0,4.4,1,4.4,4.4c-0.1,22.7-0.1,45.5-0.1,68.2c0,22.2-0.1,44.4,0.1,66.6
		C202.7,354.9,201.8,356,198,356z M236.9,115.1c15.8,0.3,31.6,0.3,47.4,0c4.2-0.1,3.6,2.2,3.5,4.6c-0.1,2.3,1.4,5.4-3.4,5.2
		c-8-0.4-16-0.1-24-0.1c-7.8,0-15.6-0.3-23.4,0.1c-4.7,0.2-3.4-2.7-3.5-5.2C233.4,117.3,232.8,115,236.9,115.1z M305.9,347.1
		c0,7.3-1.4,8.9-8.6,8.7c-4.4-0.1-10.1,2-12.8-0.9c-2.7-2.8-0.8-8.5-0.8-12.8c-0.1-14.6,0-29.1-0.1-43.7c0-7.4-4-11.5-11.4-11.7
		c-7.6-0.2-15.3-0.1-22.9,0c-7.7,0.1-11.8,4.2-11.8,11.9c-0.1,17.4-0.1,34.8,0.1,52.2c0,3.8-0.7,5.5-4.9,5.1c-5.5-0.5-12.7,1.8-16-1
		c-3.7-3.2-1.2-10.7-1.2-16.3c-0.1-65-0.1-130-0.1-195c0-8.2,1.1-9.3,9.1-9.3h72.4c7.3,0,8.7,1.4,8.7,8.6c0,34.1,0,68.2,0,102.3
		C305.9,279.3,305.9,313.2,305.9,347.1z"/>
	<path class="st0" d="M357.1,10.7c20.1,6.4,32.7,19.9,37.7,40.2c2.1,8.6-0.8,16.8-4.5,24.6c-1.2,2.5-3.3,1.7-5.1,1.7
		c-15.5,0.1-30.9,0-46.4,0c-54.9,0-109.8,0-164.7,0c-9.3,0-9.3,0-6.2-9.1c8.1-24-8.7-52.5-33.3-56.4c-0.2-0.8,0.1-1.4,1-1.4
		c1.6-0.1,3.2-0.1,4.8-0.1c70.3,0,140.6,0,210.9,0C353.3,10.2,355.3,9.8,357.1,10.7z"/>
	<path class="st0" d="M57.6,238.8c0,44.9,0,89.9,0,134.8c0,7.2,0,7.2-6.9,7.2c-12.3,0-24.5-0.2-36.8,0.1c-4.8,0.1-6.6-1.3-6.5-6.3
		c0.3-9.8,0-9.8,10-9.8c4.1,0,8.2-0.1,12.3,0c4.5,0.1,7.5-1.8,7.4-6.4c-0.1-4.5-3.3-6.4-7.5-6.5c-6-0.1-12.1-0.1-18.1,0
		c-2.8,0.1-4-0.4-4-3.6c0-3.5,1.6-3.7,4.2-3.5c2.1,0.1,4.3,0,6.4-0.1c3.9-0.1,6-2.4,6.2-6c0.2-3.6-2-6-5.6-6.6
		c-1.9-0.3-3.9-0.1-5.8-0.3c-2.2-0.2-5.3,1.5-5.4-3.3c-0.1-5.1,3.2-3.5,5.6-3.6c5.3-0.1,10.7-0.1,16,0c4.4,0,7.8-1.4,8.2-6.4
		c0.3-3.9-2.8-6.4-7.9-6.5c-5.3-0.1-10.7,0.1-16-0.1c-2.3-0.1-5.8,1.8-5.8-3.4c-0.1-5,3.1-3.5,5.6-3.7c1.9-0.1,3.9,0.1,5.9-0.2
		c3.5-0.4,5.4-2.9,5.4-6.2c0-3.5-1.9-6-5.8-6.4c-1.6-0.2-3.2,0.2-4.8-0.1c-2.3-0.5-6.2,2.2-6.3-3.4c-0.1-6.1,4.1-3.5,6.6-3.7
		c5.3-0.3,10.6-0.2,16-0.1c4.3,0.1,6.8-2,7.2-6.1c0.4-3.8-2.7-6.6-7.2-6.7c-6.4-0.1-12.8-0.1-19.2,0c-2.6,0.1-3.4-0.7-3.3-3.3
		c0.1-2.3-0.1-4.2,3.2-3.9c2.5,0.2,5,0.1,7.4-0.1c3.9-0.2,6-2.7,6.1-6.1c0.1-3.5-2-6-5.7-6.6c-2.3-0.3-4.6-0.2-6.9-0.1
		c-2.5,0.1-4.2,0.1-4.2-3.4c0-3.4,1.5-3.6,4.2-3.5c5.9,0.1,11.7,0.1,17.6,0c5-0.1,8.1-2.7,8.1-6.6c0-3.9-2.9-6.3-8.1-6.3
		c-6-0.1-12.1-0.2-18.1,0c-2.9,0.1-3.5-1-3.5-3.7c0-2.8,0.7-3.8,3.6-3.6c2.3,0.2,4.6,0.2,6.9,0c4-0.3,6.4-2.8,6.3-6.5
		c0-3.7-2.3-6.3-6.5-6.2c-2,0-3.9-0.1-5.9,0c-2.7,0.2-4.5,0.1-4.6-3.7c0-4,2-3.7,4.6-3.6c6,0.1,12.1,0,18.1,0c4.3,0,6.9-2.2,7-6.3
		c0.1-4.2-2.6-6.4-6.8-6.5c-6,0-12.1,0-18.1,0c-2.3,0-4.8,0.9-4.8-3.4c0-4.4,2.4-3.8,5.1-3.8c2,0,3.9,0,5.9-0.1
		c3.9-0.2,5.9-2.8,6-6.2c0.1-3.6-2.1-6-5.9-6.4c-2.6-0.3-5.3-0.3-8-0.1c-3.1,0.3-2.9-1.5-2.9-3.6c-0.1-2.3,0.3-3.6,3.1-3.5
		c6,0.2,12.1,0.1,18.1,0c5.4-0.1,8.8-2.7,8.5-6.7c-0.4-5-3.8-6.3-8.2-6.2c-6,0.1-12.1-0.2-18.1,0.1c-3.3,0.2-3.3-1.5-3.3-3.9
		c-0.1-2.4,0.4-3.6,3.2-3.4c2.5,0.2,5,0.3,7.4-0.1c3.8-0.5,6.4-2.9,6.2-6.7c-0.2-3.8-2.5-6.1-6.7-6c-2,0.1-3.9-0.2-5.9,0
		c-3.1,0.3-4.4-0.4-4.3-3.9c0-3.4,1.4-3.6,4.1-3.5c6,0.2,12.1,0,18.1,0.1c4.4,0,7.4-1.9,7.5-6.4c0-4.5-3-6.4-7.4-6.4
		c-6.4,0-12.8-0.1-19.2,0.1c-2.3,0.1-3-0.6-3-3C7.7,94.3,5.9,96,20,96c10.5,0,21,0.2,31.4-0.1c5-0.2,6.3,1.7,6.3,6.5
		C57.5,147.9,57.6,193.3,57.6,238.8z"/>
	<path class="st0" d="M174.9,124.6c-0.6,0.7-1.1,1.4-1.7,2c-7,7-14.1,14-21,21.1c-1.9,2-3,1.4-4.7-0.3
		c-24.8-24.8-49.7-49.7-74.7-74.4C70.7,71,71.2,69.8,73,68c6.8-6.7,13.6-13.4,20.3-20.3c1.8-1.8,2.9-1.8,4.7,0
		c24.9,25,49.9,49.9,74.9,74.8C173.5,123.1,174.1,123.8,174.9,124.6z"/>
	<path class="st0" d="M349.8,375.5c0-56.6-0.1-113.3-0.1-169.9c0-35.3-0.1-70.7,0.1-106c0-4.8-1.4-5.9-6-5.9
		c-56.1,0.2-112.2,0.1-168.3,0.1c-3.4,0-7,0.8-10.2-1.9c-1.8-1.5-1.8,1-2.2,2.1c-16.5-16.3-33-32.7-49.6-49
		c-4.5-4.5-9-8.9-13.6-13.4c17.4-13.6,48.3-12,56,15.3c1.9,6.6,1.5,13.3-1.2,19.8c-5.5,13.3,1.3,23.4,15.8,23.5
		c58,0,116.1,0.1,174.1-0.1c4.8,0,6.1,1.2,6.1,6.1c-0.2,90.9-0.1,181.8-0.2,272.7C350.6,371.1,351.3,373.5,349.8,375.5z"/>
	<path class="st0" d="M66.8,23.5c5.5,0,17.7,8,19.1,12.3c0.4,1.1-0.3,1.6-0.9,2.2c-7.2,7.3-14.5,14.5-21.7,21.8
		c-1.5,1.5-2.6,1.4-3.9-0.1c-1.2-1.3-2.4-2.6-3.7-3.8c-13.9-12.3-6.2-23.4,4.8-30.9C62.3,23.6,64.7,23.3,66.8,23.5z"/>
	<path class="st0" d="M159.9,159.2c8.3-8.4,16.2-16.4,24.5-24.8c2.6,9.8,5.2,19.4,7.7,29.1c0.6,2.5-0.6,4-3.2,3.3
		C179.2,164.4,169.6,161.7,159.9,159.2z"/>
	<path class="st0" d="M287.8,236.8c0,8.4,0,8.4-8.5,8.4h-2.1c-10.2,0-10.2,0-10.2-10.4c0-9.2-0.8-8.2,8.3-8.2
		C287.8,226.6,287.8,226.6,287.8,236.8z"/>
	<path class="st0" d="M254,236.8c0,8.4,0,8.4-10.5,8.4c-10.1,0-10.1,0-10.1-9.9c0-8.7,0-8.7,9.7-8.7C254,226.6,254,226.6,254,236.8z
		"/>
	<path class="st0" d="M250.7,213.8c-4.6-0.1-9.2-0.1-13.9,0c-2.4,0-3.7-0.8-3.4-3.4c0.1-1.6,0-3.2,0-4.8c0-10.4,0-10.4,10.3-10.4
		c10.3,0,10.3,0,10.3,10.3c0,1.6-0.1,3.2,0,4.8C254.2,212.8,253.1,213.8,250.7,213.8z"/>
	<path class="st0" d="M287.8,174c0,8.4,0,8.4-10.7,8.4c-10.2,0-10.2,0-10.1-9.5c0.1-10.8-1.4-9.1,9.9-9.2
		C287.8,163.6,287.8,163.7,287.8,174z"/>
	<path class="st0" d="M254.1,168c-0.1,1.2,0,2.5,0,3.7c0,10.6,0,10.6-10.5,10.6c-10.2,0-10.2,0-10.2-10.4c0-1.4,0.1-2.8,0-4.2
		c-0.3-3,0.8-4.2,3.9-4.1c4.2,0.2,8.5,0.2,12.7,0C253.3,163.5,254.4,164.9,254.1,168z"/>
	<path class="st0" d="M284.5,213.7c-4.6,0-9.2-0.1-13.8,0c-2.8,0.1-3.8-1.2-3.7-3.9c0.1-1.4,0-2.8,0-4.2c0-10.5,0-10.5,10.6-10.5
		c10.2,0,10.2,0,10.2,10.4c0,1.6-0.1,3.2,0,4.8C288.1,212.9,286.8,213.8,284.5,213.7z"/>
	<path class="st0" d="M184.7,314.3c0,10.2,0,10.2-10.3,10.2c-10.3,0-10.3,0-10.3-10.2c0-1.2,0.1-2.5,0-3.7c-0.5-3.7,1.1-5,4.8-4.7
		c4.2,0.3,8.5,0.2,12.7,0c2.3-0.1,3.2,0.9,3.2,3.1C184.7,310.8,184.7,312.6,184.7,314.3z"/>
	<path class="st0" d="M151.3,313.5c0,11,0,11-10.8,11c-10.3,0-10.3,0-10.3-10.4c0-1.6,0-3.2,0-4.8c-0.1-2.5,1.1-3.4,3.6-3.4
		c4.6,0.1,9.2,0.2,13.8,0c2.9-0.1,3.8,1.3,3.7,3.9C151.2,311,151.3,312.3,151.3,313.5z"/>
	<path class="st0" d="M142,293.2c-11.8,0.1-11.8,0-11.8-11.5c0-6.9,0-6.9,6.8-6.9h3.7c10.5,0,10.6,0,10.5,10.2
		C151.2,294.8,152.1,293.1,142,293.2z"/>
	<path class="st0" d="M180,293.3c-4-0.3-8.1-0.2-12.2,0c-2.7,0.1-4.1-0.6-3.8-3.5c0.1-1.4,0-2.8,0-4.2c0-10.8,0-10.8,10.8-10.8
		c9.8,0,9.8,0,9.8,10.1c0,1.2-0.1,2.5,0,3.7C185.2,292.2,183.7,293.5,180,293.3z"/>
	<path class="st0" d="M184.7,253c0,8.7,0,8.7-9.7,8.7c-10.9,0-10.9,0-10.9-10.2c0-8.4,0-8.4,10.5-8.4
		C184.7,243.1,184.7,243.1,184.7,253z"/>
	<path class="st0" d="M146.9,261.7c-4.2-0.2-8.5-0.1-12.7,0c-2.9,0.1-4.3-0.9-4-4c0.1-1.4,0-2.8,0-4.2c0-10.5,0-10.5,10.7-10.5
		c10.4,0,10.4,0,10.4,10.2c0,1.4-0.1,2.8,0,4.2C151.6,260.9,150,261.9,146.9,261.7z"/>
</g>
</svg>
