<?xml version="1.0" encoding="utf-8"?>
<!-- Generator: Adobe Illustrator 23.0.0, SVG Export Plug-In . SVG Version: 6.00 Build 0)  -->
<svg version="1.1" id="Layer_1" xmlns="http://www.w3.org/2000/svg" xmlns:xlink="http://www.w3.org/1999/xlink" x="0px" y="0px"
	 viewBox="0 0 403.7 407.5" style="enable-background:new 0 0 403.7 407.5;" xml:space="preserve">
<style type="text/css">
	.st0{fill:"currentColor";}
</style>
<g>
	<path class="st0" d="M372.2,113.2c-40.7,19.5-81.3,39.1-122,58.6c-1.6,0.7-2.1,1.6-2,3.3c0.1,6.8,0.1,13.5,0,20.3
		c-0.1,2.1,0.7,3.2,2.5,4.2c6.2,3.4,12.5,6.7,18.4,10.6c8.3,5.5,16.9,9.5,27.2,7.7c0.1,0,0.2,0,0.4,0c1.8-0.3,2.3,0.6,2.2,2.3
		c-0.1,5.4-0.1,10.8,0,16.3c0,1.6-0.3,2.6-2.1,2.3c-4-0.7-5.8,0.7-5.2,4.9c0,0.3-0.2,0.7-0.2,1.1c-1.2,6-4.4,11-9.2,15.8
		c5.3,0,9.8,0.1,14.3,0c1.8,0,2.6,0.3,2.5,2.3c-0.1,5.3-0.1,10.6,0,15.9c0.1,2-0.7,2.4-2.5,2.4c-5.3-0.1-10.6-0.1-15.9,0
		c-2.1,0.1-2.6-0.7-2.6-2.7c0.1-4.9,0-9.8,0-15.2c-5.2,2.5-10.3,3.8-15.6,3.2c-3-0.4-3.8,0.4-3.8,3.5c0.1,34.7,0.1,69.4,0.1,104.1
		c0,5.2,0.1,10.3-1.7,15.3h116.5V113C372.6,113.1,372.4,113.1,372.2,113.2z M296.4,196.2c-2.8-0.1-5.5,0-8.3,0c-2.8,0-5.5-0.1-8.3,0
		c-1.6,0.1-2.1-0.5-2-2.1c0.1-5.5,0.1-11,0-16.6c0-1.7,0.8-1.9,2.2-1.9c5.5,0,11,0.1,16.6,0c1.7,0,2.3,0.5,2.2,2.2
		c-0.1,5.4-0.1,10.8,0,16.2C298.8,195.9,298,196.2,296.4,196.2z M322.7,178c0-1.6,0.3-2.4,2.2-2.4c5.5,0.1,11.1,0.1,16.6,0
		c1.8,0,2.2,0.7,2.2,2.3c-0.1,2.6,0,5.3,0,7.9s-0.1,5.3,0,7.9c0.1,2-0.7,2.4-2.5,2.4c-5.3-0.1-10.6-0.1-15.9,0
		c-1.7,0-2.6-0.2-2.6-2.3C322.8,188.6,322.8,183.2,322.7,178z M322.7,262.6c0-1.7,0.4-2.3,2.2-2.3c5.5,0.1,11.1,0.1,16.6,0
		c1.9,0,2.1,0.8,2.1,2.4c-0.1,2.7,0,5.3,0,8c0,2.2-0.2,4.4,0,6.5c0.3,2.9-0.4,4-3.6,3.8c-4.8-0.3-9.6-0.2-14.5,0
		c-2.1,0.1-3-0.4-2.9-2.8C322.9,272.9,322.8,267.7,322.7,262.6z M277.9,312.9c0-2.8,0.1-5.5,0-8.3c0-1.5,0.5-2.1,2-2.1
		c5.7,0.1,11.3,0.1,16.9,0c1.7,0,1.9,0.8,1.9,2.2c0,5.5-0.1,11.1,0,16.6c0,1.6-0.5,2.1-2,2c-2.9-0.1-5.8,0-9.2,0
		c-2.7-0.3-7.3,1.5-9.1-0.7C276.8,320.6,277.9,316.3,277.9,312.9z M298.2,364.9c-2,2.2-6.6,0.5-10,0.7c-2.5,0.1-5.1-0.1-7.6,0
		c-1.9,0.1-2.8-0.3-2.8-2.5c0.2-5.3,0.1-10.6,0-15.9c0-1.6,0.3-2.4,2.1-2.3c5.5,0.1,11.1,0.1,16.6,0c1.8,0,2.3,0.6,2.2,2.3
		c-0.1,2.6,0,5.3,0,8h-0.2C298.5,358.5,299.9,363,298.2,364.9z M343.6,363.5c0,1.9-0.8,2.2-2.4,2.1c-5.4-0.1-10.8-0.1-16.3,0
		c-1.7,0-2.4-0.5-2.3-2.2c0.1-2.6,0-5.3,0-8.5c0.3-2.9-1.5-7.5,0.7-9.4c1.9-1.7,6.4-0.5,9.8-0.5c2.8,0,5.5,0.1,8.3,0
		c1.5,0,2.1,0.4,2.1,2C343.6,352.5,343.5,358,343.6,363.5z M343.6,312.7c0.1,2.8-0.1,5.5,0.1,8.3c0.1,2-0.6,2.4-2.4,2.4
		c-5.4-0.1-10.8-0.1-16.2,0c-1.7,0-2.3-0.4-2.3-2.2c0.1-5.5,0.1-11.1,0-16.6c0-1.6,0.6-2.1,2.1-2.1c2.9,0.1,5.8,0,8.7,0v0.2
		c3.2,0,7.5-1.3,9.4,0.3C345.1,305,343.4,309.4,343.6,312.7z M343.6,228.4c0.1,2.5-0.1,5.1,0.1,7.6c0.1,1.9-0.3,2.8-2.5,2.7
		c-5.4-0.2-10.8-0.1-16.2,0c-1.7,0-2.3-0.5-2.2-2.3c0.1-5.4,0.1-10.8,0-16.2c0-2,0.7-2.5,2.5-2.4c2.6,0.1,5.3,0,7.9,0
		c0,0.1,0,0.2,0,0.3c3.3,0,7.8-1.3,9.7,0.3C345.1,220.4,343.4,225,343.6,228.4z"/>
	<path class="st0" d="M248.4,376.9c0,5.4-1.2,9.6-6.1,12.3h-50.6c0.1-28.3,0.2-56.6,0.1-84.9c0-3.4-2.3-4.9-5.5-4.9
		c-20.2,0-40.5,0-60.7,0c-3.7,0-5.6,1.9-5.6,5.5c0,28.1,0,56.1,0.1,84.2H70.2c-4.8-2.2-6.6-5.8-6.6-11.2c0.2-37.7,0.1-75.5,0-113.2
		c0-2.5,0.8-3.8,2.9-5c28.9-16.6,57.7-33.2,86.4-49.9c2.3-1.3,3.8-1.3,6.1,0c28.8,16.7,57.6,33.3,86.4,49.9c2.2,1.3,2.9,2.6,2.9,5.1
		C248.3,302.1,248.3,339.5,248.4,376.9z"/>
	<path class="st0" d="M182.8,384.3c0,1.7,0.1,3.4-1.2,4.8h-51.4c-1.2-1.4-1.2-3.1-1.2-4.8c0-23.4,0-46.8,0-70.1
		c0-4.9,0.8-5.8,5.7-5.8c14.1-0.1,28.2-0.1,42.3,0c4.8,0,5.7,0.9,5.7,5.8C182.8,337.6,182.8,360.9,182.8,384.3z"/>
	<path class="st0" d="M182.7,314.2c0.1,23.4,0,46.8,0,70.1c0,1.7,0.1,3.4-1.2,4.8c0-25.8,0.1-51.6,0.1-77.3c0-1.8-0.6-2.2-2.3-2.2
		c-15.7,0.1-31.3,0.1-47,0c-2.9,0-2.2,1.8-2.2,3.3c0,23.5,0,47,0,70.5c0,1.9,0,3.9,0,5.8c-1.2-1.4-1.2-3.1-1.2-4.8
		c0-23.4,0-46.8,0-70.1c0-4.9,0.8-5.8,5.7-5.8c14.1-0.1,28.2-0.1,42.3,0C181.9,308.4,182.7,309.3,182.7,314.2z"/>
	<path class="st0" d="M306.4,45.7c0-2.8-0.8-3.3-3.4-3.3c-47.9,0.1-95.7,0.1-143.6,0c-2.8,0-3.6,0.6-3.6,3.5
		c0.1,31.9,0.1,63.9,0,95.8c0,2.2,0.7,3.4,2.6,4.5c14,8,27.9,16.1,41.8,24.1c12.4,7.1,24.7,14.3,37.7,21.7c0-8,0.1-15.3-0.1-22.7
		c-0.1-2.5,0.8-3.6,2.9-4.6c20.9-9.9,41.7-20,62.6-30c2.1-1,3-2.1,3-4.6C306.3,102.1,306.3,73.9,306.4,45.7z M217.7,128.4
		c0,1.8-0.3,2.6-2.3,2.5c-10.8-0.1-21.7-0.1-32.5,0c-1.6,0-2-0.5-2-2.1c0.1-5.9,0.1-11.8,0-17.7c0-1.8,0.6-2.2,2.3-2.2
		c5.4,0.1,10.8,0,16.2,0c5.3,0,10.6,0.1,15.9,0c1.9,0,2.5,0.5,2.5,2.4C217.6,117.1,217.6,122.8,217.7,128.4z M215.2,88.3
		c-5.3-0.1-10.6,0-15.9,0c-5.4,0-10.8-0.1-16.3,0c-1.7,0-2.3-0.4-2.3-2.2c0.1-5.9,0.1-11.8,0-17.7c0-1.5,0.4-2.1,2-2.1
		c10.8,0.1,21.7,0.1,32.5,0c2,0,2.4,0.8,2.3,2.6c-0.1,5.7-0.1,11.3,0,17C217.7,87.8,217.1,88.3,215.2,88.3z M281.5,128.7
		c0,1.7-0.5,2.3-2.2,2.2c-5.5-0.1-11.1,0-16.6,0c-5.1,0-10.1-0.1-15.2,0c-2.1,0-3-0.3-2.9-2.7c0.2-5.5,0.2-11.1,0-16.6
		c0-2.1,0.6-2.6,2.6-2.6c10.6,0.1,21.2,0.1,31.8,0c1.8,0,2.5,0.4,2.5,2.4C281.3,117.2,281.4,122.9,281.5,128.7z M281.5,86
		c0,1.7-0.4,2.3-2.2,2.2c-10.8-0.1-21.7-0.1-32.5,0c-1.8,0-2.2-0.7-2.2-2.3c0.1-5.8,0.1-11.6,0-17.4c0-1.7,0.5-2.3,2.2-2.3
		c5.4,0.1,10.8,0,16.3,0c5.3,0,10.6,0.1,15.9,0c1.8,0,2.5,0.3,2.5,2.3C281.3,74.5,281.4,80.2,281.5,86z"/>
	<path class="st0" d="M281.4,236.3c0,16.2-14.1,24.1-26.2,17.3c-15.2-8.7-30.4-17.5-45.5-26.3c-17-9.8-34-19.5-50.8-29.4
		c-2.2-1.3-3.7-1.2-5.8,0c-31.2,18.1-62.6,36.1-93.8,54.3c-5.1,2.9-10.2,5-16.1,3.4c-7.2-2-11.6-6.9-12.6-14.2
		c-1-7.5,2-13.4,8.6-17.3c15.6-9.1,31.2-18.1,46.8-27.1c22.5-13,45-25.9,67.4-38.9c1.9-1.1,3.2-1.2,5.2-0.1
		c37.7,21.9,75.4,43.7,113.2,65.4C277.9,227,281.3,232,281.4,236.3z"/>
	<path class="st0" d="M73.1,192.7c0-8.7-0.1-16.7,0.1-24.7c0-2.3-0.5-3.1-2.9-3c-7.6,0.1-7.6,0-7.5-7.6c0-3-1.3-6.9,0.6-8.6
		c1.7-1.5,5.5-0.5,8.4-0.5c13.6,0,27.2,0.1,40.8-0.1c2.6,0,3.3,0.7,3.1,3.2c-0.2,3.7-0.2,7.5,0,11.2c0.1,1.9-0.6,2.6-2.5,2.4
		c-0.1,0-0.2,0-0.4,0c-2.5,0.2-5.6-1.1-7.3,0.6c-1.5,1.5-0.4,4.6-0.4,7c0,1.4-0.6,2.1-1.8,2.8C93.4,180.9,83.5,186.6,73.1,192.7z"/>
	<path class="st0" d="M230.8,32.1c-14.7,0-29.4-0.1-44.1,0.1c-2.6,0-3.4-0.7-3.1-3.2c0.4-3.3-1.4-7.7,0.7-9.6
		c1.8-1.6,6.2-0.5,9.4-0.5c27.2,0,54.5,0,81.7-0.1c2.7,0,3.6,0.7,3.3,3.4c-0.3,3.2,1,7.5-0.7,9.4c-1.7,2-6.1,0.6-9.3,0.6
		C256.1,32.1,243.4,32.1,230.8,32.1z"/>
</g>
</svg>
