<?xml version="1.0" encoding="utf-8"?>
<!-- Generator: Adobe Illustrator 23.0.0, SVG Export Plug-In . SVG Version: 6.00 Build 0)  -->
<svg version="1.1" id="Layer_1" xmlns="http://www.w3.org/2000/svg" xmlns:xlink="http://www.w3.org/1999/xlink" x="0px" y="0px"
	 viewBox="0 0 381.1 358" style="enable-background:new 0 0 381.1 358;" xml:space="preserve">
<style type="text/css">
	.st0{fill:"currentColor";}
</style>
<g>
	<path class="st0" d="M353.2,176.6c0,6.9-0.1,13.8,0.1,20.6c0,2.1-0.6,3.1-2.6,3.9c-7.9,2.9-15.7,6.1-23.5,9
		c-1.9,0.7-2.9,1.6-3.4,3.6c-3.4,13.6-8.7,26.4-15.9,38.5c-1.1,1.8-1,3.2-0.2,5c3.5,7.8,6.9,15.6,10.5,23.3c0.8,1.7,0.6,2.7-0.8,4
		c-10,9.9-20,19.9-29.9,29.9c-1.3,1.3-2.3,1.5-4,0.7c-7.7-3.6-15.6-6.9-23.3-10.5c-1.8-0.8-3.2-0.8-5,0.3
		c-11.9,7.1-24.6,12.5-38.1,15.8c-2.2,0.6-3.3,1.7-4.1,3.8c-2.8,7.8-5.9,15.5-8.8,23.2c-0.7,1.8-1.4,2.6-3.5,2.6
		c-14.1-0.1-28.2-0.1-42.3,0c-1.9,0-2.7-0.7-3.3-2.4c-3-8-6.2-15.9-9.1-23.9c-0.7-1.9-1.8-2.9-3.7-3.3c-13.5-3.2-26.2-8.6-38.1-15.7
		c-1.9-1.1-3.4-1.2-5.3-0.3c-7.6,3.5-15.4,6.8-23,10.3c-1.7,0.8-2.8,0.8-4.3-0.7c-9.8-10-19.7-19.9-29.7-29.7
		c-1.4-1.4-1.6-2.5-0.8-4.3c3.5-7.6,6.8-15.3,10.3-23c0.9-1.9,1-3.4-0.2-5.3c-7.1-11.9-12.5-24.6-15.8-38.1
		c-0.5-2.1-1.5-3.2-3.6-3.9c-7.9-2.9-15.7-6-23.6-8.9c-1.9-0.7-2.5-1.6-2.5-3.6c0.1-14,0.1-28,0-42c0-2,0.6-2.9,2.5-3.6
		c7.5-2.8,15-5.9,22.5-8.6c2.8-1,4.2-2.4,4.8-5.4c1.4-6.4,3.8-12.6,6.2-18.8c0.9-2.3,1.7-2.2,3.5-1c7.9,5,15.9,10,24,14.7
		c2,1.2,2.1,2.2,1.4,4.2c-16.2,45.3-3.7,94.3,32.5,126.3c19.1,16.8,41.4,26.1,66.8,28.4c56.4,4.9,107.3-32.4,121.3-85.2
		c6.2-23.3,5.2-46.2-2.7-68.9c-0.8-2.4-0.8-3.6,1.6-5c7.4-4.3,14.6-8.9,21.9-13.3c4.1-2.5,4.1-2.5,5.9,1.8
		c2.3,5.7,4.4,11.4,5.7,17.4c0.6,2.4,1.8,3.8,4.2,4.7c7.8,2.8,15.5,5.9,23.2,8.8c1.7,0.6,2.3,1.5,2.3,3.4
		C353.2,162.4,353.2,169.5,353.2,176.6z"/>
	<path class="st0" d="M179.1,232.8c-19.4,0-38.8,0-58.2,0c-6.8,0-9.5-3.4-8-9.8c7.2-30,35.2-51.6,66.8-51.5
		c31.3,0,59.2,21.7,66.4,51.6c1.5,6.4-1.2,9.8-8,9.8c-11.1,0-22.2,0-33.3,0C196.2,232.8,187.7,232.8,179.1,232.8z"/>
	<path class="st0" d="M179.4,164.1c-19.2,0-34.7-15.5-34.7-34.7c0-19.3,15.6-34.8,35-34.8c19.1,0.1,34.5,15.7,34.5,34.9
		C214.2,148.7,198.6,164.1,179.4,164.1z"/>
	<path class="st0" d="M105.5,48.7c-0.8,7.8-1.4,15.1-2.4,22.4c-0.3,2.4,0.3,3.6,2.3,4.6c6.3,3.5,12.5,7.1,18.8,10.7
		c1.1,0.6,2.6,1.1,2.4,2.8c-0.2,1.8-1.7,1.7-3,2c-6.8,1.4-13.6,2.9-20.5,4.2c-2.9,0.5-4.3,1.8-4.8,4.7c-1.3,7-2.9,13.9-4.3,20.8
		c-0.2,1.2-0.3,2.5-1.9,2.7c-1.5,0.2-2-1-2.6-2.1c-3.6-6.4-7.3-12.7-10.9-19.1c-1.1-1.9-2.2-2.6-4.6-2.3c-7,1-14.1,1.7-21.2,2.4
		c-1.3,0.1-3,0.8-3.9-0.9c-0.9-1.8,0.6-2.6,1.5-3.6c4.7-5.3,9.5-10.6,14.4-15.8c1.6-1.7,1.8-3,0.9-5.1c-3.1-6.6-6-13.3-9-20
		c-0.5-1.2-1.4-2.4,0-3.6c1.1-1,2.3-0.2,3.3,0.3c6.7,3,13.4,5.9,20,9c2,1,3.4,0.8,5.1-0.8c5.2-5,10.7-9.8,16-14.6
		c0.9-0.8,1.7-2.1,3.4-1.3C106,46.7,105.5,48,105.5,48.7z"/>
	<path class="st0" d="M154.5,75.1c2-7.2,3.8-14.4,5.9-21.5c0.8-2.7,0.4-4.4-2-6.1c-5.6-4.2-10.9-8.7-16.4-13.1
		c-1-0.8-2.4-1.5-1.8-3.2c0.6-1.6,2.1-1.4,3.4-1.5c7-0.3,14-0.8,20.9-0.9c2.7,0,4.1-0.8,5-3.5c2.3-6.7,5-13.2,7.5-19.8
		c0.5-1.2,0.6-2.8,2.3-2.8c2-0.1,2.1,1.7,2.6,2.9c2.6,6.7,5.2,13.4,7.6,20.2c0.8,2.1,1.9,2.9,4.2,3c7.1,0.1,14.2,0.5,21.3,0.9
		c1.4,0.1,3.1-0.2,3.6,1.6c0.5,1.6-1,2.3-2,3.1c-5.3,4.3-10.6,8.8-16.1,12.9c-2.5,1.8-3,3.5-2.1,6.4c2,6.7,3.7,13.4,5.5,20.1
		c0.3,1.2,1.1,2.5-0.3,3.6c-1.5,1.1-2.5-0.1-3.5-0.8c-5.4-3.5-10.9-6.7-16-10.5c-3.4-2.5-5.9-2.7-9.4-0.1c-5.3,4-11,7.3-16.5,10.9
		c-0.9,0.6-1.7,1.5-2.9,0.6C154.5,76.9,154,76.1,154.5,75.1z"/>
	<path class="st0" d="M307.3,102.5c-7.8-0.8-15.1-1.4-22.4-2.4c-2.6-0.4-3.7,0.5-4.8,2.5c-3.4,6.1-6.9,12.1-10.4,18.2
		c-0.7,1.2-1,2.9-3,2.7c-2.1-0.2-1.8-2-2.1-3.3c-1.4-6.7-2.9-13.4-4.1-20.1c-0.5-2.9-1.9-4.2-4.8-4.8c-6.9-1.3-13.7-2.8-20.5-4.2
		c-1.3-0.3-2.8-0.2-3-2c-0.2-1.7,1.3-2.1,2.4-2.8c6-3.5,12-7,18.2-10.4c2.3-1.3,3.3-2.5,2.8-5.4c-1.1-6.8-1.6-13.6-2.3-20.5
		c-0.1-1.4-1-3.3,1-4.2c1.8-0.8,2.6,0.8,3.6,1.7c5.1,4.6,10.3,9.1,15.3,13.9c1.9,1.9,3.5,2.3,6,1.1c6.4-3.1,12.9-5.9,19.3-8.8
		c1.2-0.5,2.4-1.5,3.6-0.2c1.2,1.2,0.3,2.4-0.2,3.6c-3,6.6-5.8,13.2-8.9,19.7c-1.1,2.2-0.7,3.7,1,5.4c5,5.3,9.8,10.7,14.6,16
		c0.8,0.9,1.8,1.7,1.2,3.1C309.3,102.9,308,102.5,307.3,102.5z"/>
</g>
</svg>
