<?xml version="1.0" encoding="utf-8"?>
<!-- Generator: Adobe Illustrator 23.0.0, SVG Export Plug-In . SVG Version: 6.00 Build 0)  -->
<svg version="1.1" id="Layer_1" xmlns="http://www.w3.org/2000/svg" xmlns:xlink="http://www.w3.org/1999/xlink" x="0px" y="0px"
	 viewBox="0 0 366.7 400" style="enable-background:new 0 0 366.7 400;" xml:space="preserve">
<style type="text/css">
	.st0{fill:"currentColor";}
</style>
<g>
	<path class="st0" d="M206.8,23.1c0-3-0.8-3.7-3.8-3.7c-29,0.1-58.1,0.1-87.1,0c-3.5,0-4.6,0.6-4.6,4.5
		c0.1,50.6,0.1,101.2,0.1,151.8v144.6c0,3.2,0.1,6.4,0,9.6c-0.1,2.4,0.7,2.9,2.9,2.8c5.6-0.1,11.2-0.2,16.8,0c3.1,0.1,4-0.7,4-3.9
		c-0.2-15.7-0.1-31.4-0.1-47.1c0-6.7,1.3-8,7.8-8c6.9,0,13.9-0.1,20.8,0.1c2.6,0.1,3.1-0.8,3-3.2c-0.1-10.4,0-20.8-0.1-31.2
		c0-3.3,1.2-5.4,4.1-7c11-6.2,21.8-12.6,32.8-18.8c2.3-1.3,3.3-2.7,3.3-5.6C206.8,146.4,206.7,84.8,206.8,23.1z M137,50.7h0.8
		c7.4,0,7.3,0,7.2,7.3c0,2.2-0.5,3.1-2.9,2.9c-3.3-0.2-6.7-0.2-10,0c-2.6,0.2-3.1-0.8-3.1-3.2C129.1,50.7,129,50.7,137,50.7z
		 M133.1,88.8c1.7,0.2,3.4,0,5.2,0c6.9,0,6.7,0,6.8,6.9c0,2.6-0.9,3.2-3.2,3c-1.7-0.2-3.4,0-5.2,0h-2c-5.6,0-5.4,0-5.6-5.7
		C128.9,89.8,129.6,88.3,133.1,88.8z M141.3,212.6c-2-0.2-4,0.1-6-0.1c-2-0.2-5,1.2-5.8-0.9c-0.9-2.4-0.3-5.5-0.3-8.3
		c0-1.1,1.1-1,1.8-1c2,0,4,0,6,0h1.6c6.4,0,6.2,0,6.4,6.5C145.1,211.9,144.3,213,141.3,212.6z M134.2,164.6c1.3,0.2,2.7,0,4,0
		c6.9,0,6.7,0,6.8,6.9c0,2.6-0.8,3.2-3.2,3c-1.7-0.2-3.4,0-5.2,0c-0.9,0-1.9-0.1-2.8,0c-4.2,0.8-4.8-1.1-4.9-4.9
		C128.9,165.4,130.2,164,134.2,164.6z M137,136.8h-0.8c-7.6,0-8.3-0.9-7.1-8.6c0.2-1.5,0.8-1.7,2-1.7c4,0,7.9,0,11.9,0
		c1.2,0,2.1,0.3,1.9,1.7c0,0.1,0,0.3,0,0.4C145.6,136.8,145.6,136.8,137,136.8z M169.7,52.1c0.3-1.3,0.9-1.4,1.9-1.4c2,0,4,0,6,0
		c0.9,0,1.9,0.1,2.8,0c4.1-0.7,5.6,0.8,5.2,5c-0.4,5.1-0.1,5.2-5.4,5.2h-3.6C169.7,60.9,168.2,58.9,169.7,52.1z M177.5,126.6h2.4
		c5.7,0,5.4,0,5.8,5.5c0.2,3.8-0.8,5.2-4.7,4.8c-2.7-0.3-5.6-0.2-8.3,0c-2.3,0.2-2.9-0.7-2.9-2.9
		C169.6,126.6,169.5,126.6,177.5,126.6z M169.7,94c0.4-5.2,0.1-5.2,5.3-5.2c2.4,0,4.8,0.2,7.1-0.1c2.8-0.3,3.6,0.7,3.5,3.5
		c-0.1,6.3,0,6.3-8.1,6.3c-1.1,0-2.2-0.2-3.2,0C170.4,99.4,169.4,97.8,169.7,94z M174.8,164.6c2.5,0.3,5,0.2,7.6,0
		c2.3-0.1,3.3,0.4,3.3,3c0,6.9,0.1,6.9-8,6.9c-0.9,0-1.9-0.1-2.8,0c-4,0.7-5.3-0.7-5.3-4.9C169.6,165.5,170.7,164.1,174.8,164.6z
		 M185.6,207.4c-0.5,6,0.7,5.1-5.4,5.2c-1.1,0-2.1,0-3.2,0c-7.4,0-7.2,0-7.3-7.2c0-2.6,0.8-3.2,3.2-3c1.6,0.2,3.2,0,4.8,0
		c0.9,0,1.9,0.1,2.8,0C184.3,201.8,186,203,185.6,207.4z"/>
	<path class="st0" d="M101.6,215.5c0,37.7,0,75.4,0.1,113.1c0,3.3-0.7,4.2-4.1,4.2c-20.9-0.2-41.8-0.1-62.7,0
		c-2.7,0-3.5-0.6-3.5-3.4c0.1-67.9,0.1-135.8,0-203.7c0-2.6,0.9-3.6,3.2-4.4c21.2-7.3,42.3-14.6,63.4-22c3-1.1,3.7-0.8,3.7,2.6
		C101.6,139.6,101.6,177.6,101.6,215.5z"/>
	<path class="st0" d="M281.4,195c-6.3-3.6-12.4-6.9-18.2-10.6c-3.4-2.1-6.2-1.9-9.5,0.1c-12,7.1-24.1,14-36.2,21
		c-0.8-1.2-0.5-2.4-0.5-3.5c0-43.1,0-86.3-0.1-129.4c0-3.4,1-4.1,4.2-4c19.2,0.2,38.3,0.1,57.5,0c2.3,0,3.2,0.4,3.2,3
		c-0.1,40.7-0.1,81.5-0.1,122.2C281.6,194.1,281.5,194.3,281.4,195z"/>
	<path class="st0" d="M340,246.5c0,29.2,0,57.8,0,86.5c0,1.3-0.3,2.2-1.5,2.9c-24.7,14.2-49.4,28.4-74.2,42.6
		c-0.1,0.1-0.3,0-0.4,0.1c-1-0.6-0.5-1.6-0.5-2.5c0-27.4,0-54.9-0.1-82.3c0-2.3,0.7-3.6,2.6-4.7c23.9-13.7,47.8-27.5,71.8-41.3
		C338.3,247.4,338.8,247.1,340,246.5z"/>
	<path class="st0" d="M251.7,289.6c-6.9-3.9-13.8-7.9-21.3-12.3c0,10.3,0.1,20,0,29.7c0,5.8-3.6,7.9-8.7,5.1
		c-6.1-3.3-12-6.7-18.1-10c-3.5-1.9-5.2-4.6-5.2-8.6c0.1-10.5,0.1-21,0-31.6c0-1.3,0.6-2.9-1.2-3.9c-6.7-3.8-13.3-7.6-20.4-11.8v4.5
		c0,26.6,0.1,53.3-0.1,79.9c0,3,0.7,4.7,3.5,6.2c23.3,13.3,46.5,26.7,69.7,40.1c1,0.6,1.9,1.6,3.2,1.3c0.1-0.2,0.3-0.5,0.3-0.7
		c0-28.4,0-56.7,0.1-85.1C253.5,291.1,253,290.3,251.7,289.6z M215.6,337.6c-0.8,2.3-2.4,3.4-5,3.4c-1-0.1-2.1-0.5-3.2-1.1
		c-5.8-3.4-11.7-6.8-17.5-10.2c-3.6-2.1-4.6-4.8-2.8-7.4c2-3,4.7-2.9,7.6-1.2c6.1,3.5,12.2,7,18.2,10.6
		C215.3,333,216.6,334.9,215.6,337.6z"/>
	<path class="st0" d="M280.8,206.3c-8.6,5-16.6,9.6-24.6,14.3c-16.1,9.3-32.2,18.5-48.2,27.9c-2.9,1.7-5,1.7-7.8-0.1
		c-5.8-3.7-11.9-6.9-17.8-10.4c0.5-1.5,1.8-1.7,2.8-2.3c23.3-13.5,46.7-26.9,69.9-40.5c2.6-1.5,4.4-1.4,6.8,0.1
		C267.9,199,274.1,202.4,280.8,206.3z"/>
	<path class="st0" d="M236.2,269c4.8-2.8,9.2-5.4,13.7-8c20-11.5,40-23,59.9-34.7c2.3-1.3,3.8-1.3,6,0c6.1,3.7,12.4,7.2,18.5,10.8
		c-0.2,1.6-1.6,1.8-2.5,2.3c-23.5,13.6-47.1,27.2-70.6,40.8c-1.5,0.9-2.7,1.7-4.7,0.6C250,276.9,243.3,273.1,236.2,269z"/>
	<path class="st0" d="M214.2,256.4c17.4-10,34.3-19.9,51.3-29.7c7.7-4.4,15.4-8.8,23.1-13.3c1.5-0.9,2.7-1.1,4.2-0.1
		c3,1.9,6.2,3.6,9.3,5.4c-0.5,1.5-2,1.7-3,2.4c-23.3,13.5-46.6,26.9-69.8,40.4c-2.3,1.3-4.1,1.7-6.4,0.1
		C220.4,259.7,217.5,258.3,214.2,256.4z"/>
	<path class="st0" d="M166.6,308.4c0,7.2,0,14.4,0,21.6c0,1.9-0.2,2.9-2.5,2.8c-5.6-0.2-11.2-0.1-16.8,0c-1.9,0-2.5-0.6-2.4-2.5
		c0.1-14.6,0.1-29.3,0-43.9c0-2,0.7-2.4,2.5-2.4c5.5,0.1,10.9,0.1,16.4,0c2.3-0.1,2.9,0.7,2.8,2.9
		C166.6,294,166.6,301.2,166.6,308.4z"/>
	<path class="st0" d="M220.2,299.9c-3.8-2.1-7.1-3.9-10.5-5.7c-1.3-0.7-1.4-1.7-1.4-3c0-8.6,0-17.2,0-26.2c4.1,1.5,7.3,4,10.9,5.8
		c0.8,0.4,1.1,1.1,1.1,2C220.2,281.6,220.2,290.4,220.2,299.9z"/>
</g>
</svg>
