<?xml version="1.0" encoding="utf-8"?>
<!-- Generator: Adobe Illustrator 23.0.0, SVG Export Plug-In . SVG Version: 6.00 Build 0)  -->
<svg version="1.1" id="Layer_1" xmlns="http://www.w3.org/2000/svg" xmlns:xlink="http://www.w3.org/1999/xlink" x="0px" y="0px"
	 viewBox="0 0 366.7 423.9" style="enable-background:new 0 0 366.7 423.9;" xml:space="preserve">
<style type="text/css">
	.st0{fill:"currentColor";}
</style>
<g>
	<path class="st0" d="M162,208.7c0.1,2-0.3,2.9-2.6,2.8c-6.4-0.2-12.7-0.2-19.1,0c-2.1,0.1-2.4-0.7-2.4-2.6c0.1-6.4,0.1-12.7,0-19.1
		c-0.1-2.1,0.7-2.4,2.6-2.4c6.4,0.1,12.7,0.1,19.1,0c2.1-0.1,2.5,0.7,2.4,2.6c-0.1,3.2,0,6.5,0,9.7C162,202.7,161.9,205.7,162,208.7
		z"/>
	<path class="st0" d="M161.4,248.1c-2.3-2.5-7.7-0.6-11.8-0.8c-3.7-0.1-8.7-1.4-10.8,0.5c-2.5,2.2-0.4,7.2-0.6,11
		c0,4-1.6,9.3,0.4,11.5c2.3,2.6,7.7,0.6,11.8,0.8c3.7,0.1,8.7,1.4,10.8-0.5c2.4-2.1,0.6-7.2,0.7-11
		C162.1,255.6,163.4,250.3,161.4,248.1z M161.4,248.1c-2.3-2.5-7.7-0.6-11.8-0.8c-3.7-0.1-8.7-1.4-10.8,0.5c-2.5,2.2-0.4,7.2-0.6,11
		c0,4-1.6,9.3,0.4,11.5c2.3,2.6,7.7,0.6,11.8,0.8c3.7,0.1,8.7,1.4,10.8-0.5c2.4-2.1,0.6-7.2,0.7-11
		C162.1,255.6,163.4,250.3,161.4,248.1z M162,318.6c0.1-3.7,1.3-8.8-0.6-10.8c-2.2-2.3-7.3-0.6-11.1-0.7c-4-0.1-9.4-1.4-11.5,0.6
		c-2.5,2.3-0.6,7.7-0.7,11.8c-0.1,3.7-1.3,8.7,0.6,10.8c2.2,2.4,7.3,0.4,11.1,0.5c4,0,9.4,1.6,11.5-0.4
		C163.7,328.1,161.9,322.7,162,318.6z M161.4,248.1c-2.3-2.5-7.7-0.6-11.8-0.8c-3.7-0.1-8.7-1.4-10.8,0.5c-2.5,2.2-0.4,7.2-0.6,11
		c0,4-1.6,9.3,0.4,11.5c2.3,2.6,7.7,0.6,11.8,0.8c3.7,0.1,8.7,1.4,10.8-0.5c2.4-2.1,0.6-7.2,0.7-11
		C162.1,255.6,163.4,250.3,161.4,248.1z M161.4,248.1c-2.3-2.5-7.7-0.6-11.8-0.8c-3.7-0.1-8.7-1.4-10.8,0.5c-2.5,2.2-0.4,7.2-0.6,11
		c0,4-1.6,9.3,0.4,11.5c2.3,2.6,7.7,0.6,11.8,0.8c3.7,0.1,8.7,1.4,10.8-0.5c2.4-2.1,0.6-7.2,0.7-11
		C162.1,255.6,163.4,250.3,161.4,248.1z M162,318.6c0.1-3.7,1.3-8.8-0.6-10.8c-2.2-2.3-7.3-0.6-11.1-0.7c-4-0.1-9.4-1.4-11.5,0.6
		c-2.5,2.3-0.6,7.7-0.7,11.8c-0.1,3.7-1.3,8.7,0.6,10.8c2.2,2.4,7.3,0.4,11.1,0.5c4,0,9.4,1.6,11.5-0.4
		C163.7,328.1,161.9,322.7,162,318.6z M245.8,167.2c0-3.2-0.8-3.8-3.9-3.8c-41.4,0.1-82.7,0.1-124.1,0c-3.1,0-3.8,0.7-3.8,3.8
		c0.1,34.5,0.1,69,0.1,103.5v104.7c0,1.8-0.6,3.5,2.6,3.5c34.1-0.1,68.3-0.1,102.4,0c2.1,0,2.7-0.5,2.7-2.6
		c-0.1-10.2-0.1-20.4,0-30.7c0-2.1-0.5-2.7-2.7-2.7c-8.6,0.1-17.2,0.1-25.8,0c-5.2,0-7.5-2.3-7.5-7.5c0-10.8,0-21.7,0-32.5
		c0-5.7,2.2-7.8,8-7.8c6.4,0,12.7,0,19.1,0c9,0,8.9,0,8.9-9.1c0-2.2-0.4-3-2.8-2.9c-8.5,0.2-16.9,0.1-25.4,0c-5.5,0-7.7-2.2-7.7-7.7
		c0-10.8,0-21.7,0-32.5c0-5.4,2.2-7.6,7.8-7.6c8.3,0,16.7-0.1,25,0c2.3,0,3.3-0.4,3.1-3c-0.2-4.6-0.1-9.2-0.1-13.8
		c0.1-4.8,2.4-7.1,7.1-7.2c4.6-0.1,9.2-0.2,13.8,0c2.5,0.1,3.1-0.7,3-3.1C245.7,194.7,245.6,181,245.8,167.2z M173.9,335.8
		c0,4.8-2.4,7.1-7.1,7.1c-11.2,0.1-22.4,0.1-33.6,0c-4.8,0-7.1-2.4-7.1-7.1c-0.1-11.2-0.1-22.4,0-33.6c0-4.8,2.4-7.1,7.1-7.1
		c11.2-0.1,22.4-0.1,33.6,0c4.8,0,7.1,2.4,7.1,7.1c0.1,5.6,0,11.2,0,16.8C174,324.6,174,330.2,173.9,335.8z M173.9,276
		c0,4.7-2.4,7.1-7.1,7.1c-11.2,0.1-22.4,0.1-33.6,0c-4.7,0-7.1-2.4-7.1-7.1c-0.1-11.2-0.1-22.4,0-33.6c0-4.8,2.4-7.1,7.1-7.1
		c5.7-0.1,11.4,0,17.2,0c5.5,0,10.9,0,16.4,0c4.7,0.1,7.1,2.4,7.1,7.1C174,253.6,174,264.8,173.9,276z M173.9,216.3
		c0,4.7-2.4,7-7.2,7c-5.7,0-11.4,0-17.2,0c-5.3,0-10.7,0-16,0c-5,0-7.4-2.3-7.4-7.2c0-11.1,0-22.1,0-33.2c0-5,2.3-7.4,7.2-7.4
		c11.2,0,22.4-0.1,33.6,0c4.6,0,7,2.4,7,6.8C174,193.7,174,205,173.9,216.3z M231.4,205.5c-9.5,0.2-9.5,0.3-9.5-9.2
		c0-2.8,0.9-6.6-0.6-8.2c-1.5-1.8-5.4-0.5-8.2-0.5c-4.3-0.1-8.7,0-13.1,0c-1.6,0-2.2,0.4-2.1,2.1c0.1,6.6,0.1,13.2,0,19.8
		c0,2,0.8,2.2,2.4,2.1c4.4-0.1,8.7,0,13.1-0.1c1.8,0,2.5,0.3,2.6,2.4c0.2,9.6,0.3,9.6-9.2,9.6c-4.6,0-9.2,0.1-13.8,0
		c-4.6-0.1-7-2.4-7-6.9c-0.1-11.3-0.1-22.7,0-34c0-4.5,2.4-6.9,6.9-7c5.7-0.1,11.4,0,17.2,0c5.5,0,10.9,0,16.4,0
		c5,0,7.3,2.3,7.3,7.3c0,6.7-0.1,13.4,0.1,20.2C233.9,204.9,233.3,205.4,231.4,205.5z M161.4,248.1c-2.3-2.5-7.7-0.6-11.8-0.8
		c-3.7-0.1-8.7-1.4-10.8,0.5c-2.5,2.2-0.4,7.2-0.6,11c0,4-1.6,9.3,0.4,11.5c2.3,2.6,7.7,0.6,11.8,0.8c3.7,0.1,8.7,1.4,10.8-0.5
		c2.4-2.1,0.6-7.2,0.7-11C162.1,255.6,163.4,250.3,161.4,248.1z M161.4,307.8c-2.2-2.3-7.3-0.6-11.1-0.7c-4-0.1-9.4-1.4-11.5,0.6
		c-2.5,2.3-0.6,7.7-0.7,11.8c-0.1,3.7-1.3,8.7,0.6,10.8c2.2,2.4,7.3,0.4,11.1,0.5c4,0,9.4,1.6,11.5-0.4c2.5-2.3,0.6-7.7,0.7-11.8
		C162,314.9,163.3,309.8,161.4,307.8z M161.4,248.1c-2.3-2.5-7.7-0.6-11.8-0.8c-3.7-0.1-8.7-1.4-10.8,0.5c-2.5,2.2-0.4,7.2-0.6,11
		c0,4-1.6,9.3,0.4,11.5c2.3,2.6,7.7,0.6,11.8,0.8c3.7,0.1,8.7,1.4,10.8-0.5c2.4-2.1,0.6-7.2,0.7-11
		C162.1,255.6,163.4,250.3,161.4,248.1z M161.4,248.1c-2.3-2.5-7.7-0.6-11.8-0.8c-3.7-0.1-8.7-1.4-10.8,0.5c-2.5,2.2-0.4,7.2-0.6,11
		c0,4-1.6,9.3,0.4,11.5c2.3,2.6,7.7,0.6,11.8,0.8c3.7,0.1,8.7,1.4,10.8-0.5c2.4-2.1,0.6-7.2,0.7-11
		C162.1,255.6,163.4,250.3,161.4,248.1z"/>
	<path class="st0" d="M30.4,105.8c0-1.7,0.5-2.1,2.1-2.1c6.6,0.1,13.2,0.1,19.8,0c1.7,0,2.1,0.5,2.1,2.1c-0.1,3.4,0,6.7,0,10.1
		c0,3.2-0.1,6.5,0,9.7c0.1,1.7-0.5,2.1-2.1,2.1c-6.6-0.1-13.2-0.1-19.8,0c-1.7,0-2.1-0.5-2.1-2.1C30.4,119,30.4,112.4,30.4,105.8z"
		/>
	<path class="st0" d="M114.2,106c0-1.7-0.4-2.4-2.2-2.3c-6.5,0.1-13,0.1-19.4,0c-1.7,0-2.4,0.4-2.3,2.2c0.1,6.5,0.1,13,0,19.4
		c-0.1,2.2,0.9,2.4,2.6,2.3c3.2-0.1,6.5,0,9.7,0c3.1,0,6.2-0.1,9.3,0c1.7,0.1,2.4-0.3,2.3-2.2C114.1,119,114.1,112.5,114.2,106z
		 M114.2,106c0-1.7-0.4-2.4-2.2-2.3c-6.5,0.1-13,0.1-19.4,0c-1.7,0-2.4,0.4-2.3,2.2c0.1,6.5,0.1,13,0,19.4c-0.1,2.2,0.9,2.4,2.6,2.3
		c3.2-0.1,6.5,0,9.7,0c3.1,0,6.2-0.1,9.3,0c1.7,0.1,2.4-0.3,2.3-2.2C114.1,119,114.1,112.5,114.2,106z M54.3,175.7
		c0-3.4-0.1-6.7,0-10.1c0.1-1.6-0.4-2.1-2.1-2.1c-6.6,0.1-13.2,0.1-19.8,0c-1.6,0-2.1,0.4-2.1,2.1c0.1,6.6,0.1,13.2,0,19.8
		c0,1.6,0.4,2.1,2.1,2.1c6.6-0.1,13.2-0.1,19.8,0c1.6,0,2.2-0.4,2.1-2.1C54.2,182.2,54.3,178.9,54.3,175.7z M114.2,106
		c0-1.7-0.4-2.4-2.2-2.3c-6.5,0.1-13,0.1-19.4,0c-1.7,0-2.4,0.4-2.3,2.2c0.1,6.5,0.1,13,0,19.4c-0.1,2.2,0.9,2.4,2.6,2.3
		c3.2-0.1,6.5,0,9.7,0c3.1,0,6.2-0.1,9.3,0c1.7,0.1,2.4-0.3,2.3-2.2C114.1,119,114.1,112.5,114.2,106z M114.2,106
		c0-1.7-0.4-2.4-2.2-2.3c-6.5,0.1-13,0.1-19.4,0c-1.7,0-2.4,0.4-2.3,2.2c0.1,6.5,0.1,13,0,19.4c-0.1,2.2,0.9,2.4,2.6,2.3
		c3.2-0.1,6.5,0,9.7,0c3.1,0,6.2-0.1,9.3,0c1.7,0.1,2.4-0.3,2.3-2.2C114.1,119,114.1,112.5,114.2,106z M54.3,175.7
		c0-3.4-0.1-6.7,0-10.1c0.1-1.6-0.4-2.1-2.1-2.1c-6.6,0.1-13.2,0.1-19.8,0c-1.6,0-2.1,0.4-2.1,2.1c0.1,6.6,0.1,13.2,0,19.8
		c0,1.6,0.4,2.1,2.1,2.1c6.6-0.1,13.2-0.1,19.8,0c1.6,0,2.2-0.4,2.1-2.1C54.2,182.2,54.3,178.9,54.3,175.7z M54.1,235.7
		c0-4,1.6-9.3-0.4-11.5c-2.3-2.5-7.7-0.6-11.8-0.8c-3.7-0.1-8.7-1.3-10.8,0.5c-2.4,2.1-0.6,7.2-0.7,11c-0.1,4-1.4,9.3,0.5,11.5
		c2.3,2.5,7.7,0.6,11.8,0.8c3.7,0.1,8.7,1.3,10.8-0.5C56,244.6,54,239.5,54.1,235.7z M54.3,175.7c0-3.4-0.1-6.7,0-10.1
		c0.1-1.6-0.4-2.1-2.1-2.1c-6.6,0.1-13.2,0.1-19.8,0c-1.6,0-2.1,0.4-2.1,2.1c0.1,6.6,0.1,13.2,0,19.8c0,1.6,0.4,2.1,2.1,2.1
		c6.6-0.1,13.2-0.1,19.8,0c1.6,0,2.2-0.4,2.1-2.1C54.2,182.2,54.3,178.9,54.3,175.7z M114.2,106c0-1.7-0.4-2.4-2.2-2.3
		c-6.5,0.1-13,0.1-19.4,0c-1.7,0-2.4,0.4-2.3,2.2c0.1,6.5,0.1,13,0,19.4c-0.1,2.2,0.9,2.4,2.6,2.3c3.2-0.1,6.5,0,9.7,0
		c3.1,0,6.2-0.1,9.3,0c1.7,0.1,2.4-0.3,2.3-2.2C114.1,119,114.1,112.5,114.2,106z M114.2,106c0-1.7-0.4-2.4-2.2-2.3
		c-6.5,0.1-13,0.1-19.4,0c-1.7,0-2.4,0.4-2.3,2.2c0.1,6.5,0.1,13,0,19.4c-0.1,2.2,0.9,2.4,2.6,2.3c3.2-0.1,6.5,0,9.7,0
		c3.1,0,6.2-0.1,9.3,0c1.7,0.1,2.4-0.3,2.3-2.2C114.1,119,114.1,112.5,114.2,106z M54.3,175.7c0-3.4-0.1-6.7,0-10.1
		c0.1-1.6-0.4-2.1-2.1-2.1c-6.6,0.1-13.2,0.1-19.8,0c-1.6,0-2.1,0.4-2.1,2.1c0.1,6.6,0.1,13.2,0,19.8c0,1.6,0.4,2.1,2.1,2.1
		c6.6-0.1,13.2-0.1,19.8,0c1.6,0,2.2-0.4,2.1-2.1C54.2,182.2,54.3,178.9,54.3,175.7z M54.1,235.7c0-4,1.6-9.3-0.4-11.5
		c-2.3-2.5-7.7-0.6-11.8-0.8c-3.7-0.1-8.7-1.3-10.8,0.5c-2.4,2.1-0.6,7.2-0.7,11c-0.1,4-1.4,9.3,0.5,11.5c2.3,2.5,7.7,0.6,11.8,0.8
		c3.7,0.1,8.7,1.3,10.8-0.5C56,244.6,54,239.5,54.1,235.7z M54.1,235.7c0-4,1.6-9.3-0.4-11.5c-2.3-2.5-7.7-0.6-11.8-0.8
		c-3.7-0.1-8.7-1.3-10.8,0.5c-2.4,2.1-0.6,7.2-0.7,11c-0.1,4-1.4,9.3,0.5,11.5c2.3,2.5,7.7,0.6,11.8,0.8c3.7,0.1,8.7,1.3,10.8-0.5
		C56,244.6,54,239.5,54.1,235.7z M54.3,175.7c0-3.4-0.1-6.7,0-10.1c0.1-1.6-0.4-2.1-2.1-2.1c-6.6,0.1-13.2,0.1-19.8,0
		c-1.6,0-2.1,0.4-2.1,2.1c0.1,6.6,0.1,13.2,0,19.8c0,1.6,0.4,2.1,2.1,2.1c6.6-0.1,13.2-0.1,19.8,0c1.6,0,2.2-0.4,2.1-2.1
		C54.2,182.2,54.3,178.9,54.3,175.7z M54.4,304.2c-0.2-3.1,0-6.2,0-9.3c0-3-0.1-6,0-9c0.1-2-0.3-2.8-2.6-2.8
		c-6.2,0.2-12.5,0.1-18.7,0c-2,0-2.8,0.3-2.8,2.6c0.2,6.2,0.1,12.5,0,18.7c0,2,0.3,2.8,2.6,2.8c6.2-0.2,12.5-0.2,18.7,0
		C54.1,307.2,54.5,306.3,54.4,304.2z M114.2,106c0-1.7-0.4-2.4-2.2-2.3c-6.5,0.1-13,0.1-19.4,0c-1.7,0-2.4,0.4-2.3,2.2
		c0.1,6.5,0.1,13,0,19.4c-0.1,2.2,0.9,2.4,2.6,2.3c3.2-0.1,6.5,0,9.7,0c3.1,0,6.2-0.1,9.3,0c1.7,0.1,2.4-0.3,2.3-2.2
		C114.1,119,114.1,112.5,114.2,106z M114.2,106c0-1.7-0.4-2.4-2.2-2.3c-6.5,0.1-13,0.1-19.4,0c-1.7,0-2.4,0.4-2.3,2.2
		c0.1,6.5,0.1,13,0,19.4c-0.1,2.2,0.9,2.4,2.6,2.3c3.2-0.1,6.5,0,9.7,0c3.1,0,6.2-0.1,9.3,0c1.7,0.1,2.4-0.3,2.3-2.2
		C114.1,119,114.1,112.5,114.2,106z M54.3,175.7c0-3.4-0.1-6.7,0-10.1c0.1-1.6-0.4-2.1-2.1-2.1c-6.6,0.1-13.2,0.1-19.8,0
		c-1.6,0-2.1,0.4-2.1,2.1c0.1,6.6,0.1,13.2,0,19.8c0,1.6,0.4,2.1,2.1,2.1c6.6-0.1,13.2-0.1,19.8,0c1.6,0,2.2-0.4,2.1-2.1
		C54.2,182.2,54.3,178.9,54.3,175.7z M54.1,235.7c0-4,1.6-9.3-0.4-11.5c-2.3-2.5-7.7-0.6-11.8-0.8c-3.7-0.1-8.7-1.3-10.8,0.5
		c-2.4,2.1-0.6,7.2-0.7,11c-0.1,4-1.4,9.3,0.5,11.5c2.3,2.5,7.7,0.6,11.8,0.8c3.7,0.1,8.7,1.3,10.8-0.5
		C56,244.6,54,239.5,54.1,235.7z M54.4,304.2c-0.2-3.1,0-6.2,0-9.3c0-3-0.1-6,0-9c0.1-2-0.3-2.8-2.6-2.8c-6.2,0.2-12.5,0.1-18.7,0
		c-2,0-2.8,0.3-2.8,2.6c0.2,6.2,0.1,12.5,0,18.7c0,2,0.3,2.8,2.6,2.8c6.2-0.2,12.5-0.2,18.7,0C54.1,307.2,54.5,306.3,54.4,304.2z
		 M138.2,83.3c0-3.1-1-3.5-3.7-3.5c-41.5,0.1-83,0.1-124.5,0c-3,0-3.6,0.9-3.6,3.7c0.1,40.6,0.1,81.2,0.1,121.8
		c0,40.7,0,81.5-0.1,122.2c0,2.9,0.7,3.7,3.6,3.6c27.7-0.1,55.3-0.1,83-0.1c9.5,0,9.4,0,9.2-9.5c0-1.9-0.5-2.6-2.5-2.5
		c-4.9,0.1-9.7,0.1-14.6,0c-4.4-0.1-6.9-2.3-6.9-6.6c-0.1-11.6-0.1-23.2,0-34.8c0-4.1,2.5-6.3,6.6-6.5c2.7-0.1,5.5,0,8.2,0
		c9.3,0,9.2,0,9.1-9.3c0-2-0.4-2.8-2.6-2.7c-4.9,0.2-9.7,0.1-14.6,0c-4.3-0.1-6.7-2.5-6.7-6.8c-0.1-11.5-0.1-22.9,0-34.4
		c0-4.3,2.5-6.6,6.8-6.7c2.6-0.1,5.2,0,7.9,0c9.5,0,9.4,0,9.3-9.5c0-2.3-0.9-2.6-2.8-2.5c-4.5,0.1-9,0.1-13.4,0
		c-5.5,0-7.7-2.2-7.7-7.7c0-10.7,0-21.4,0-32.1c0-6,2.1-8,8.1-8c16,0,31.9-0.1,47.8,0.1c2.9,0,4-0.4,3.9-3.7
		C138,126.4,138,104.8,138.2,83.3z M18.5,98.9c0-4.8,2.3-7.1,7.1-7.2c11.2-0.1,22.4,0,33.6,0c4.8,0,7.1,2.3,7.2,7.1
		c0.1,5.7,0,11.4,0,17.2c0,5.5,0,10.9,0,16.4c-0.1,4.8-2.4,7.1-7.1,7.2c-11.2,0.1-22.4,0.1-33.6,0c-4.8,0-7.1-2.3-7.2-7.1
		C18.4,121.3,18.4,110.1,18.5,98.9z M66.3,311.9c0,4.7-2.4,7.1-7.1,7.1c-11.2,0.1-22.4,0.1-33.6,0c-4.7,0-7.1-2.4-7.1-7.1
		c-0.1-11.2-0.1-22.4,0-33.6c0-4.8,2.4-7.1,7.1-7.1c11.2-0.1,22.4-0.1,33.6,0c4.8,0,7.1,2.4,7.1,7.1c0.1,5.7,0,11.4,0,17.2
		C66.3,301,66.3,306.5,66.3,311.9z M66.3,252.1c0,4.8-2.4,7.1-7.1,7.1c-11.2,0.1-22.4,0.1-33.6,0c-4.8,0-7.1-2.4-7.1-7.1
		c-0.1-5.6,0-11.2,0-16.8c0-5.6,0-11.2,0-16.8c0.1-4.8,2.4-7.1,7.1-7.1c11.2-0.1,22.4,0,33.6,0c4.8,0,7.1,2.4,7.1,7.1
		C66.3,229.7,66.3,240.9,66.3,252.1z M66.3,192.3c0,4.7-2.4,7.1-7.2,7.1c-11.2,0-22.4,0.1-33.6,0c-4.7,0-7-2.4-7.1-7.2
		c0-11.2-0.1-22.4,0-33.6c0-4.7,2.4-7,7.2-7.1c5.7,0,11.4,0,17.2,0c5.5,0,10.9,0,16.4,0c4.7,0,7.1,2.4,7.1,7.2
		C66.3,169.9,66.3,181.1,66.3,192.3z M126.1,132.2c0,5-2.3,7.4-7.2,7.4c-11.2,0-22.4,0.1-33.6,0c-4.7,0-7-2.4-7-7.2
		c0-11.2-0.1-22.4,0-33.6c0-4.7,2.4-7,7.2-7c11.2,0,22.4-0.1,33.6,0c4.7,0,7,2.4,7.1,7.2c0.1,5.6,0,11.2,0,16.8
		C126.1,121.2,126.1,126.7,126.1,132.2z M112,103.7c-6.5,0.1-13,0.1-19.4,0c-1.7,0-2.4,0.4-2.3,2.2c0.1,6.5,0.1,13,0,19.4
		c-0.1,2.2,0.9,2.4,2.6,2.3c3.2-0.1,6.5,0,9.7,0c3.1,0,6.2-0.1,9.3,0c1.7,0.1,2.4-0.3,2.3-2.2c-0.1-6.5-0.1-13,0-19.4
		C114.2,104.3,113.8,103.6,112,103.7z M54.3,294.8c0-3-0.1-6,0-9c0.1-2-0.3-2.8-2.6-2.8c-6.2,0.2-12.5,0.1-18.7,0
		c-2,0-2.8,0.3-2.8,2.6c0.2,6.2,0.1,12.5,0,18.7c0,2,0.3,2.8,2.6,2.8c6.2-0.2,12.5-0.2,18.7,0c2.5,0.1,2.9-0.8,2.8-3
		C54.2,301.1,54.3,298,54.3,294.8z M54.3,175.7c0-3.4-0.1-6.7,0-10.1c0.1-1.6-0.4-2.1-2.1-2.1c-6.6,0.1-13.2,0.1-19.8,0
		c-1.6,0-2.1,0.4-2.1,2.1c0.1,6.6,0.1,13.2,0,19.8c0,1.6,0.4,2.1,2.1,2.1c6.6-0.1,13.2-0.1,19.8,0c1.6,0,2.2-0.4,2.1-2.1
		C54.2,182.2,54.3,178.9,54.3,175.7z M54.1,235.7c0-4,1.6-9.3-0.4-11.5c-2.3-2.5-7.7-0.6-11.8-0.8c-3.7-0.1-8.7-1.3-10.8,0.5
		c-2.4,2.1-0.6,7.2-0.7,11c-0.1,4-1.4,9.3,0.5,11.5c2.3,2.5,7.7,0.6,11.8,0.8c3.7,0.1,8.7,1.3,10.8-0.5
		C56,244.6,54,239.5,54.1,235.7z M54.4,304.2c-0.2-3.1,0-6.2,0-9.3c0-3-0.1-6,0-9c0.1-2-0.3-2.8-2.6-2.8c-6.2,0.2-12.5,0.1-18.7,0
		c-2,0-2.8,0.3-2.8,2.6c0.2,6.2,0.1,12.5,0,18.7c0,2,0.3,2.8,2.6,2.8c6.2-0.2,12.5-0.2,18.7,0C54.1,307.2,54.5,306.3,54.4,304.2z
		 M54.1,235.7c0-4,1.6-9.3-0.4-11.5c-2.3-2.5-7.7-0.6-11.8-0.8c-3.7-0.1-8.7-1.3-10.8,0.5c-2.4,2.1-0.6,7.2-0.7,11
		c-0.1,4-1.4,9.3,0.5,11.5c2.3,2.5,7.7,0.6,11.8,0.8c3.7,0.1,8.7,1.3,10.8-0.5C56,244.6,54,239.5,54.1,235.7z M54.3,175.7
		c0-3.4-0.1-6.7,0-10.1c0.1-1.6-0.4-2.1-2.1-2.1c-6.6,0.1-13.2,0.1-19.8,0c-1.6,0-2.1,0.4-2.1,2.1c0.1,6.6,0.1,13.2,0,19.8
		c0,1.6,0.4,2.1,2.1,2.1c6.6-0.1,13.2-0.1,19.8,0c1.6,0,2.2-0.4,2.1-2.1C54.2,182.2,54.3,178.9,54.3,175.7z M114.2,106
		c0-1.7-0.4-2.4-2.2-2.3c-6.5,0.1-13,0.1-19.4,0c-1.7,0-2.4,0.4-2.3,2.2c0.1,6.5,0.1,13,0,19.4c-0.1,2.2,0.9,2.4,2.6,2.3
		c3.2-0.1,6.5,0,9.7,0c3.1,0,6.2-0.1,9.3,0c1.7,0.1,2.4-0.3,2.3-2.2C114.1,119,114.1,112.5,114.2,106z M114.2,106
		c0-1.7-0.4-2.4-2.2-2.3c-6.5,0.1-13,0.1-19.4,0c-1.7,0-2.4,0.4-2.3,2.2c0.1,6.5,0.1,13,0,19.4c-0.1,2.2,0.9,2.4,2.6,2.3
		c3.2-0.1,6.5,0,9.7,0c3.1,0,6.2-0.1,9.3,0c1.7,0.1,2.4-0.3,2.3-2.2C114.1,119,114.1,112.5,114.2,106z M54.4,304.2
		c-0.2-3.1,0-6.2,0-9.3c0-3-0.1-6,0-9c0.1-2-0.3-2.8-2.6-2.8c-6.2,0.2-12.5,0.1-18.7,0c-2,0-2.8,0.3-2.8,2.6
		c0.2,6.2,0.1,12.5,0,18.7c0,2,0.3,2.8,2.6,2.8c6.2-0.2,12.5-0.2,18.7,0C54.1,307.2,54.5,306.3,54.4,304.2z M54.3,175.7
		c0-3.4-0.1-6.7,0-10.1c0.1-1.6-0.4-2.1-2.1-2.1c-6.6,0.1-13.2,0.1-19.8,0c-1.6,0-2.1,0.4-2.1,2.1c0.1,6.6,0.1,13.2,0,19.8
		c0,1.6,0.4,2.1,2.1,2.1c6.6-0.1,13.2-0.1,19.8,0c1.6,0,2.2-0.4,2.1-2.1C54.2,182.2,54.3,178.9,54.3,175.7z M54.1,235.7
		c0-4,1.6-9.3-0.4-11.5c-2.3-2.5-7.7-0.6-11.8-0.8c-3.7-0.1-8.7-1.3-10.8,0.5c-2.4,2.1-0.6,7.2-0.7,11c-0.1,4-1.4,9.3,0.5,11.5
		c2.3,2.5,7.7,0.6,11.8,0.8c3.7,0.1,8.7,1.3,10.8-0.5C56,244.6,54,239.5,54.1,235.7z M54.1,235.7c0-4,1.6-9.3-0.4-11.5
		c-2.3-2.5-7.7-0.6-11.8-0.8c-3.7-0.1-8.7-1.3-10.8,0.5c-2.4,2.1-0.6,7.2-0.7,11c-0.1,4-1.4,9.3,0.5,11.5c2.3,2.5,7.7,0.6,11.8,0.8
		c3.7,0.1,8.7,1.3,10.8-0.5C56,244.6,54,239.5,54.1,235.7z M54.3,175.7c0-3.4-0.1-6.7,0-10.1c0.1-1.6-0.4-2.1-2.1-2.1
		c-6.6,0.1-13.2,0.1-19.8,0c-1.6,0-2.1,0.4-2.1,2.1c0.1,6.6,0.1,13.2,0,19.8c0,1.6,0.4,2.1,2.1,2.1c6.6-0.1,13.2-0.1,19.8,0
		c1.6,0,2.2-0.4,2.1-2.1C54.2,182.2,54.3,178.9,54.3,175.7z M114.2,106c0-1.7-0.4-2.4-2.2-2.3c-6.5,0.1-13,0.1-19.4,0
		c-1.7,0-2.4,0.4-2.3,2.2c0.1,6.5,0.1,13,0,19.4c-0.1,2.2,0.9,2.4,2.6,2.3c3.2-0.1,6.5,0,9.7,0c3.1,0,6.2-0.1,9.3,0
		c1.7,0.1,2.4-0.3,2.3-2.2C114.1,119,114.1,112.5,114.2,106z M114.2,106c0-1.7-0.4-2.4-2.2-2.3c-6.5,0.1-13,0.1-19.4,0
		c-1.7,0-2.4,0.4-2.3,2.2c0.1,6.5,0.1,13,0,19.4c-0.1,2.2,0.9,2.4,2.6,2.3c3.2-0.1,6.5,0,9.7,0c3.1,0,6.2-0.1,9.3,0
		c1.7,0.1,2.4-0.3,2.3-2.2C114.1,119,114.1,112.5,114.2,106z M54.3,175.7c0-3.4-0.1-6.7,0-10.1c0.1-1.6-0.4-2.1-2.1-2.1
		c-6.6,0.1-13.2,0.1-19.8,0c-1.6,0-2.1,0.4-2.1,2.1c0.1,6.6,0.1,13.2,0,19.8c0,1.6,0.4,2.1,2.1,2.1c6.6-0.1,13.2-0.1,19.8,0
		c1.6,0,2.2-0.4,2.1-2.1C54.2,182.2,54.3,178.9,54.3,175.7z M54.1,235.7c0-4,1.6-9.3-0.4-11.5c-2.3-2.5-7.7-0.6-11.8-0.8
		c-3.7-0.1-8.7-1.3-10.8,0.5c-2.4,2.1-0.6,7.2-0.7,11c-0.1,4-1.4,9.3,0.5,11.5c2.3,2.5,7.7,0.6,11.8,0.8c3.7,0.1,8.7,1.3,10.8-0.5
		C56,244.6,54,239.5,54.1,235.7z M54.3,175.7c0-3.4-0.1-6.7,0-10.1c0.1-1.6-0.4-2.1-2.1-2.1c-6.6,0.1-13.2,0.1-19.8,0
		c-1.6,0-2.1,0.4-2.1,2.1c0.1,6.6,0.1,13.2,0,19.8c0,1.6,0.4,2.1,2.1,2.1c6.6-0.1,13.2-0.1,19.8,0c1.6,0,2.2-0.4,2.1-2.1
		C54.2,182.2,54.3,178.9,54.3,175.7z M114.2,106c0-1.7-0.4-2.4-2.2-2.3c-6.5,0.1-13,0.1-19.4,0c-1.7,0-2.4,0.4-2.3,2.2
		c0.1,6.5,0.1,13,0,19.4c-0.1,2.2,0.9,2.4,2.6,2.3c3.2-0.1,6.5,0,9.7,0c3.1,0,6.2-0.1,9.3,0c1.7,0.1,2.4-0.3,2.3-2.2
		C114.1,119,114.1,112.5,114.2,106z M114.2,106c0-1.7-0.4-2.4-2.2-2.3c-6.5,0.1-13,0.1-19.4,0c-1.7,0-2.4,0.4-2.3,2.2
		c0.1,6.5,0.1,13,0,19.4c-0.1,2.2,0.9,2.4,2.6,2.3c3.2-0.1,6.5,0,9.7,0c3.1,0,6.2-0.1,9.3,0c1.7,0.1,2.4-0.3,2.3-2.2
		C114.1,119,114.1,112.5,114.2,106z M54.3,175.7c0-3.4-0.1-6.7,0-10.1c0.1-1.6-0.4-2.1-2.1-2.1c-6.6,0.1-13.2,0.1-19.8,0
		c-1.6,0-2.1,0.4-2.1,2.1c0.1,6.6,0.1,13.2,0,19.8c0,1.6,0.4,2.1,2.1,2.1c6.6-0.1,13.2-0.1,19.8,0c1.6,0,2.2-0.4,2.1-2.1
		C54.2,182.2,54.3,178.9,54.3,175.7z"/>
	<path class="st0" d="M293.6,343c18.8,0,37.6,0.1,56.4-0.1c2.8,0,3.5,0.6,3.5,3.4c-0.2,9.8-0.2,19.7,0,29.5c0,2.4-0.6,3.1-3.1,3.1
		c-37.9-0.1-75.8-0.1-113.6,0c-2.4,0-3.1-0.6-3.1-3c0.1-10,0.1-19.9,0-29.9c0-2.4,0.6-3.1,3.1-3.1C255.7,343,274.7,343,293.6,343z"
		/>
	<path class="st0" d="M54.3,343c15,0,29.9,0.1,44.9-0.1c2.5,0,3.1,0.7,3,3.1c-0.1,10-0.1,19.9,0,29.9c0,2.5-0.7,3-3.1,3
		c-29.9-0.1-59.8-0.1-89.7,0c-2.5,0-3.1-0.6-3-3.1c0.1-10,0.1-19.9,0-29.9c0-2.5,0.7-3.1,3.1-3C24.4,343,39.4,343,54.3,343z"/>
	<path class="st0" d="M359.5,151.6c-9.9,9.9-19.3,19.2-28.6,28.6c-1.1,1.1-1.8,1.2-2.9,0c-9.3-9.4-18.6-18.7-28.6-28.6
		c5.5,0,10.3-0.1,15,0.1c2.4,0.1,3.1-0.6,3.1-3c-0.1-19.8,0-39.6-0.1-59.4c0-2.8,0.6-3.6,3.4-3.5c5.8,0.2,11.7,0.2,17.6,0
		c2.5-0.1,3.1,0.6,3,3.1c-0.1,19.8,0,39.6-0.1,59.4c0,2.8,0.7,3.6,3.5,3.4C349.4,151.4,354,151.6,359.5,151.6z"/>
	<path class="st0" d="M281.8,85.8c-9.9,9.9-19.3,19.2-28.5,28.6c-1.1,1.1-1.7,1.3-2.9,0.1c-9.3-9.4-18.6-18.7-28.6-28.6
		c5.4,0,10-0.2,14.6,0.1c2.7,0.1,3.5-0.5,3.5-3.4c-0.2-17.7,0-35.4-0.1-53.1c0-2.7,0.5-3.6,3.4-3.5c5.8,0.3,11.7,0.2,17.6,0
		c2.4-0.1,3.1,0.6,3.1,3c-0.1,17.8,0,35.6-0.1,53.5c0,2.8,0.6,3.6,3.4,3.5C271.6,85.6,276.3,85.8,281.8,85.8z"/>
	<path class="st0" d="M293.2,235.3c-18.7,0-37.4-0.1-56.1,0.1c-2.8,0-3.5-0.6-3.4-3.4c0.2-8.6,0-8.6,8.7-8.6
		c35.8,0,71.5,0,107.3-0.1c3.1,0,3.9,0.7,3.8,3.8c-0.2,8.2-0.1,8.2-8.3,8.2C327.9,235.3,310.5,235.3,293.2,235.3z"/>
	<path class="st0" d="M293.2,259.2c-18.7,0-37.4-0.1-56.1,0.1c-2.8,0-3.5-0.7-3.4-3.4c0.2-8.6,0-8.6,8.7-8.6
		c35.8,0,71.5,0,107.3-0.1c3.1,0,3.9,0.7,3.8,3.8c-0.2,8.2-0.1,8.2-8.3,8.2C327.9,259.2,310.5,259.2,293.2,259.2z"/>
	<path class="st0" d="M293.6,283.2c-18.8,0-37.6-0.1-56.4,0.1c-2.8,0-3.5-0.7-3.4-3.5c0.2-8.6,0-8.6,8.7-8.6
		c35.8,0,71.5,0,107.3-0.1c3.1,0,3.9,0.7,3.8,3.8c-0.2,8.2-0.1,8.2-8.3,8.2C328,283.2,310.8,283.2,293.6,283.2z"/>
	<path class="st0" d="M293.6,295.1c18.8,0,37.6,0.1,56.4-0.1c2.8,0,3.5,0.6,3.5,3.4c-0.2,8.6,0,8.6-8.7,8.6
		c-35.8,0-71.5,0-107.3,0.1c-3.1,0-3.9-0.7-3.8-3.8c0.2-8.2,0.1-8.2,8.3-8.2C259.2,295.1,276.4,295.1,293.6,295.1z"/>
	<path class="st0" d="M294,319.1c18.7,0,37.4,0.1,56.1-0.1c2.8,0,3.5,0.6,3.4,3.4c-0.2,8.6,0,8.6-8.7,8.6c-35.8,0-71.5,0-107.3,0.1
		c-3.1,0-3.9-0.7-3.8-3.8c0.2-8.2,0.1-8.2,8.3-8.2C259.3,319.1,276.7,319.1,294,319.1z"/>
	<path class="st0" d="M347.4,44c0,7-0.1,14,0,20.9c0,2.1-0.2,3-2.7,3c-9.3,0-9.3,0.1-9.3-9.1c0-11.8,0.1-23.7-0.1-35.5
		c0-2.5,0.3-3.4,3.1-3.4c8.9,0.1,8.9,0,8.9,8.8C347.4,33.8,347.4,38.9,347.4,44z"/>
	<path class="st0" d="M209.7,271.2c-3.2,0-6.5-0.1-9.7,0c-1.6,0.1-2.2-0.4-2.1-2.1c0.1-6.6,0.1-13.2,0-19.8c0-1.6,0.4-2.2,2.1-2.1
		c6.6,0.1,13.2,0.1,19.8,0c1.6,0,2.2,0.4,2.1,2.1c-0.1,6.6-0.1,13.2,0,19.8c0,2-0.9,2.2-2.5,2.1
		C216.2,271.1,212.9,271.2,209.7,271.2z"/>
	<path class="st0" d="M198.1,318.7c0.2-3.8-1.9-8.9,0.6-11c2.1-1.9,7.1-0.6,10.8-0.5c4.1,0.1,9.5-1.8,11.8,0.8
		c2,2.2,0.6,7.6,0.5,11.5c-0.1,3.8,1.7,8.9-0.7,11c-2.1,1.9-7.1,0.6-10.8,0.5c-4.1-0.1-9.5,1.8-11.8-0.8
		C196.5,328,198.1,322.7,198.1,318.7z"/>
	<path class="st0" d="M90.2,175.5c0-1,0-2,0-3c0-9.9,0-9.9,10.1-9c1.4,0.1,1.9,0.5,1.9,1.9c-0.1,6.7-0.1,13.4,0,20.2
		c0,1.5-0.4,2.1-1.9,1.9c-0.1,0-0.2,0-0.4,0c-9.7,0.5-9.7,0.5-9.7-9.4C90.2,177.2,90.2,176.4,90.2,175.5z"/>
	<path class="st0" d="M90.2,294.8c0-0.9,0-1.7,0-2.6c0-9.1,0-9,8.9-9.1c2.4,0,3.2,0.5,3.1,3c-0.2,6.2-0.1,12.5,0,18.7
		c0,1.7-0.4,2.3-2.2,2.3c-9.8,0.4-9.8,0.5-9.8-9.4C90.2,296.8,90.2,295.8,90.2,294.8z"/>
	<path class="st0" d="M90.2,235.3c0-1,0-2,0-3c0-9.9,0-9.9,10.1-9c1.4,0.1,1.9,0.5,1.9,1.9c-0.1,6.7-0.1,13.4,0,20.2
		c0,1.5-0.5,2.1-1.9,1.9c-0.1,0-0.2,0-0.4,0c-9.7,0.5-9.7,0.5-9.7-9C90.2,237.3,90.2,236.3,90.2,235.3z"/>
	<path class="st0" d="M323.5,56.2c0,1,0,2,0,3c0,9.5-0.7,10-10.4,8.7c-1.4-0.2-1.6-0.7-1.6-1.9c0-6.7,0.1-13.4,0-20.2
		c0-1.8,0.8-1.9,2.2-2c9.8-0.5,9.8-0.5,9.8,9.3C323.5,54.2,323.5,55.2,323.5,56.2z"/>
	<path class="st0" d="M317.8,31.9c-6.3,0-6.3,0-6.3-6.4c0-5.5,0-5.5,5.7-5.5c6.3,0,6.3,0,6.3,6.4C323.5,31.9,323.5,31.9,317.8,31.9z
		"/>
	<path class="st0" d="M159.5,211.4c-6.4-0.2-12.7-0.2-19.1,0c-2.1,0.1-2.4-0.7-2.4-2.6c0.1-6.4,0.1-12.7,0-19.1
		c-0.1-2.1,0.7-2.4,2.6-2.4c6.4,0.1,12.7,0.1,19.1,0c2.1-0.1,2.5,0.7,2.4,2.6c-0.1,3.2,0,6.5,0,9.7c0,3-0.1,6,0,9
		C162.1,210.6,161.8,211.5,159.5,211.4z"/>
	<path class="st0" d="M162,259.6c-0.1,3.8,1.7,8.9-0.7,11c-2.1,1.9-7.1,0.6-10.8,0.5c-4.1-0.1-9.5,1.8-11.8-0.8
		c-2-2.2-0.4-7.6-0.4-11.5c0.2-3.8-1.9-8.9,0.6-11c2.1-1.9,7.1-0.6,10.8-0.5c4.1,0.1,9.5-1.8,11.8,0.8
		C163.4,250.3,162.1,255.6,162,259.6z"/>
	<path class="st0" d="M161.3,330.4c-2.1,2-7.5,0.4-11.5,0.4c-3.8-0.1-8.9,1.9-11.1-0.5c-1.9-2.1-0.6-7.1-0.6-10.8
		c0.1-4.1-1.7-9.5,0.7-11.8c2.2-2,7.5-0.7,11.5-0.6c3.8,0.1,8.9-1.6,11.1,0.7c1.9,2,0.6,7.1,0.6,10.8
		C161.9,322.7,163.7,328.1,161.3,330.4z"/>
	<path class="st0" d="M53.6,246.7c-2.1,1.9-7.1,0.6-10.8,0.5c-4.1-0.1-9.5,1.8-11.8-0.8c-2-2.2-0.6-7.6-0.5-11.5
		c0.1-3.8-1.7-8.9,0.7-11c2.1-1.9,7.1-0.6,10.8-0.5c4.1,0.1,9.5-1.8,11.8,0.8c2,2.2,0.4,7.6,0.4,11.5C54,239.5,56,244.6,53.6,246.7z
		"/>
	<path class="st0" d="M54.4,125.6c0.1,1.7-0.5,2.1-2.1,2.1c-6.6-0.1-13.2-0.1-19.8,0c-1.7,0-2.1-0.5-2.1-2.1
		c0.1-6.6,0.1-13.2,0-19.8c0-1.7,0.5-2.1,2.1-2.1c6.6,0.1,13.2,0.1,19.8,0c1.7,0,2.1,0.5,2.1,2.1c-0.1,3.4,0,6.7,0,10.1
		C54.3,119.1,54.2,122.4,54.4,125.6z"/>
	<path class="st0" d="M114.2,125.4c0,1.9-0.6,2.3-2.3,2.2c-3.1-0.1-6.2,0-9.3,0c-3.2,0-6.5-0.1-9.7,0c-1.7,0-2.7-0.1-2.6-2.3
		c0.2-6.5,0.1-13,0-19.4c0-1.9,0.6-2.3,2.3-2.2c6.5,0.1,13,0.1,19.4,0c1.9,0,2.3,0.6,2.2,2.3C114.1,112.5,114.1,119,114.2,125.4z"/>
	<path class="st0" d="M54.4,185.4c0.1,1.7-0.5,2.1-2.1,2.1c-6.6-0.1-13.2-0.1-19.8,0c-1.7,0-2.1-0.5-2.1-2.1
		c0.1-6.6,0.1-13.2,0-19.8c0-1.7,0.5-2.1,2.1-2.1c6.6,0.1,13.2,0.1,19.8,0c1.7,0,2.1,0.5,2.1,2.1c-0.1,3.4,0,6.7,0,10.1
		C54.3,178.9,54.2,182.2,54.4,185.4z"/>
	<path class="st0" d="M51.6,307.2c-6.2-0.2-12.5-0.2-18.7,0c-2.3,0.1-2.6-0.8-2.6-2.8c0.1-6.2,0.1-12.5,0-18.7
		c-0.1-2.3,0.8-2.6,2.8-2.6c6.2,0.1,12.5,0.1,18.7,0c2.3-0.1,2.7,0.8,2.6,2.8c-0.1,3,0,6,0,9c0,3.1-0.1,6.2,0,9.3
		C54.5,306.3,54.1,307.2,51.6,307.2z"/>
	<path class="st0" d="M159.5,211.4c-6.4-0.2-12.7-0.2-19.1,0c-2.1,0.1-2.4-0.7-2.4-2.6c0.1-6.4,0.1-12.7,0-19.1
		c-0.1-2.1,0.7-2.4,2.6-2.4c6.4,0.1,12.7,0.1,19.1,0c2.1-0.1,2.5,0.7,2.4,2.6c-0.1,3.2,0,6.5,0,9.7c0,3-0.1,6,0,9
		C162.1,210.6,161.8,211.5,159.5,211.4z"/>
	<path class="st0" d="M162,259.6c-0.1,3.8,1.7,8.9-0.7,11c-2.1,1.9-7.1,0.6-10.8,0.5c-4.1-0.1-9.5,1.8-11.8-0.8
		c-2-2.2-0.4-7.6-0.4-11.5c0.2-3.8-1.9-8.9,0.6-11c2.1-1.9,7.1-0.6,10.8-0.5c4.1,0.1,9.5-1.8,11.8,0.8
		C163.4,250.3,162.1,255.6,162,259.6z"/>
	<path class="st0" d="M161.3,330.4c-2.1,2-7.5,0.4-11.5,0.4c-3.8-0.1-8.9,1.9-11.1-0.5c-1.9-2.1-0.6-7.1-0.6-10.8
		c0.1-4.1-1.7-9.5,0.7-11.8c2.2-2,7.5-0.7,11.5-0.6c3.8,0.1,8.9-1.6,11.1,0.7c1.9,2,0.6,7.1,0.6,10.8
		C161.9,322.7,163.7,328.1,161.3,330.4z"/>
	<path class="st0" d="M53.6,246.7c-2.1,1.9-7.1,0.6-10.8,0.5c-4.1-0.1-9.5,1.8-11.8-0.8c-2-2.2-0.6-7.6-0.5-11.5
		c0.1-3.8-1.7-8.9,0.7-11c2.1-1.9,7.1-0.6,10.8-0.5c4.1,0.1,9.5-1.8,11.8,0.8c2,2.2,0.4,7.6,0.4,11.5C54,239.5,56,244.6,53.6,246.7z
		"/>
	<path class="st0" d="M54.4,125.6c0.1,1.7-0.5,2.1-2.1,2.1c-6.6-0.1-13.2-0.1-19.8,0c-1.7,0-2.1-0.5-2.1-2.1
		c0.1-6.6,0.1-13.2,0-19.8c0-1.7,0.5-2.1,2.1-2.1c6.6,0.1,13.2,0.1,19.8,0c1.7,0,2.1,0.5,2.1,2.1c-0.1,3.4,0,6.7,0,10.1
		C54.3,119.1,54.2,122.4,54.4,125.6z"/>
	<path class="st0" d="M114.2,125.4c0,1.9-0.6,2.3-2.3,2.2c-3.1-0.1-6.2,0-9.3,0c-3.2,0-6.5-0.1-9.7,0c-1.7,0-2.7-0.1-2.6-2.3
		c0.2-6.5,0.1-13,0-19.4c0-1.9,0.6-2.3,2.3-2.2c6.5,0.1,13,0.1,19.4,0c1.9,0,2.3,0.6,2.2,2.3C114.1,112.5,114.1,119,114.2,125.4z"/>
	<path class="st0" d="M54.4,185.4c0.1,1.7-0.5,2.1-2.1,2.1c-6.6-0.1-13.2-0.1-19.8,0c-1.7,0-2.1-0.5-2.1-2.1
		c0.1-6.6,0.1-13.2,0-19.8c0-1.7,0.5-2.1,2.1-2.1c6.6,0.1,13.2,0.1,19.8,0c1.7,0,2.1,0.5,2.1,2.1c-0.1,3.4,0,6.7,0,10.1
		C54.3,178.9,54.2,182.2,54.4,185.4z"/>
	<path class="st0" d="M51.6,307.2c-6.2-0.2-12.5-0.2-18.7,0c-2.3,0.1-2.6-0.8-2.6-2.8c0.1-6.2,0.1-12.5,0-18.7
		c-0.1-2.3,0.8-2.6,2.8-2.6c6.2,0.1,12.5,0.1,18.7,0c2.3-0.1,2.7,0.8,2.6,2.8c-0.1,3,0,6,0,9c0,3.1-0.1,6.2,0,9.3
		C54.5,306.3,54.1,307.2,51.6,307.2z"/>
</g>
</svg>
