<?xml version="1.0" encoding="utf-8"?>
<!-- Generator: Adobe Illustrator 23.0.0, SVG Export Plug-In . SVG Version: 6.00 Build 0)  -->
<svg version="1.1" id="Layer_1" xmlns="http://www.w3.org/2000/svg" xmlns:xlink="http://www.w3.org/1999/xlink" x="0px" y="0px"
	 viewBox="0 0 381.1 358" style="enable-background:new 0 0 381.1 358;" xml:space="preserve">
<style type="text/css">
	.st0{fill:"currentColor";}
</style>
<g>
	<path class="st0" d="M37.6,352.8c-8.3-0.7-15-4.4-18.7-12.6c-3.7-8.2-2.7-16.2,3.4-22.5c15.9-16.5,32.2-32.6,48.5-48.6
		c4.6-4.5,11.3-4.4,16,0c4.7,4.4,9.4,9,13.8,13.8c4.4,4.7,4.5,11.4-0.1,16c-16,16.2-32.1,32.3-48.3,48.3
		C48.3,351,43.4,352.5,37.6,352.8z"/>
	<g>
		<path class="st0" d="M105.7,304.1c3.6-4.7,5.5-9.6,5-15.3c-0.1-1.3,1-1.8,1.8-2.6c8.2-8.2,16.4-16.3,24.5-24.6
			c2.5-2.6,4.6-2.6,7.6-0.8c17,10.3,35.5,15.3,55.3,15.2c50-0.3,93.4-36.7,102.4-85.8c10.4-56.9-25.5-110.5-82-122.6
			C163.3,55.5,105.8,94,95.6,151c-4.8,26.5-0.4,51.2,13.4,74.3c1.8,3,1.5,5.1-1,7.6c-8.2,8-16.3,16.2-24.3,24.3
			c-1.2,1.3-2.4,2-4.4,1.8c-4.7-0.3-8.9,1.5-13,4.3c0.2-4.9,2-8.7,4.9-12.1c4.7-5.6,9.4-11.3,14.1-17c4.4-5.3,5.5-11.2,2.7-17.5
			c-2.8-6.2-7.9-9-14.6-9.5c-7.9-0.6-15.9-1.3-23.8-2.2c-8.1-0.9-14.5-8-15.3-16.8c-1.1-11.6-1.1-23.1,0-34.7
			c0.9-9.2,8.1-15.7,18.1-16.5c7.4-0.6,14.9-1.3,22.3-2.1c6.3-0.6,10.7-4,13.2-9.8c2.5-5.9,1.5-11.4-2.4-16.3
			c-4.8-6-9.9-11.8-14.9-17.7c-6.6-7.9-6.7-16.7-0.2-24.6c7.1-8.7,15-16.7,23.7-23.8c7.8-6.4,16.5-6.4,24.3,0
			c5.7,4.7,11.4,9.3,17,14.1c5.3,4.5,11.2,5.7,17.5,3c6.4-2.7,9.3-7.9,9.7-14.8c0.5-7.8,1.3-15.6,2.1-23.4c0.8-8.3,8-14.8,16.9-15.6
			C192.9,5,204.3,5,215.8,6c9.3,0.8,16,8,16.8,18.2c0.6,7.4,1.4,14.9,2.1,22.3c0.6,6.2,3.9,10.6,9.5,13c5.8,2.5,11.4,1.8,16.3-2.2
			c6.1-4.9,12-10,18-15.1c7.9-6.6,16.6-6.7,24.6-0.2c8.8,7.2,16.9,15.1,24,24c6,7.4,6.1,16,0.1,23.5c-4.8,5.9-9.6,11.7-14.5,17.5
			c-4.5,5.3-5.6,11.2-2.9,17.5c2.7,6.4,8,9.2,14.8,9.7c7.9,0.5,15.9,1.3,23.8,2.1c8.1,0.9,14.4,8.2,15.2,16.9
			c1,11.4,1.1,22.9,0,34.3c-0.9,9.5-8.2,16-19,16.8c-7.3,0.5-14.7,1.2-21.9,2.1c-12.7,1.7-18.2,16-10.1,26.1
			c4.8,6,9.9,11.8,14.9,17.7c6.6,7.9,6.6,16.6,0.1,24.6c-7.1,8.7-15,16.7-23.7,23.8c-7.5,6.2-16.1,6.3-23.8,0.2
			c-6-4.8-11.9-9.8-17.9-14.7c-5.2-4.3-11.1-5.3-17.2-2.6c-6.2,2.7-9.1,7.8-9.6,14.5c-0.6,8.1-1.3,16.1-2.2,24.1
			c-0.9,8.1-8.2,14.4-16.9,15.1c-11.4,1-22.9,1.1-34.3,0c-9.4-0.9-15.9-8.2-16.7-18.7c-0.5-7.3-1.3-14.6-2.1-22
			c-0.7-6.3-4.1-10.7-10-13c-5.9-2.4-11.4-1.3-16.2,2.6c-6.1,4.9-12,10.1-18,15.1C115.3,302.6,111.1,304.3,105.7,304.1z"/>
		<path class="st0" d="M295.6,154.6c-7.9-47.5-48.6-82-97.7-82c-3.6-0.3-8.1,0.3-12.6,0.9c-3.9,0.5-7.8,1.3-11.7,2.4
			c-63.4,17.3-92.3,89-58.8,145.5c4,6.8,3.6,10.8-2,16.4c-7.4,7.4-14.8,14.9-22.3,22.3c-1.2,1.2-1.6,1.8,0,3.3
			c5.4,5,10.6,10.2,15.6,15.6c1.5,1.6,2.1,1.5,3.5,0.1c7-7.2,14.1-14.2,21.2-21.3c6.8-6.8,10-7.1,18.4-2.3
			c20.3,11.7,42.1,16,65.3,12.1C268.6,258.5,304.6,208.3,295.6,154.6z M197.8,247.8c-41.9-0.1-76.2-35.2-76.1-77.9
			c0.2-42.5,35-76.5,78.2-76.4c41.7,0.1,76.2,35.1,76.1,77.1C275.9,213.9,241.4,248,197.8,247.8z M199,100.7
			c-38.6-0.3-69.7,30.7-70.1,69.8c-0.4,38.3,30.8,69.8,69.4,70.2c38.7,0.4,70.6-30.9,70.7-69.3C269.1,132,238.3,101,199,100.7z
			 M210.1,212.8c-1.9,0.9-2.9,1.7-3,4c-0.2,5-3.7,8.1-8.4,8.1c-4.5-0.1-7.9-3.2-8.1-8c-0.1-2.3-0.9-3.2-2.9-4.1
			c-4.3-1.8-7.8-4.8-10.4-8.7c-2.8-4.1-2.2-8.7,1.5-11.6c3.7-2.8,8.4-2.3,11.5,1.6c2.1,2.5,4.4,4.4,7.8,4.6c5.6,0.4,10.3-3.5,10.6-9
			c0.4-6-3.6-10.4-9.6-10.7c-15.9-0.8-27.2-12.3-26.6-27.3c0.4-10.8,5.8-18.6,15.6-23.3c1.7-0.8,2.5-1.5,2.6-3.6
			c0.2-5.1,3.5-8.3,8.1-8.3c4.8,0,8.2,3.3,8.3,8.5c0.1,1.9,0.7,2.6,2.4,3.3c4.5,1.9,8.2,5,11,9c2.9,4.2,2.4,8.7-1.3,11.6
			c-3.8,3-8.8,2.5-11.7-1.8c-4.1-5.9-12.9-6.2-16.9-0.3c-1.1,1.6-1.8,3.4-1.6,5.1c0,5.9,3.9,10,9.7,10.3
			c14.1,0.7,23.8,9.2,26.2,22.8C226.9,196.1,220.7,207.9,210.1,212.8z"/>
		<path class="st0" d="M199,100.7c-38.6-0.3-69.7,30.7-70.1,69.8c-0.4,38.3,30.8,69.8,69.4,70.2c38.7,0.4,70.6-30.9,70.7-69.3
			C269.1,132,238.3,101,199,100.7z M210.1,212.8c-1.9,0.9-2.9,1.7-3,4c-0.2,5-3.7,8.1-8.4,8.1c-4.5-0.1-7.9-3.2-8.1-8
			c-0.1-2.3-0.9-3.2-2.9-4.1c-4.3-1.8-7.8-4.8-10.4-8.7c-2.8-4.1-2.2-8.7,1.5-11.6c3.7-2.8,8.4-2.3,11.5,1.6
			c2.1,2.5,4.4,4.4,7.8,4.6c5.6,0.4,10.3-3.5,10.6-9c0.4-6-3.6-10.4-9.6-10.7c-15.9-0.8-27.2-12.3-26.6-27.3
			c0.4-10.8,5.8-18.6,15.6-23.3c1.7-0.8,2.5-1.5,2.6-3.6c0.2-5.1,3.5-8.3,8.1-8.3c4.8,0,8.2,3.3,8.3,8.5c0.1,1.9,0.7,2.6,2.4,3.3
			c4.5,1.9,8.2,5,11,9c2.9,4.2,2.4,8.7-1.3,11.6c-3.8,3-8.8,2.5-11.7-1.8c-4.1-5.9-12.9-6.2-16.9-0.3c-1.1,1.6-1.8,3.4-1.6,5.1
			c0,5.9,3.9,10,9.7,10.3c14.1,0.7,23.8,9.2,26.2,22.8C226.9,196.1,220.7,207.9,210.1,212.8z"/>
		<path class="st0" d="M199,100.7c-38.6-0.3-69.7,30.7-70.1,69.8c-0.4,38.3,30.8,69.8,69.4,70.2c38.7,0.4,70.6-30.9,70.7-69.3
			C269.1,132,238.3,101,199,100.7z M210.1,212.8c-1.9,0.9-2.9,1.7-3,4c-0.2,5-3.7,8.1-8.4,8.1c-4.5-0.1-7.9-3.2-8.1-8
			c-0.1-2.3-0.9-3.2-2.9-4.1c-4.3-1.8-7.8-4.8-10.4-8.7c-2.8-4.1-2.2-8.7,1.5-11.6c3.7-2.8,8.4-2.3,11.5,1.6
			c2.1,2.5,4.4,4.4,7.8,4.6c5.6,0.4,10.3-3.5,10.6-9c0.4-6-3.6-10.4-9.6-10.7c-15.9-0.8-27.2-12.3-26.6-27.3
			c0.4-10.8,5.8-18.6,15.6-23.3c1.7-0.8,2.5-1.5,2.6-3.6c0.2-5.1,3.5-8.3,8.1-8.3c4.8,0,8.2,3.3,8.3,8.5c0.1,1.9,0.7,2.6,2.4,3.3
			c4.5,1.9,8.2,5,11,9c2.9,4.2,2.4,8.7-1.3,11.6c-3.8,3-8.8,2.5-11.7-1.8c-4.1-5.9-12.9-6.2-16.9-0.3c-1.1,1.6-1.8,3.4-1.6,5.1
			c0,5.9,3.9,10,9.7,10.3c14.1,0.7,23.8,9.2,26.2,22.8C226.9,196.1,220.7,207.9,210.1,212.8z"/>
	</g>
</g>
</svg>
