<?xml version="1.0" encoding="utf-8"?>
<!-- Generator: Adobe Illustrator 23.0.0, SVG Export Plug-In . SVG Version: 6.00 Build 0)  -->
<svg version="1.1" id="Layer_1" xmlns="http://www.w3.org/2000/svg" xmlns:xlink="http://www.w3.org/1999/xlink" x="0px" y="0px"
	 viewBox="0 0 525.6 449.3" style="enable-background:new 0 0 525.6 449.3;" xml:space="preserve">
<style type="text/css">
	.st0{fill:"currentColor";}
</style>
<path class="st0" d="M492.4,141c9.4-8.7,15.6-19,17.2-31.9V91.6c-1.7-1.5-1.4-3.8-2-5.7c-6.3-22.5-27.3-38.8-50.4-38.9
	C448.6,47,442,52.9,441.7,61c-0.3,8.1,5.8,14.6,14.4,15.1c11.9,0.7,20.4,7.1,23.4,17.6c3,10.5-0.9,20.5-10.5,27.3
	c-2.1-0.3-3.2-2.1-4.7-3.3c-22-18.9-47.6-29.9-76.5-31.6C369,85,350,85.9,331.1,86c-35.2-0.2-70.4-1.7-105.2,5.8
	c-2.6,0.5-4.1,0.2-5.6-2.1c-14.8-23.6-35.6-39.7-61.7-49.1c-11.2-4.1-20.7,2.5-20.8,14.6c0,14.4-0.1,28.8,0.1,43.2
	c0,3.2-0.6,4.8-4,5.7c-10.5,2.8-19.4,8.6-27.2,16.2c-11.8,11.5-19.1,25.9-27,40c-6.7,12-13.1,24.2-26.2,30.9
	c-9.1,4.7-18.5,8.5-28.3,11.2c-10.2,2.7-14.4,9.6-11.7,19.7c5.2,20,10.4,39.9,15.8,59.9c2.1,7.8,7.5,11.7,15.7,11.7
	c25.2,0,50.5,0,75.7,0c3.9,0,7.7,0.5,11.5,1.6c12.6,3.7,21.1,15.3,21.1,29.3c0.1,23.4,0,46.9,0.1,70.3c0,9,6.2,15.2,15.3,15.2
	c15.5,0.1,31,0.1,46.6,0c7.5-0.1,13.5-5.2,14.7-12.3c0.5-3.2,0.8-6.4,1.1-9.6c1.7-17,3.3-34,4.9-51c0.2-2.5,1.4-3,3.5-2.7
	c12,1.6,24.1,2.2,36.1,3.1c18.5,1.3,37,2.9,55.6,2.5c1.9,0,3.9,0.1,5.8,0.1c26-0.3,51.9-2.5,77.7-5c2.8-0.3,3.6,0.5,3.8,3.2
	c1.8,19.6,3.8,39.1,5.8,58.7c0.8,7.6,6.7,13,14.3,13c16,0.1,32,0.1,48,0c7.8-0.1,13.7-5.8,14.3-13.6c0.6-7.7,1.3-15.4,1.8-23.1
	c1.7-30.9,3.2-61.9,5.3-92.8c0.4-6.6-0.4-13.4,1.7-19.9v-10.7c-1.5-3.2-1.5-6.5,0-9.7V210c-1.4-1.9-1.6-3.9,0-5.8v-1
	c-1.1-4.9-0.5-9.9-1.6-14.7c-3.6-16.2-10-31.2-19.3-45C490.3,143.5,491.3,142.1,492.4,141z M122.2,198.4
	c-7.5-0.1-14.5-7.1-14.4-14.7c0.1-7.5,7.1-14.5,14.7-14.4c7.5,0.1,14.5,7.1,14.4,14.7C136.9,191.5,129.8,198.4,122.2,198.4z"/>
</svg>
