<?xml version="1.0" encoding="utf-8"?>
<!-- Generator: Adobe Illustrator 23.0.0, SVG Export Plug-In . SVG Version: 6.00 Build 0)  -->
<svg version="1.1" id="Layer_1" xmlns="http://www.w3.org/2000/svg" xmlns:xlink="http://www.w3.org/1999/xlink" x="0px" y="0px"
	 viewBox="0 0 381.1 358" style="enable-background:new 0 0 381.1 358;" xml:space="preserve">
<style type="text/css">
	.st0{fill:"currentColor";}
</style>
<g>
	<path class="st0" d="M296.7,253.8c-7.6,0-15.2,0-22.8,0c-8.2,0-12.4-4.3-12.4-12.5c0-14.5-0.1-29,0.1-43.4c0-3.3-1-5.1-4.1-6.3
		c-6-2.4-10.5-6.8-14.7-11.5c-15.2-17.1-26.1-36.9-36.3-57.1c-2.8-5.6-5.3-11.3-7.7-17.1c-2.5-5.9-0.9-10.8,3.9-12.8
		c4.9-2.1,9.3,0.3,11.9,6.1c8.1,18.7,17.9,36.5,30.7,52.4c3.3,4.1,7,7.9,11.1,11.4c6.3,5.3,13.3,8.2,21.8,8
		c11.2-0.3,22.5-0.3,33.6,0.2c19.7,1,36.5,17.9,37.9,37.6c0.8,11.4,0.4,22.9,0.2,34.4c-0.1,6.3-4.7,10.4-11,10.5
		c-7.9,0.1-7.9,0.1-7.9-7.8c0-10.3,0-20.5,0-30.8c0-2.6-0.5-4.8-3.5-4.8c-3.1,0-3.4,2.3-3.4,4.9c0,11.7-0.1,23.4,0.1,35.1
		c0,2.6-0.5,3.5-3.3,3.5C312.8,253.7,304.8,253.8,296.7,253.8z"/>
	<path class="st0" d="M84.6,253.8c-8.1,0-16.2-0.1-24.2,0.1c-2.6,0.1-3.2-0.7-3.1-3.2c0.1-11.7,0-23.4,0.1-35.1
		c0-2.7-0.4-5.1-3.6-5.1c-3.2,0-3.6,2.6-3.6,5.2c0,11.5-0.1,22.9,0.1,34.4c0.1,3.4-1,4.2-4,3.8c-1.3-0.2-2.7,0-4,0
		c-5.7-0.1-10.6-3.9-10.8-9.6c-0.3-12-1.2-24.2,0.3-36.1c3-22.7,19.9-37,42.9-37.1c8.9,0,17.9-0.4,26.8,0.1
		c10.6,0.6,18.9-3.5,26.3-10.5c11.3-10.8,19.6-23.7,27.2-37.2c4.6-8.2,8.7-16.6,12.3-25.2c1.5-3.7,4.4-5.7,8.4-5.7
		c3.5,0,6.6,2.5,7.8,6c0.7,2,0.6,4-0.3,6c-11.2,26.6-24.7,51.9-43.3,74.2c-4.8,5.7-10.2,11-17.4,13.7c-2.6,1-2.6,3.1-2.6,5.3
		c0,14.2-0.2,28.5,0.1,42.7c0.2,9-5,14.1-13.7,13.6C99.1,253.5,91.8,253.8,84.6,253.8z"/>
	<path class="st0" d="M232.8,120.2c-4.6-8.1-8.4-16-11.8-24c-3.1-7.2-8.2-10.8-15.1-10.7c-7.1,0.1-12.2,4-15.1,11.7
		c-1.7-4.1-3.9-7.6-7.7-9.8c-8.3-4.6-18.3-1.2-22.2,7.9c-3.6,8.4-7.5,16.6-12.2,25c-10.3-14.1-20.6-27.7-22.6-45.5
		c-1.7-14.7,7.5-27.2,22-30.2c12.1-2.5,22.3,1.1,30.5,10.4c3.1,3.5,6,7.3,9.1,10.8c2.4,2.8,4.2,2.7,6.5-0.1c3-3.6,6-7.3,9-10.8
		c13.3-15.5,37.4-14.7,48.4,1.7c5.8,8.6,5.1,17.8,2.2,27C249.4,97.2,241.5,108.7,232.8,120.2z"/>
	<path class="st0" d="M260,136.2c0-15.2,12.8-27.9,27.9-27.8c15.1,0.1,27.6,12.8,27.6,27.8c0,15.2-12.8,27.9-28,27.7
		C272.5,163.9,260,151.3,260,136.2z"/>
	<path class="st0" d="M121.2,135.7c0.4,15-11.8,27.8-27,28.2c-14.8,0.4-27.9-11.9-28.3-26.5c-0.4-15.7,11.5-28.5,27-29
		C108,107.9,120.8,120.3,121.2,135.7z"/>
	<path class="st0" d="M204.1,282.3c3.7-5.9,8-9.4,13.6-10.2c10.3-1.5,20.7-1.6,30.9,0c10.4,1.6,17.7,11.6,17,21.9
		c-0.8,11-9.5,19.8-20.3,20.1c-8.3,0.2-16.6,0.2-24.9-0.1c-6.8-0.3-11.8-4-15.5-9.9c5.6,0.9,10.9-1.1,16.5-0.5
		c8,0.8,16.1,0.6,24.2,0.1c6.2-0.4,9.9-5.8,9.4-11.9c-0.4-5.5-5-9.6-11.1-9.6c-7.2,0-14.5-0.5-21.7,0.2
		C216.4,282.7,210.8,281.1,204.1,282.3z"/>
	<path class="st0" d="M177.1,303.7c-4.2,6.2-9.3,9.9-16.1,10.2c-7.8,0.4-15.7,0.3-23.5,0.2c-11.2-0.1-20.7-8.2-21.6-18.4
		c-1.1-12.1,6-22.4,17.9-23.9c9.8-1.2,19.7-1.3,29.5,0.3c5.8,0.9,10.2,4.3,13.8,10.1c-6.4-0.8-11.9,0.4-17.6,0
		c-7.4-0.6-14.9-0.2-22.4-0.1c-6,0.1-10.6,4.5-10.9,10.3c-0.3,5.8,4.2,11.3,10.3,11.3c8.8,0.1,17.5,0.6,26.3-0.5
		C167.2,302.6,171.8,304,177.1,303.7z"/>
	<path class="st0" d="M190.7,104.8c5.4,13.4,11.6,26.1,18.5,38.4c1.1,1.9,0.9,3-0.7,4.6c-10.1,10.4-26.4,10.1-36.2-0.6
		c-0.9-0.9-1.5-1.6-0.7-3C178.8,131.5,185.1,118.5,190.7,104.8z"/>
	<path class="st0" d="M190.4,296.5c-7,0-14-0.1-21,0c-2.7,0-4.7-0.8-4.9-3.6c-0.2-3,2.1-4.1,4.8-4.1c14.2,0,28.4,0,42.7,0
		c2.6,0,4.7,0.9,4.7,3.8c0,3.1-2.2,3.9-4.9,3.9C204.7,296.5,197.6,296.5,190.4,296.5z"/>
	<path class="st0" d="M146.7,296.6c-3,0-6,0-9,0c-2.6,0-4.2-1.2-4.3-3.8c-0.1-2.4,1.5-3.8,3.9-3.9c6.4-0.1,12.7,0,19.1-0.1
		c1.3,0,1.5,0.6,1.5,1.8c-0.1,6-0.1,6-6.4,6C149.8,296.6,148.2,296.6,146.7,296.6z"/>
	<path class="st0" d="M223.6,296.6c0.1-1.3,0.4-2.5,0.2-3.4c-1-4.3,1.2-4.6,4.6-4.4c4.8,0.3,9.6,0.1,14.5,0.1c2.7,0,5.1,0.8,5.1,3.9
		c0,3.2-2.3,4-5.2,3.9C236.3,296.5,230,296.6,223.6,296.6z"/>
</g>
</svg>
