<?xml version="1.0" encoding="utf-8"?>
<!-- Generator: Adobe Illustrator 23.0.0, SVG Export Plug-In . SVG Version: 6.00 Build 0)  -->
<svg version="1.1" id="Layer_1" xmlns="http://www.w3.org/2000/svg" xmlns:xlink="http://www.w3.org/1999/xlink" x="0px" y="0px"
	 viewBox="0 0 381.1 383.4" style="enable-background:new 0 0 381.1 383.4;" xml:space="preserve">
<style type="text/css">
	.st0{fill:"currentColor";}
</style>
<g>
	<path class="st0" d="M755,308.8c-7.6,0-15.2,0-22.8,0c-8.2,0-12.4-4.3-12.4-12.5c0-14.5-0.1-29,0.1-43.4c0-3.3-1-5.1-4.1-6.3
		c-6-2.4-10.5-6.8-14.7-11.5c-15.2-17.1-26.1-36.9-36.3-57.1c-2.8-5.6-5.3-11.3-7.7-17.1c-2.5-5.9-0.9-10.8,3.9-12.8
		c4.9-2.1,9.3,0.3,11.9,6.1c8.1,18.7,17.9,36.5,30.7,52.4c3.3,4.1,7,7.9,11.1,11.4c6.3,5.3,13.3,8.2,21.8,8
		c11.2-0.3,22.5-0.3,33.6,0.2c19.7,1,36.5,17.9,37.9,37.6c0.8,11.4,0.4,22.9,0.2,34.4c-0.1,6.3-4.7,10.4-11,10.5
		c-7.9,0.1-7.9,0.1-7.9-7.8c0-10.3,0-20.5,0-30.8c0-2.6-0.5-4.8-3.5-4.8c-3.1,0-3.4,2.3-3.4,4.9c0,11.7-0.1,23.4,0.1,35.1
		c0,2.6-0.5,3.5-3.3,3.5C771.2,308.7,763.1,308.8,755,308.8z"/>
	<path class="st0" d="M542.9,308.8c-8.1,0-16.2-0.1-24.2,0.1c-2.6,0.1-3.2-0.7-3.1-3.2c0.1-11.7,0-23.4,0.1-35.1
		c0-2.7-0.4-5.1-3.6-5.1c-3.2,0-3.6,2.6-3.6,5.2c0,11.5-0.1,22.9,0.1,34.4c0.1,3.4-1,4.2-4,3.8c-1.3-0.2-2.7,0-4,0
		c-5.7-0.1-10.6-3.9-10.8-9.6c-0.3-12-1.2-24.2,0.3-36.1c3-22.7,19.9-37,42.9-37.1c8.9,0,17.9-0.4,26.8,0.1
		c10.6,0.6,18.9-3.5,26.3-10.5c11.3-10.8,19.6-23.7,27.2-37.2c4.6-8.2,8.7-16.6,12.3-25.2c1.5-3.7,4.4-5.7,8.4-5.7
		c3.5,0,6.6,2.5,7.8,6c0.7,2,0.6,4-0.3,6c-11.2,26.6-24.7,51.9-43.3,74.2c-4.8,5.7-10.2,11-17.4,13.7c-2.6,1-2.6,3.1-2.6,5.3
		c0,14.2-0.2,28.5,0.1,42.7c0.2,9-5,14.1-13.7,13.6C557.4,308.5,550.1,308.8,542.9,308.8z"/>
	<path class="st0" d="M691.1,175.2c-4.6-8.1-8.4-16-11.8-24c-3.1-7.2-8.2-10.8-15.1-10.7c-7.1,0.1-12.2,4-15.1,11.7
		c-1.7-4.1-3.9-7.6-7.7-9.8c-8.3-4.6-18.3-1.2-22.2,7.9c-3.6,8.4-7.5,16.6-12.2,25c-10.3-14.1-20.6-27.7-22.6-45.5
		c-1.7-14.7,7.5-27.2,22-30.2c12.1-2.5,22.3,1.1,30.5,10.4c3.1,3.5,6,7.3,9.1,10.8c2.4,2.8,4.2,2.7,6.5-0.1c3-3.6,6-7.3,9-10.8
		c13.3-15.5,37.4-14.7,48.4,1.7c5.8,8.6,5.1,17.8,2.2,27C707.7,152.2,699.8,163.7,691.1,175.2z"/>
	<path class="st0" d="M718.3,191.2c0-15.2,12.8-27.9,27.9-27.8c15.1,0.1,27.6,12.8,27.6,27.8c0,15.2-12.8,27.9-28,27.7
		C730.8,218.9,718.3,206.3,718.3,191.2z"/>
	<path class="st0" d="M579.5,190.7c0.4,15-11.8,27.8-27,28.2c-14.8,0.4-27.9-11.9-28.3-26.5c-0.4-15.7,11.5-28.5,27-29
		C566.3,163,579.1,175.3,579.5,190.7z"/>
	<path class="st0" d="M662.4,337.3c3.7-5.9,8-9.4,13.6-10.2c10.3-1.5,20.7-1.6,30.9,0c10.4,1.6,17.7,11.6,17,21.9
		c-0.8,11-9.5,19.8-20.3,20.1c-8.3,0.2-16.6,0.2-24.9-0.1c-6.8-0.3-11.8-4-15.5-9.9c5.6,0.9,10.9-1.1,16.5-0.5
		c8,0.8,16.1,0.6,24.2,0.1c6.2-0.4,9.9-5.8,9.4-11.9c-0.4-5.5-5-9.6-11.1-9.6c-7.2,0-14.5-0.5-21.7,0.2
		C674.7,337.7,669.1,336.2,662.4,337.3z"/>
	<path class="st0" d="M635.4,358.7c-4.2,6.2-9.3,9.9-16.1,10.2c-7.8,0.4-15.7,0.3-23.5,0.2c-11.2-0.1-20.7-8.2-21.6-18.4
		c-1.1-12.1,6-22.4,17.9-23.9c9.8-1.2,19.7-1.3,29.5,0.3c5.8,0.9,10.2,4.3,13.8,10.1c-6.4-0.8-11.9,0.4-17.6,0
		c-7.4-0.6-14.9-0.2-22.4-0.1c-6,0.1-10.6,4.5-10.9,10.3c-0.3,5.8,4.2,11.3,10.3,11.3c8.8,0.1,17.5,0.6,26.3-0.5
		C625.5,357.6,630.1,359,635.4,358.7z"/>
	<path class="st0" d="M649,159.8c5.4,13.4,11.6,26.1,18.5,38.4c1.1,1.9,0.9,3-0.7,4.6c-10.1,10.4-26.4,10.1-36.2-0.6
		c-0.9-0.9-1.5-1.6-0.7-3C637.1,186.5,643.4,173.5,649,159.8z"/>
	<path class="st0" d="M648.7,351.6c-7,0-14-0.1-21,0c-2.7,0-4.7-0.8-4.9-3.6c-0.2-3,2.1-4.1,4.8-4.1c14.2,0,28.4,0,42.7,0
		c2.6,0,4.7,0.9,4.7,3.8c0,3.1-2.2,3.9-4.9,3.9C663,351.5,655.9,351.6,648.7,351.6z"/>
	<path class="st0" d="M605,351.6c-3,0-6,0-9,0c-2.6,0-4.2-1.2-4.3-3.8c-0.1-2.4,1.5-3.8,3.9-3.9c6.4-0.1,12.7,0,19.1-0.1
		c1.3,0,1.5,0.6,1.5,1.8c-0.1,6-0.1,6-6.4,6C608.1,351.6,606.5,351.6,605,351.6z"/>
	<path class="st0" d="M681.9,351.6c0.1-1.3,0.4-2.5,0.2-3.4c-1-4.3,1.2-4.6,4.6-4.4c4.8,0.3,9.6,0.1,14.5,0.1c2.7,0,5.1,0.8,5.1,3.9
		c0,3.2-2.3,4-5.2,3.9C694.7,351.5,688.3,351.6,681.9,351.6z"/>
</g>
<g>
	<path class="st0" d="M284.2,115.2c0-2.6-0.9-3.7-3.2-4.7c-20.9-8.4-39.7-20.1-55.6-36c-1.2-1.2-2.4-1.7-4.1-1.7
		c-20.5,0-41,0-61.5,0c-1.7,0-2.9,0.5-4.1,1.7c-16,16-34.8,27.6-55.6,36.1c-2.3,1-3.3,2-3.3,4.6c0.1,19.9,0.2,39.8,0.1,59.7
		c-0.1,21.1,5.4,40.7,16.2,58.7c18.5,30.8,45.4,52.7,76,70.5c1.3,0.8,2.2,0.5,3.3-0.2c27.5-15.9,51.9-35.4,70.2-61.8
		c13.6-19.5,21.5-41,21.6-65c0-8.9,0-17.9,0-26.8h0C284.2,138.6,284.1,126.9,284.2,115.2z M241.6,169.2c-2.5,2.7-5.4,5.2-8.1,7.8
		c-16,15.4-32,30.8-48,46.1c-6.9,6.6-12.2,6.5-18.9-0.2c-8.8-8.8-17.5-17.6-26.4-26.3c-2.2-2.2-3.6-4.8-3.6-7
		c-0.1-5.4,2.4-9.3,6.4-11c4.5-1.9,8.6-1,12,2.3c6.3,6.1,12.6,12.3,18.7,18.7c2,2.1,3,2.3,5.2,0.1c15.3-14.9,30.7-29.6,46.1-44.4
		c2.2-2.1,4.6-3.8,7.8-4c4.7-0.2,8.2,1.6,10.4,5.8C245.2,160.9,244.6,165.9,241.6,169.2z"/>
	<path class="st0" d="M345.4,74.2c0-5.8-3.2-9.8-8.8-11.1c-6.1-1.5-12.2-2.6-18.2-4.3c-25.2-7.3-46.9-19.8-61.7-42.3
		c-2.2-3.4-5.5-4.8-9.6-4.7c-18.8,0-37.6,0-56.5,0c-18.5,0-36.9,0.1-55.4-0.1c-5.4-0.1-9.2,1.9-12,6.4c-6,9.2-13.7,16.8-22.7,23.1
		C84.4,52.5,66.3,58.9,47,62.5c-8.3,1.5-11.5,5.1-11.5,13.4c0,33.7,0,67.3,0,101c0,25.2,5.5,49.1,16.2,71.9
		c14.2,30.2,35.2,55.1,60.7,76.3c22,18.3,45.7,34.1,72.6,44.5c3.9,1.5,7.4,1.5,11.1-0.1c51-21.8,92.9-54.9,122.8-102
		c16.5-26,25.8-54.6,26.3-85.5C345.8,146.1,345.4,110.2,345.4,74.2z M280.8,253.6c-21.9,31.6-51.1,54.7-84.8,72.7
		c-3.6,1.9-7.3,2-11,0c-33.3-17.6-62.1-40.4-84-71.4c-17-24-26.1-50.7-25.8-80.3c0.2-22.9,0-45.8,0.1-68.8c0-6.7,2.3-10,8.6-12.2
		c23.2-8.1,43.7-20.4,60.6-38.5c2.4-2.5,5.2-3.7,8.7-3.7c24.8,0.1,49.7,0.1,74.5,0c3.6,0,6.5,1.2,9,3.8
		c16.6,17.9,36.9,29.9,59.6,38.2c7.6,2.8,9.4,5.3,9.4,13.3c0,12.6,0,25.1,0,37.6c0,10-0.1,20,0,30
		C306.1,203.5,297.3,229.8,280.8,253.6z"/>
	<path class="st0" d="M284.2,115.2c0-2.6-0.9-3.7-3.2-4.7c-20.9-8.4-39.7-20.1-55.6-36c-1.2-1.2-2.4-1.7-4.1-1.7
		c-20.5,0-41,0-61.5,0c-1.7,0-2.9,0.5-4.1,1.7c-16,16-34.8,27.6-55.6,36.1c-2.3,1-3.3,2-3.3,4.6c0.1,19.9,0.2,39.8,0.1,59.7
		c-0.1,21.1,5.4,40.7,16.2,58.7c18.5,30.8,45.4,52.7,76,70.5c1.3,0.8,2.2,0.5,3.3-0.2c27.5-15.9,51.9-35.4,70.2-61.8
		c13.6-19.5,21.5-41,21.6-65c0-8.9,0-17.9,0-26.8h0C284.2,138.6,284.1,126.9,284.2,115.2z M241.6,169.2c-2.5,2.7-5.4,5.2-8.1,7.8
		c-16,15.4-32,30.8-48,46.1c-6.9,6.6-12.2,6.5-18.9-0.2c-8.8-8.8-17.5-17.6-26.4-26.3c-2.2-2.2-3.6-4.8-3.6-7
		c-0.1-5.4,2.4-9.3,6.4-11c4.5-1.9,8.6-1,12,2.3c6.3,6.1,12.6,12.3,18.7,18.7c2,2.1,3,2.3,5.2,0.1c15.3-14.9,30.7-29.6,46.1-44.4
		c2.2-2.1,4.6-3.8,7.8-4c4.7-0.2,8.2,1.6,10.4,5.8C245.2,160.9,244.6,165.9,241.6,169.2z"/>
	<path class="st0" d="M284.2,115.2c0-2.6-0.9-3.7-3.2-4.7c-20.9-8.4-39.7-20.1-55.6-36c-1.2-1.2-2.4-1.7-4.1-1.7
		c-20.5,0-41,0-61.5,0c-1.7,0-2.9,0.5-4.1,1.7c-16,16-34.8,27.6-55.6,36.1c-2.3,1-3.3,2-3.3,4.6c0.1,19.9,0.2,39.8,0.1,59.7
		c-0.1,21.1,5.4,40.7,16.2,58.7c18.5,30.8,45.4,52.7,76,70.5c1.3,0.8,2.2,0.5,3.3-0.2c27.5-15.9,51.9-35.4,70.2-61.8
		c13.6-19.5,21.5-41,21.6-65c0-8.9,0-17.9,0-26.8h0C284.2,138.6,284.1,126.9,284.2,115.2z M241.6,169.2c-2.5,2.7-5.4,5.2-8.1,7.8
		c-16,15.4-32,30.8-48,46.1c-6.9,6.6-12.2,6.5-18.9-0.2c-8.8-8.8-17.5-17.6-26.4-26.3c-2.2-2.2-3.6-4.8-3.6-7
		c-0.1-5.4,2.4-9.3,6.4-11c4.5-1.9,8.6-1,12,2.3c6.3,6.1,12.6,12.3,18.7,18.7c2,2.1,3,2.3,5.2,0.1c15.3-14.9,30.7-29.6,46.1-44.4
		c2.2-2.1,4.6-3.8,7.8-4c4.7-0.2,8.2,1.6,10.4,5.8C245.2,160.9,244.6,165.9,241.6,169.2z"/>
</g>
</svg>
