<?xml version="1.0" encoding="utf-8"?>
<!-- Generator: Adobe Illustrator 23.0.0, SVG Export Plug-In . SVG Version: 6.00 Build 0)  -->
<svg version="1.1" id="Layer_1" xmlns="http://www.w3.org/2000/svg" xmlns:xlink="http://www.w3.org/1999/xlink" x="0px" y="0px"
	 viewBox="0 0 501.1 449.3" style="enable-background:new 0 0 501.1 449.3;" xml:space="preserve">
<style type="text/css">
	.st0{fill:"currentColor";}
</style>
<g>
	<path class="st0" d="M356.4,403.4c0,0.2-0.1,0.4-0.1,0.6c-70.5,0-141,0-211.5,0c-0.1-0.2-0.1-0.4-0.1-0.6c1.8-1.8,4.1-1.3,6.2-1.3
		c28.6,0,57.2,0,85.8,0c37.8,0,75.5,0,113.3,0C352,402.2,354.5,401.6,356.4,403.4z"/>
	<path class="st0" d="M435.2,345.4c0.2,0,0.5,0,0.7,0c0,1.4,0,2.9,0,4.3c-0.2,0.1-0.4,0.1-0.6,0.1C434,348.4,434,346.9,435.2,345.4z
		"/>
	<path class="st0" d="M268.4,258.5c-4.4-2.9-5.7-5.9-5.2-11.4c2.3-27.5,3.3-55.1,3.2-82.8c0.1-27.6-0.8-55.2-3.2-82.8
		c-0.5-5.5,0.8-8.5,5.2-11.4c4.7-3,8.1-7.5,10.4-12.7c2.8-6.2,3.2-12.4-1.3-18c-4.4-5.6-10.6-6.7-17.3-5.9
		c-9.9,1.2-17.8,6.4-24.7,13.2c-1.8,1.7-3.4,2.2-5.7,1.7c-5.6-1.3-11.2-2.7-16.9-3.9c-16.6-3.5-33.3-4.9-50.3-2.7
		c-11.3,1.4-22.3,3.7-33.2,6.4c-2.8,0.7-4.8,0.4-7-1.9c-6.6-6.8-14.5-11.5-24.1-12.8c-6.8-0.9-13.1,0.3-17.6,6.1
		c-4.4,5.7-3.7,11.9-0.9,18.1C83,64.4,88.2,69,94,73.1c1.4,1,1.9,1.9,1.7,3.7c-1.1,15.9-2.3,31.8-2.9,47.7
		c-1.6,42.5-0.6,84.9,2.9,127.3c0.2,2-0.4,2.9-2,4c-6.9,4.9-12.8,10.6-15.2,19.1c-2.7,9.6,2.2,18,11.9,19.9
		c10.6,2.1,20.2-1.6,27.5-8.7c5.8-5.6,11-5.9,18.2-4.1c15.9,4.2,32.1,6.6,48.6,5.9c15.1-0.6,29.8-3.8,44.4-7.3
		c2.9-0.7,4.8-0.3,7,1.8c6.8,6.6,14.6,11.4,24.2,12.7c6.7,0.9,12.9-0.2,17.3-5.8c4.5-5.6,4.1-11.8,1.3-18
		C276.5,266,273.1,261.6,268.4,258.5z M239.7,194.7c0,7.5-1.7,9.3-9.5,9.3H127.8c-6.9,0-9-2.1-9-9.1v-61.2c0-6.7,2.1-8.9,8.8-8.9
		c34.4,0,68.8,0,103.2,0c6.9,0,8.9,2,8.9,8.7V194.7z"/>
	<path class="st0" d="M435.2,345.4c0,1.5,0.1,3,0.1,4.5c-0.9,2.9-3,4.2-5.9,4.5c-1.3,0.1-2.7,0.1-4,0.1c-116.6,0-233.2,0-349.8,0
		c-1.6,0-3.1,0-4.7-0.2c-3.2-0.4-5.5-2.9-5.8-6c-0.2-3,1.8-5.8,4.9-6.7c0.5-0.1,0.9-0.2,1.4-0.3c2-0.3,4.7,0.9,5.9-0.5
		c1.3-1.7,0.4-4.4,0.4-6.7c0.1-4.2-0.1-8.5,0.1-12.7c0.1-4.9,2.3-7,7.1-7.2c1,0,1.9,0,2.9,0c108.4,0,216.8,0,325.1,0
		c1.1,0,2.2,0,3.3,0c4.4,0.2,6.6,2.3,6.8,6.8c0.2,5.1,0.1,10.1,0.1,15.2c0,5,0,5,4.9,5C431.3,341.2,434,342,435.2,345.4z"/>
	<path class="st0" d="M333.3,123.8c-12.4,0-24.9,0-37.3,0c-5.7,0-7.9-2.2-7.9-7.9c0-10.6,0-21.2,0-31.9c0-5.4,2.5-8,8-8
		c24.9,0,49.7,0,74.6,0c5.3,0,7.9,2.7,7.9,8.1c0,10.6,0,21.2,0,31.9c0,5.4-2.4,7.8-7.7,7.8C358.5,123.8,345.9,123.8,333.3,123.8z"/>
	<path class="st0" d="M250.9,365.9c44.3,0,88.6,0,132.9,0c1.1,0,2.2-0.1,3.3,0c4,0.3,6.8,3,6.8,6.6c0,3.5-2.8,6.3-6.7,6.8
		c-1.1,0.1-2.2,0-3.3,0c-89,0-177.9,0-266.9,0c-1.9,0-3.9,0.2-5.7-0.7c-2.8-1.3-4.3-3.5-4.1-6.6c0.2-2.9,1.8-4.9,4.7-5.8
		c1.5-0.5,3.1-0.4,4.7-0.4C161.3,365.9,206.1,365.9,250.9,365.9z"/>
	<path class="st0" d="M358.8,220.8c-14.1,0-28.2-0.1-42.3,0.1c-2.4,0-3-0.6-3-3c0.1-10.3,0-20.5,0.1-30.8c0-5,2.5-7.5,7.6-7.5
		c25,0,49.9,0,74.9,0c5.2,0,7.8,2.5,7.9,7.7c0.1,10.3-0.1,20.5,0.1,30.8c0,2.3-0.7,2.8-2.8,2.8C387,220.8,372.9,220.8,358.8,220.8z"
		/>
	<path class="st0" d="M378,307.7c-14,0-28-0.1-42,0.1c-2.6,0-3.2-0.7-3.1-3.2c0.1-9.5,0-19.1,0.1-28.6c0-5.4,2.3-7.8,7.6-7.8
		c25-0.1,49.9-0.1,74.9,0c5.3,0,7.6,2.4,7.6,7.9c0.1,9.6-0.1,19.3,0.1,28.9c0,2.3-0.7,2.8-2.9,2.8
		C406.2,307.6,392.1,307.7,378,307.7z"/>
	<path class="st0" d="M339.3,138.8c12.3,0,24.6,0,36.9,0c6.2,0,8.2,2.1,8.2,8.2c0,7.7-0.1,15.4,0.1,23.2c0,2.4-0.6,3-3,3
		c-19.7-0.1-39.3-0.1-59-0.1c-8.8,0-12.8,3-15.2,11.2c-0.2,0.6-0.1,1.4-0.9,1.8c-5.9,2.6-12.2-1.4-12.3-7.9c-0.1-10.5,0-21,0-31.5
		c0-5.6,2.3-7.9,7.9-7.9C314.5,138.8,326.9,138.8,339.3,138.8z"/>
	<path class="st0" d="M336.4,227.2c11.8,0,23.7,0.1,35.5-0.1c2.4,0,3.1,0.6,3,3c-0.1,9.5-0.1,19.1,0,28.6c0,2.6-0.8,3.2-3.3,3.2
		c-10.4-0.1-20.8-0.1-31.1,0c-7.7,0-12.2,3.5-13.8,11.1c-0.4,1.8-1.1,2-2.6,2c-7.5,0-15,0.1-22.4,0c-4.7-0.1-7.5-2.7-7.5-7.4
		c-0.1-11-0.1-22,0-32.9c0-4.8,2.6-7.3,7.5-7.3C313.2,227.2,324.8,227.2,336.4,227.2z"/>
	<path class="st0" d="M356.4,403.4c-1.6,0-3.1-0.1-4.7-0.1c-67.9,0-135.8,0-203.8,0c-1.1,0-2.2,0.1-3.2,0.1c-3.9-1.3-5.7-3.7-5.3-7
		c0.4-3.4,3-5.7,6.6-6c1-0.1,1.9,0,2.9,0c67.7,0,135.4,0,203.1,0c1,0,1.9-0.1,2.9,0c3.6,0.3,6.3,2.7,6.7,5.9
		C362,399.7,360.2,402.1,356.4,403.4z"/>
	<path class="st0" d="M423.1,263.5c-3.2-1.6-6.2-1.6-9.2-1.6c-9.9,0-19.8-0.1-29.7,0c-2.1,0-3-0.5-2.9-2.8c0.1-9.9,0.1-19.8,0-29.7
		c0-2,0.7-2.4,2.5-2.3c10.9,0.1,21.7,0,32.6,0.1c4.1,0,6.7,2.3,6.7,6.4C423.2,243.4,423.1,253.2,423.1,263.5z"/>
	<path class="st0" d="M179.2,144.8c10.2,0,20.5,0,30.7,0c4.8,0,7.8,2.5,7.9,6.5c0,4-2.9,6.6-7.8,6.6c-20.4,0-40.7,0-61.1,0
		c-5.1,0-7.7-2.3-7.7-6.5c0-4.3,2.8-6.6,8-6.6C159.2,144.8,169.2,144.8,179.2,144.8z"/>
	<path class="st0" d="M179.6,183.9c-10.3,0-20.5,0-30.8,0c-4.9,0-7.7-2.5-7.6-6.7c0-4,2.8-6.4,7.5-6.4c20.5,0,41,0,61.5,0
		c4.6,0,7.5,2.6,7.6,6.5c0.1,4-3,6.6-7.8,6.6C199.8,183.9,189.7,183.9,179.6,183.9z"/>
</g>
</svg>
