<?xml version="1.0" encoding="utf-8"?>
<!-- Generator: Adobe Illustrator 23.0.0, SVG Export Plug-In . SVG Version: 6.00 Build 0)  -->
<svg version="1.1" id="Layer_1" xmlns="http://www.w3.org/2000/svg" xmlns:xlink="http://www.w3.org/1999/xlink" x="0px" y="0px"
	 viewBox="0 0 403.7 407.5" style="enable-background:new 0 0 403.7 407.5;" xml:space="preserve">
<style type="text/css">
	.st0{fill:"currentColor";}
</style>
<g>
	<path class="st0" d="M392.9,368.2c-3.3-6.5-6.6-13.1-9.8-19.6c-0.4-0.8-1.3-1.5-0.7-2.6c9.9,0.4,17.1-10,11-20.2
		c-2.1-3.5-3.7-7.3-5.5-10.9c-1.9-3.9-3.9-7.8-5.8-11.7c2.2-0.5,4-0.7,5.7-1.3c7.3-2.7,9.9-10.5,6.1-18.2
		c-17.9-35.8-35.9-71.6-53.6-107.4c-3.3-6.7-7.9-9.5-15.3-9.5c-38,0.2-76,0.1-114,0.1c-1.3,0-2.7-0.1-4,0.1
		c-3.1,0.5-4.9,2.4-5.1,5.6c-0.3,4.2,2.5,6.7,7.4,6.7c22.3,0,44.6,0.1,66.9-0.1c2.7,0,3.9,0.9,4.7,3.3c1.7,5.3-0.8,10.6-6.6,12.5
		c-2.9,1-6,1.7-9.1,2.4c-8.7,1.7-17.5,3-25.7,6.8c-13.8,6.4-17.9,22.8-8.6,34.9c5,6.6,12.1,10.2,19.8,12.5
		c10.9,3.3,22.1,2.9,33.3,2.8c8.6-0.1,17.2,0.2,25.3,3.1c13.3,4.8,23.7,12.8,27.4,27.3c1.4,5.4,1.4,5.4-4,5.4
		c-40.9,0-81.8,0-122.7,0c-1,0-1.9,0-2.9,0c-4.2,0.2-6.9,2.8-6.8,6.4c0,3.6,2.8,6.1,7,6.3c1,0,1.9,0,2.9,0c51.4,0,102.7,0,154.1,0
		c2.5,0,3.8,0.7,4.9,3c3.9,8.1,8,16.1,12,24.2c0.5,1,1.4,1.9,1.2,3.5H224.5c-1.2,0-2.4-0.1-3.6,0.1c-3.2,0.4-5.4,3-5.4,6.2
		c0,3.3,2,5.7,5.4,6.1c1.3,0.2,2.6,0.1,4,0.1c46.3,0,92.6,0,138.9-0.1c3.2,0,4.7,1,5.9,3.8c3.9,8.2,8.1,16.3,12.1,24.5
		c0.4,0.8,1.3,1.5,0.6,2.7H235.2c-1.2,0-2.4,0-3.6,0c-2.7,0.1-4.5,1.6-5.4,4c-1,2.4-0.3,4.4,1.3,6.4c0.6,0.7,1.8,0.7,1.9,1.9h157.1
		C396.3,383.9,398,378.4,392.9,368.2z M352.1,290.1c-1.6,0-1.9-0.7-2.1-2.1c-2.9-26.5-26.6-42.6-48.7-45.3
		c-12-1.5-24.1-0.3-36.1-1.3c-7.5-0.6-14.7-2.3-21-6.8c-3.9-2.8-6.3-6.5-5.6-11.4c0.7-4.7,4-7,8.2-8.7c8.7-3.5,18.1-3.9,26.9-6.5
		c1.6-0.5,3.2-0.9,4.8-1.5c11.6-4.1,17.5-15.1,14.5-27.5h10.3c7.2,0,14.5,0,21.7,0c1.7,0,2.7,0.4,3.6,2.1
		c17.8,35.8,35.7,71.6,53.6,107.4c0.2,0.3,0.2,0.6,0.6,1.5C372.3,290.1,362.2,290,352.1,290.1z"/>
	<path class="st0" d="M192.4,389.1c-2.1-1.6-3.4-3.7-4.3-6.3c-15.7-45.5-31.4-91-47.2-136.5c-1.9-5.4-0.7-11-1-16.5
		c-0.1-1.4,1-1.4,2-1.4c5.8,0,11.6,0.1,17.4,0c2.3-0.1,2.3,1.5,2.8,2.9c7.7,22.1,15.4,44.2,23,66.2c9.3,26.8,18.4,53.7,27.9,80.5
		c1.6,4.6,1.3,8-2.4,11C204.5,389.1,198.5,389.1,192.4,389.1z"/>
	<path class="st0" d="M28.9,380.4c3.7-7.6,5.9-15.8,8.7-23.8c14.6-41.8,29-83.6,43.4-125.4c0.7-2,1.4-2.9,3.7-2.8
		c5.3,0.2,10.6,0.2,15.9,0c2.1-0.1,2.6,0.7,2.6,2.7c0.3,7.5-0.7,14.7-3.3,21.9c-15.3,43.3-30.2,86.8-45.1,130.2
		c-0.8,2.5-2.2,4.4-4.2,5.9c-5.8,0-11.6,0-17.4,0c-2.1-0.5-3.7-1.5-4.3-3.6C28.9,383.8,28.9,382.1,28.9,380.4z"/>
	<path class="st0" d="M28.9,385.5c1.4,1.2,2.9,2.4,4.3,3.6C30.8,389,27.6,389.9,28.9,385.5z"/>
	<path class="st0" d="M146.2,135.8c0,13.8-10.8,24.7-24.6,24.8c-13.8,0-24.7-10.9-24.7-24.7c0-13.8,10.8-24.7,24.6-24.8
		C135.3,111.1,146.2,122,146.2,135.8z"/>
	<path class="st0" d="M183.3,87.5c0-8.3-4.8-13.4-12.8-13.4c-32.7-0.1-65.4,0-98,0c-3.6,0-6.6,1.1-9.1,3.6c-3.1,3-3.7,6.8-3.7,10.9
		c0,29.5,0,59.1,0,88.6c0,8.2,0,8.2,8.3,8.2c9.4,0,18.8-0.1,28.2,0c4.2,0,6.6,2.3,6.6,6c0,3.7-2.4,6-6.6,6c-11.2,0.1-22.4,0-33.7,0
		c-1.2,0-2.7-0.5-2.9,1.6c-1.1,11.3,4.9,17.4,14.3,17.1c15.8-0.3,31.6-0.1,47.4-0.1c16.2,0,32.3,0,48.5,0c2.4,0,4.8-0.2,7-1.4
		c4.7-2.6,6.6-6.8,6.6-12c0-6.5,0.5-5.3-5-5.3c-10.5-0.1-21,0-31.5,0c-4.6,0-7.2-2.9-6.6-7c0.5-3.1,2.9-4.9,6.9-5
		c10.1-0.1,20.3,0,30.4,0c5.8,0,5.8,0,5.8-5.6v-51.4C183.3,114.8,183.4,101.2,183.3,87.5z M121.6,172.7c-20.5,0-37-16.4-37-36.8
		c0-20.4,16.6-37.1,36.9-37.1c20.3,0,37,16.6,37,36.9C158.4,156.3,142,172.7,121.6,172.7z"/>
	<path class="st0" d="M133.8,291.6c0,19.5,0,39,0,58.6c0,6.2-1.9,8.1-8.3,8.1c-3.1,0-6.3,0.1-9.4,0c-4.9-0.2-7-2.3-7-7.2
		c0-40,0-80-0.1-120c0-2.4,0.8-2.7,2.9-2.7c6.3,0.1,12.5,0.2,18.8,0c2.6-0.1,3.1,0.7,3.1,3.2C133.8,251.6,133.8,271.6,133.8,291.6z"
		/>
	<path class="st0" d="M123.5,18.5c6.7,0.5,15.1-1,23.3,0.7c13.3,2.7,23.2,14.3,24,28c0.2,2.8,0.2,5.6,0.1,8.3
		c-0.2,3.8-2.4,6.1-6.1,6.2c-4.1,0.2-8.2,0.2-12.3,0c-3.8-0.1-6.1-2.7-6.3-6.5c0-0.6,0-1.2,0-1.8c0-9-1.3-10.3-10.2-10.3
		c-10.4,0-20.7,0-31.1,0c-5.9,0-8,2.1-8,8.1c0,1.3,0,2.7,0,4c-0.2,3.9-2.5,6.4-6.3,6.5c-4.1,0.2-8.2,0.2-12.3,0
		c-3-0.1-5.5-1.7-5.9-4.8c-2.2-17.6,5.3-32.3,22.9-37.6c2.3-0.7,4.7-1,7.1-0.9C108.8,18.6,115.3,18.5,123.5,18.5z"/>
	<path class="st0" d="M146.2,135.8c0,13.8-10.8,24.7-24.6,24.8c-13.8,0-24.7-10.9-24.7-24.7c0-13.8,10.8-24.7,24.6-24.8
		C135.3,111.1,146.2,122,146.2,135.8z"/>
	<path class="st0" d="M146.2,135.8c0,13.8-10.8,24.7-24.6,24.8c-13.8,0-24.7-10.9-24.7-24.7c0-13.8,10.8-24.7,24.6-24.8
		C135.3,111.1,146.2,122,146.2,135.8z"/>
</g>
</svg>
