<?xml version="1.0" encoding="utf-8"?>
<!-- Generator: Adobe Illustrator 23.0.0, SVG Export Plug-In . SVG Version: 6.00 Build 0)  -->
<svg version="1.1" id="Layer_1" xmlns="http://www.w3.org/2000/svg" xmlns:xlink="http://www.w3.org/1999/xlink" x="0px" y="0px"
	 viewBox="0 0 501.1 449.3" style="enable-background:new 0 0 501.1 449.3;" xml:space="preserve">
<style type="text/css">
	.st0{fill:"currentColor";}
</style>
<g>
	<path class="st0" d="M469.7,64.5c0-3.2-0.8-4.3-4.2-4.3c-41.4,0.1-82.9,0.1-124.3,0c-3.3,0-4.2,1.1-4.1,4.3
		c0.1,44.3,0.1,88.6,0,132.8c0,3.2,0.9,4.3,4.2,4.3c10.5-0.2,21-0.1,31.5-0.1c0-10.3,0.1-20.6,0-31c-0.1-3.4,0.9-4.7,4.5-4.6
		c17.5,0.2,35,0.2,52.4,0c3.6,0,4.5,1.2,4.5,4.6c-0.2,10.3,0,20.6,0,30.9v0h0c10.5,0,21-0.1,31.5,0.1c3.3,0.1,4.2-1.1,4.2-4.3
		C469.6,153,469.6,108.8,469.7,64.5z M381.4,139.7c-8.9,0-8.9,0-8.9-8.9c0-9,0-9,8.8-9s8.8,0,8.8,8.9
		C390.1,139.7,390.1,139.7,381.4,139.7z M381.1,104.5c-8.6,0-8.6,0-8.6-8.7c0-9.1,0-9.1,9.1-9.1c8.6,0,8.6,0,8.6,8.6
		C390.1,104.5,390.1,104.5,381.1,104.5z M425.5,139.7c-8.9,0-8.9,0-8.9-8.8c0-9.1,0-9.1,9.2-9.1c8.4,0,8.4,0,8.4,9.4
		C434.3,139.7,434.3,139.7,425.5,139.7z M425.5,104.5c-8.8,0-8.8,0-8.8-8.9c0-8.9,0-8.9,8.8-8.9c8.8,0,8.8,0,8.8,8.8
		C434.3,104.5,434.3,104.5,425.5,104.5z"/>
	<path class="st0" d="M284.2,276.5c0-3.3-0.7-4.6-4.3-4.6c-32.3,0.1-64.6,0.1-97,0c-3.9,0-4.7,1.2-4.7,4.9c0.2,19,0.1,38,0.1,57
		c0,19.2,0.1,38.3-0.1,57.5c0,3.4,0.8,4.5,4.4,4.5c32.5-0.1,65-0.1,97.5,0c3.4,0,4.1-1.1,4.1-4.3
		C284.1,353.1,284.1,314.8,284.2,276.5z M213.7,369.1c-8.8,0-8.8,0-8.8-8.8c0-8.8,0-8.8,8.8-8.8c9,0,9,0,9,8.7
		C222.6,369.1,222.6,369.1,213.7,369.1z M213.9,316.3c-9,0-9,0-9-9.2c0-8.5,0-8.5,8.6-8.5c9.1,0,9.1,0,9.1,9.1
		C222.6,316.3,222.6,316.3,213.9,316.3z M248.5,369.1c-8.5,0-8.5,0-8.5-8.3c0-9.3,0-9.3,9.4-9.3c8.5,0,8.5,0,8.5,8.2
		C257.9,369.1,257.9,369.1,248.5,369.1z M249.1,316.3c-9.1,0-9.1,0-9.1-9.1c0-8.6,0-8.6,9-8.6c8.8,0,8.8,0,8.8,8.8
		C257.9,316.3,257.9,316.3,249.1,316.3z"/>
	<path class="st0" d="M302,198c0,2.9-1,3.6-3.8,3.6c-13.4-0.1-26.9-0.1-40.4-0.1c0-13.1-0.1-26.2,0.1-39.4c0-3.5-1.1-4.6-4.5-4.5
		c-8.6,0.2-17.3,0.2-25.9,0c-3.7-0.1-4.9,1.1-4.8,4.8c0.2,12.8,0,25.6,0,38.3c0.1,0.1,0.1,0.2,0.2,0.3c0,0,0,0,0,0
		c-0.1,0-0.2,0-0.3,0c-13.5,0.4-27.1,0-40.6,0.2c-2.5,0-3.5-0.7-3.5-3.4c0.1-27.1,0.1-54.2,0-81.4c0-2.1,0.7-3.1,2.1-3.7
		c0.2-0.1,0.5-0.2,0.8-0.2c0.3-0.1,0.7-0.1,1-0.2c1.7-0.2,3.3-0.2,5-0.2c35.4,0,70.9,0,106.3,0c2.1,0,4.2-0.2,6.2,0.5
		c0.3,0.1,0.5,0.2,0.7,0.3c0.4,0.2,0.9,0.4,1.3,0.7C301.8,141.9,301.8,169.9,302,198z"/>
	<path class="st0" d="M105.9,169.9c1.9,2.4,1.9,5.2,1.9,8.1c0,14.8,0.2,29.7-0.1,44.5c-0.1,4.8,1.5,5.6,5.8,5.6
		c67.3-0.1,134.6-0.1,201.9-0.1c10.5,0,12.9,2.4,12.9,13c0,38,0.1,76-0.1,113.9c0,4.6,1.3,5.9,5.8,5.8c13-0.3,26-0.1,39-0.1
		c2.9,5.8,2.9,11.5,0,17.3c-17.3,0-34.6,0.1-51.9,0.1c-7.2,0-10.2-3.2-10.2-10.5c0-38.8-0.1-77.6,0.1-116.4c0-4.3-0.9-5.5-5.4-5.5
		c-67.6,0.2-135.2,0.1-202.8,0.1c-10.1,0-12.7-2.6-12.7-12.7c0-18.5,0-37,0-55.4c0-2.7,0-5.4,1.9-7.5c4.2,1.6,3.8,6.7,6.9,9.2
		C102.2,176.7,100.8,170.9,105.9,169.9z"/>
	<path class="st0" d="M143,392.7c0,2.5-1,3-3.2,3c-10.7-0.1-21.3-0.1-32-0.2c0-13.1-0.1-26.2,0.1-39.3c0-3.4-0.9-4.7-4.4-4.6
		c-9,0.2-17.9,0.2-26.9,0c-3.6-0.1-4.5,1.2-4.5,4.6c0.2,13.1,0.1,26.2,0.1,39.3c-10.7,0-21.3,0-32,0.2c-2.3,0-3.3-0.5-3.3-3
		c0.1-25.3,0.2-50.6,0.3-75.9c0.7-0.4,1.3-0.7,2-0.9c0.3-0.1,0.6-0.2,0.9-0.2c1.6-0.3,3.2-0.3,4.8-0.3h90.6c1.4,0,2.9,0,4.3,0.3
		c0.3,0.1,0.6,0.1,0.9,0.2c0.7,0.2,1.4,0.5,2,1C142.9,342,142.9,367.3,143,392.7z"/>
	<path class="st0" d="M126.6,51.6C110.2,39.5,86.8,39.5,70.7,52c-10.9,8.5-16.6,19.7-15.8,33.8c0.3,5.6,2.3,10.7,4.7,15.7
		c10.8,22.8,21.6,45.7,32.4,68.5c2.9,3.9,3.8,8.9,7.1,13c2.4-4.7,4.6-8.8,6.8-13c0.6-1.5,1.2-3.1,1.9-4.6
		c10.4-21.9,21-43.8,31.3-65.8C147.2,82,142.2,63.1,126.6,51.6z M98.7,104.5c-9.7-0.2-17.8-8.5-17.6-18c0.2-9.7,8.6-17.7,18.2-17.4
		c9.5,0.3,17.3,8.4,17.3,17.8C116.6,96.4,108.3,104.6,98.7,104.5z"/>
	<path class="st0" d="M373,377.8c0-5.8,0-11.5,0-17.3c3.1-10,7.6-19.1,16.1-25.8c14.7-11.5,34-12.9,50-3.5
		c15.3,8.9,23.9,27,21.1,44.1c-3.2,19.2-16.4,33.3-34.9,37.1c-21.3,4.4-43.1-8.1-50.3-29C374.3,381.5,373.6,379.7,373,377.8z"/>
	<path class="st0" d="M411.6,289.7c-17.3,0-34.6-0.1-52,0.1c-4.1,0.1-4.9-1.2-4.8-5c0.2-14.7,0.2-29.3,0-44c0-3.2,0.7-4.2,4.1-4.2
		c35.5,0.1,70.9,0.1,106.4,0c3.5,0,4.5,1,4.4,4.5c-0.2,14.8-0.2,29.6,0,44.5c0,3.2-0.8,4.2-4.2,4.2
		C447.6,289.6,429.6,289.7,411.6,289.7z"/>
	<path class="st0" d="M179.9,112c19.3-16.6,38.6-33.2,57.9-49.8c1.4-1.2,2.5-1.8,4.2-0.3c19.6,17,39.2,34,58.9,50.9
		c-1.2,0.8-2.6,0.5-3.9,0.5c-37.6,0-75.2,0-112.8,0C182.8,113.2,180.8,114.3,179.9,112z"/>
	<path class="st0" d="M38.9,314.8C55,301.4,71.1,288,87.1,274.5c2.1-1.8,3.5-2.2,5.9-0.2c16,13.6,32.1,27,48.1,40.4
		c-0.2,2.1-1.9,1.5-3.1,1.5c-32,0-63.9,0-95.9,0C41,316.2,39.3,317,38.9,314.8z"/>
	<path class="st0" d="M223.1,201.6c-0.4-0.1-0.6-0.2-0.6-0.5c0,0,0,0,0-0.1c0-0.2,0.1-0.4,0.2-0.4c0.1,0.1,0.1,0.2,0.2,0.3
		C223,201.2,223.1,201.4,223.1,201.6z"/>
	<path class="st0" d="M178.8,119.3c0.2,25.3,0.2,50.6,0,75.9c-0.1,4.8,1.5,5.8,5.9,5.7c12.7-0.3,25.3-0.2,38-0.2
		c0.1,0.1,0.1,0.2,0.2,0.3c0.1,0.2,0.2,0.4,0.2,0.6c-13.6,0-27.2,0-40.9,0.2c-3.3,0-4.2-1.1-4.2-4.3c0.1-26.9,0.1-53.8,0.1-80.7
		c0-1.8-0.3-3.8,1.8-4.7c0.4,0.3,0.8,0.5,1.3,0.6c1.5,0.4,3,0.1,4.5,0.1c38,0,76,0,114,0h1.2c0.6,0.1,0.9,0.4,0.8,1
		c-39.1,0-78.3,0.1-117.4-0.1C179.9,113.7,178.8,115,178.8,119.3z"/>
	<path class="st0" d="M38.9,314.8c1.6,1.4,3.5,0.9,5.2,0.9c30.6,0,61.1,0,91.7,0c1.8,0,3.7,0.6,5.2-1c1,0.3,1.6,0.9,1.7,2
		c-35.2,0-70.3,0-105.5,0C37.4,315.7,38,315.1,38.9,314.8z"/>
</g>
</svg>
