<?xml version="1.0" encoding="utf-8"?>
<!-- Generator: Adobe Illustrator 23.0.0, SVG Export Plug-In . SVG Version: 6.00 Build 0)  -->
<svg version="1.1" id="Layer_1" xmlns="http://www.w3.org/2000/svg" xmlns:xlink="http://www.w3.org/1999/xlink" x="0px" y="0px"
	 viewBox="0 0 381.1 344.3" style="enable-background:new 0 0 381.1 344.3;" xml:space="preserve">
<style type="text/css">
	.st0{fill:"currentColor";}
</style>
<g>
	<path class="st0" d="M183.8,167.3c11.2,0,22.4-0.2,33.7,0c13.6,0.2,21.8,12.8,15.9,24.2c-3.4,6.6-9.1,9.3-16.3,9.3
		c-18.3,0-36.7,0.1-55-0.1c-5.2-0.1-7.6,4.3-6.1,7.7c1.1,2.3,3,3.4,5.5,3.4c19.4,0,38.9,0.2,58.3-0.1c7.9-0.1,14.6-3.6,19.8-9.8
		c1.1-1.3,2.3-2.4,3.8-3.3c26.2-14.8,52.3-29.6,78.4-44.4c12.8-7.2,28.4-6.2,39.4,2.4c3.5,2.7,3.5,4.2,0.1,7
		c-37.1,29.9-74.1,59.8-111.2,89.7c-10.3,8.3-22.1,12.4-35.4,12.3c-17.6-0.2-35.2,0-52.8,0c-20.6,0-39.4,5.6-56,17.9
		c-1.7,1.3-2.4,1.2-3.4-0.7c-11-20.5-22.1-41.1-33.2-61.6c-0.7-1.4-1.2-2.3,0.4-3.7C84.4,205,98.9,192,114,179.8
		c10.8-8.8,23.8-12.3,37.7-12.5C162.4,167.1,173.1,167.2,183.8,167.3C183.8,167.3,183.8,167.3,183.8,167.3z"/>
	<path class="st0" d="M98.9,299.4c-15.2-28.2-30.4-56.5-45.7-84.7c-3-5.5-6.4-6.5-11.9-3.6c-9.4,5.1-18.8,10.1-28.2,15.2
		c-5.9,3.2-6.8,6.3-3.5,12.3c4.7,8.8,9.4,17.6,14.1,26.3c10.4,19.3,20.9,38.7,31.3,58c2.6,4.8,6.1,6.3,10.3,4.1
		c10.4-5.4,20.8-11,31.1-16.6c2.5-1.3,4-3.4,3.9-6.5C100.5,302.3,99.7,300.9,98.9,299.4z M68.2,303.9c-4.9,0-9-4-9.1-8.8
		c-0.1-4.9,4.2-9.3,9.1-9.3c4.9,0,8.9,4,9,8.9C77.3,299.8,73.3,303.9,68.2,303.9z"/>
	<path class="st0" d="M243.8,172.5c-6.3-11.3-15.3-16.4-27.3-16.2c-1.3,0-2.2-0.1-2.6-1.7c-7.2-27.9-14.4-55.7-21.7-83.7
		c26.1,0,52,0,78.2,0C261.6,104.5,252.8,138.1,243.8,172.5z"/>
	<path class="st0" d="M253.2,180.5c2.8-10.7,5.3-20.6,7.9-30.6c6.7-25.5,13.4-51.1,20.1-76.6c0.4-1.7,0.7-2.7,2.9-2.7
		c23.1,0.1,46.3,0.1,69.4,0.1c0.5,1.3-0.6,1.8-1.1,2.5c-22.1,29.2-44.2,58.4-66.3,87.6c-0.6,0.8-1.1,1.7-1.9,2.1
		C274,168.7,263.9,174.4,253.2,180.5z"/>
	<path class="st0" d="M108.4,70.7c23.8,0,46.9,0,70.1,0c1.7,0,2.5,0.5,2.9,2.2c6.9,26.8,13.9,53.6,21,80.4c0.6,2.4,0.2,3-2.3,2.9
		c-8.2-0.1-16.4-0.1-24.6,0c-1.7,0-2.8-0.4-3.9-1.9C151,127,130.2,99.7,109.5,72.3C109.3,72,109,71.6,108.4,70.7z"/>
	<path class="st0" d="M265.2,59.5c-22.8,0-45.2,0-68.4,0c2.5-3,4.6-5.5,6.7-8c8.6-10.1,17.1-20.2,25.7-30.3c0.9-1.1,1.6-2.7,3.4-0.5
		c10.5,12.6,21.2,25,31.8,37.5C264.7,58.5,264.9,58.9,265.2,59.5z"/>
	<path class="st0" d="M243.3,16.2c22.4,0,44.1,0,66.5,0c-10.9,13.6-21.6,26.9-32.4,40.2C266.1,43,254.9,29.8,243.3,16.2z"/>
	<path class="st0" d="M153.3,16.1c21.8,0,43.3,0,64.8,0c0.6,1.2-0.4,1.6-0.8,2.2c-10.1,11.9-20.2,23.9-30.4,35.8
		c-1,1.2-1.6,2.6-3.4,0.4c-10-12.5-20-25-30.1-37.4C153.4,16.9,153.4,16.6,153.3,16.1z"/>
	<path class="st0" d="M353.9,59.6c-21.9,0-42.9,0-64.8,0c11-13.7,21.6-26.9,32.4-40.4C332.3,32.6,342.9,45.8,353.9,59.6z"/>
	<path class="st0" d="M141.1,19.3c10.7,13.4,21.3,26.6,32.3,40.3c-21.8,0-42.9,0-64.6,0C119.7,45.9,130.3,32.7,141.1,19.3z"/>
</g>
</svg>
