<?xml version="1.0" encoding="utf-8"?>
<!-- Generator: Adobe Illustrator 23.0.0, SVG Export Plug-In . SVG Version: 6.00 Build 0)  -->
<svg version="1.1" id="Layer_1" xmlns="http://www.w3.org/2000/svg" xmlns:xlink="http://www.w3.org/1999/xlink" x="0px" y="0px"
	 viewBox="0 0 381.1 358" style="enable-background:new 0 0 381.1 358;" xml:space="preserve">
<style type="text/css">
	.st0{fill:"currentColor";}
</style>
<g>
	<path class="st0" d="M69.5,201.5c7.2,0,14.5,0.2,21.7-0.1c3.4-0.2,4,1.2,4.2,4c1.5,17.4,7.5,33.3,18.2,47.1
		c22.2,28.8,51.6,41.9,87.8,38c43.6-4.7,78-38.8,83.8-81.9c1-7.1,1-7.1,8-7.1c13.6,0,27.3,0.1,40.9-0.1c2.8,0,3.6,0.7,3.3,3.4
		c-0.4,3.3,1.4,7.7-0.8,9.7c-1.9,1.6-6.2,0.5-9.4,0.6c-2.2,0-4.3,0-6.5,0c-5.3,0-6.9,1.2-7.9,6.3c-2.3,11.5-6.3,22.4-11.8,32.8
		c-2,3.7-4.3,7.2-6.5,10.9c-2.2,3.7-2,5.7,0.9,8.7c3.5,3.6,7.1,7.2,10.8,10.7c1.4,1.3,1.3,2.1,0,3.4c-8,7.9-15.9,15.8-23.8,23.8
		c-1.3,1.4-2.1,1.3-3.4,0c-3.4-3.6-6.9-7.1-10.5-10.5c-3.2-3.2-5.3-3.5-9-1.1c-13.5,8.9-28.1,15-43.9,18.3c-4.9,1-6,2.5-6,7.8
		c0,4.7-0.1,9.4,0,14.1c0,1.9-0.5,2.5-2.4,2.5c-11.2-0.1-22.4-0.1-33.7,0c-2.3,0-2.5-0.9-2.5-2.8c0.1-4.9,0-9.9,0-14.8
		c0-3.6-1.5-5.8-5.3-6.6c-16.2-3.4-31.2-9.5-45-18.7c-3.1-2.1-5.8-1.6-8.4,1c-3.6,3.6-7.2,7.1-10.7,10.8c-1.3,1.3-2,1.5-3.4,0.1
		c-7.9-8-15.8-15.9-23.8-23.8c-1.6-1.6-1.1-2.4,0.2-3.6c3.6-3.4,7.1-6.9,10.5-10.5c2.9-3,3.2-5.1,0.9-8.7
		c-8.9-13.6-15.2-28.3-18.4-44.3c-0.9-4.3-2.6-5.6-7-5.6c-4.8,0-9.7-0.1-14.5,0.1c-2.5,0.1-3.2-0.7-2.9-3.1c0.4-3.4-1.5-8,0.7-10
		c1.9-1.7,6.4-0.5,9.8-0.6C59.1,201.4,64.3,201.5,69.5,201.5z"/>
	<path class="st0" d="M213,172.6c3.5-5.2,6.6-9.8,9.7-14.4c1.4-2.1,2.5-4.1,1.2-6.7c-1.3-2.7-3.6-3.4-6.3-3.4c-12.2,0-24.4,0-36.6,0
		c-3,0-5.1,1.3-6.7,4c-3.3,6.1-7,12.1-10.4,18.2c-0.9,1.7-1.9,2.4-3.9,2.3c-14.5-0.1-29-0.1-43.4,0c-2.7,0-3.2-0.6-2.6-3.2
		c6.8-32.9,30.3-56.7,63.5-62.4c42.1-7.3,81.7,20.8,89.4,63.3c0.2,1.3,0.4,2.3-1.5,2.3C248.2,172.5,230.9,172.6,213,172.6z"/>
	<path class="st0" d="M218.9,153.7c-9.6,14.2-18.7,27.7-28.1,41.7c14.8,0,29.1,0,44.6,0c-20.8,23.4-41,46-61.1,68.6
		c-0.2-0.1-0.4-0.2-0.6-0.3c5.5-16.8,11-33.6,16.7-50.8c-14.9,0-29.4,0-44,0c0-1.5,0.8-2.2,1.3-3.1c10.3-17.8,20.5-35.6,30.8-53.4
		c0.7-1.3,1.2-2.7,3.3-2.7C193.8,153.8,206,153.7,218.9,153.7z"/>
	<path class="st0" d="M190.4,79.8c-17.9,0-32.5-14.6-32.4-32.3c0.1-17.8,14.7-32.2,32.6-32.2c17.7,0,32.2,14.5,32.2,32.2
		C222.9,65.3,208.3,79.8,190.4,79.8z"/>
	<path class="st0" d="M69.8,172.6c-9.8,0-19.5-0.1-29.3,0c-2.5,0-2.9-0.5-2.4-3c6.8-34.8,44.8-54.7,77.2-40.2c2.1,1,3.3,1.5,1.4,4.2
		c-7.5,10.7-12.3,22.5-14.1,35.5c-0.4,2.7-1.3,3.7-4.3,3.6C88.9,172.4,79.3,172.6,69.8,172.6z"/>
	<path class="st0" d="M343.1,172.6c-1.2,0-2.3,0-3.4,0c-19.2,0-38.3-0.1-57.5,0.1c-2.7,0-3.8-0.8-4.1-3.4
		c-1.9-13.2-6.8-25.2-14.4-36.1c-1.4-2-0.8-2.6,1.1-3.5c31.7-15,71,4.9,77.6,39.4C342.6,170.1,342.8,171.1,343.1,172.6z"/>
	<path class="st0" d="M116,83c0,12.9-10.4,23.1-23.3,23.1C79.9,106,69.5,95.6,69.5,82.8c0.1-12.7,10.7-23.2,23.4-23.2
		C105.7,59.7,116,70.2,116,83z"/>
	<path class="st0" d="M264.8,82.8c0.1-12.8,10.5-23.2,23.3-23.1c12.7,0.1,23.2,10.8,23.1,23.4c-0.1,12.8-10.6,23.1-23.4,23
		C274.9,106,264.7,95.7,264.8,82.8z"/>
</g>
</svg>
